<?xml version="1.0" encoding="utf-8"?>
<!-- Generator: Adobe Illustrator 24.2.0, SVG Export Plug-In . SVG Version: 6.00 Build 0)  -->
<svg version="1.1" id="Layer_1" xmlns="http://www.w3.org/2000/svg" xmlns:xlink="http://www.w3.org/1999/xlink" x="0px" y="0px"
	 viewBox="0 0 234.83 215.6" style="enable-background:new 0 0 234.83 215.6;" xml:space="preserve">
<style type="text/css">
	.st0{fill:#676670;}
	.st1{fill:#943520;}
	.st2{fill:#231F20;}
	.st3{fill:#FFFFFF;}
</style>
<rect x="30.71" y="28.2" class="st0" width="173.41" height="159.21"/>
<g>
	<g>
		<g>
			<polygon points="61.53,143.29 46.64,128.44 46.64,110.5 73.99,110.5 73.99,118.43 75.8,120.21 87.12,120.21 88.82,118.52 
				88.82,104.97 87.1,103.19 61.53,103.19 46.64,88.29 46.64,52.86 116.18,52.86 116.18,75.93 73.99,75.93 73.99,78.42 75.78,80.11 
				102.12,80.11 116.18,94.17 116.18,128.39 101.28,143.29 			"/>
		</g>
		<g>
			<path d="M146.99,142.45v-21.3h5.22v-4.81h-32.79V89.58l35.99-35.89h22.38v41.35h9.09v21.3h-9.09v4.81h5.22v21.3H146.99z
				 M151.27,94.11v-7.18l-7.18,7.18H151.27z"/>
		</g>
	</g>
	<g>
		<path class="st1" d="M72.27,79.15l2.82,2.68h26.32l13.05,13.05v32.79l-13.89,13.89H62.24l-13.89-13.84v-15.5h23.92v6.92l2.82,2.79
			h12.74l2.71-2.7v-14.96l-2.71-2.8H62.24L48.35,87.58v-33h66.1v19.63H72.27V79.15z"/>
		<path class="st1" d="M181.29,140.73h-32.58v-17.86h5.22v-8.25h-32.79V90.29l34.98-34.88h19.95v41.35h9.09v17.86h-9.09v8.25h5.22
			V140.73z M152.99,82.77l-13.05,13.05h13.05V82.77z"/>
	</g>
	<g>
		<path class="st1" d="M72.27,79.15l2.82,2.68h26.32l13.05,13.05v32.79l-13.89,13.89H62.24l-13.89-13.84v-15.5h23.92v6.92l2.82,2.79
			h12.74l2.71-2.7v-14.96l-2.71-2.8H62.24L48.35,87.58v-33h66.1v19.63H72.27V79.15z"/>
		<path class="st1" d="M181.29,140.73h-32.58v-17.86h5.22v-8.25h-32.79V90.29l34.98-34.88h19.95v41.35h9.09v17.86h-9.09v8.25h5.22
			V140.73z M152.99,82.77l-13.05,13.05h13.05V82.77z"/>
	</g>
	<g>
		<g>
			<path class="st1" d="M72.27,79.15l2.82,2.68h26.32l13.05,13.05v32.79l-13.89,13.89H62.24l-13.89-13.84v-15.5h23.92v6.92
				l2.82,2.79h12.74l2.71-2.7v-14.96l-2.71-2.8H62.24L48.35,87.58v-33h66.1v19.63H72.27V79.15z"/>
			<path class="st2" d="M100.98,142.57H61.83l-14.48-14.43v-16.92h25.92v7.5l2.23,2.21h11.92l2.13-2.12v-14.14l-2.14-2.21H61.83
				L47.35,87.99V53.58h68.1v21.63H73.27v3.51l2.22,2.11h26.33l13.64,13.64v33.62L100.98,142.57z M62.66,140.57h37.5l13.3-13.3V95.3
				l-12.47-12.47h-26.3l-3.42-3.25v-6.37h42.19V55.58h-64.1v31.59l13.3,13.3h25.59l3.29,3.4v15.78l-3.3,3.29H74.68l-3.41-3.37v-6.34
				H49.35v14.09L62.66,140.57z"/>
		</g>
		<g>
			<path class="st1" d="M181.29,140.73h-32.58v-17.86h5.22v-8.25h-32.79V90.29l34.98-34.88h19.95v41.35h9.09v17.86h-9.09v8.25h5.22
				V140.73z M152.99,82.77l-13.05,13.05h13.05V82.77z"/>
			<path class="st2" d="M182.29,141.73h-34.58v-19.86h5.22v-6.25h-32.79V89.88l35.57-35.46h21.36v41.35h9.09v19.86h-9.09v6.25h5.22
				V141.73z M149.71,139.73h30.58v-15.86h-5.22v-10.25h9.09V97.77h-9.09V56.41h-18.53l-34.4,34.29v22.92h32.79v10.25h-5.22V139.73z
				 M153.99,96.83h-16.47l16.47-16.47V96.83z M142.35,94.83h9.64v-9.64L142.35,94.83z"/>
		</g>
	</g>
	<g>
		<g>
			<rect x="48.35" y="60.65" class="st3" width="66.1" height="8.11"/>
			<path d="M114.58,68.88H48.23v-8.36h66.35V68.88z M48.48,68.63h65.85v-7.86H48.48V68.63z"/>
		</g>
		<g>
			<polygon class="st3" points="176.07,60.65 150.88,60.65 142.74,68.76 176.07,68.76 			"/>
			<path d="M176.2,68.88h-33.76l8.39-8.36h25.37V68.88z M143.04,68.63h32.9v-7.86h-25.02L143.04,68.63z"/>
		</g>
		<g>
			<polygon class="st3" points="48.35,127.73 54.75,134.1 108.04,134.1 114.46,127.68 114.46,125.98 48.35,125.98 			"/>
			<path d="M108.09,134.22H54.7l-0.04-0.04l-6.43-6.41v-1.92h66.35v1.87l-0.04,0.04L108.09,134.22z M54.8,133.97h53.19l6.35-6.35
				v-1.52H48.48v1.56L54.8,133.97z"/>
		</g>
		<g>
			<rect x="148.71" y="125.98" class="st3" width="32.58" height="8.11"/>
			<path d="M181.42,134.22h-32.83v-8.36h32.83V134.22z M148.84,133.97h32.33v-7.86h-32.33V133.97z"/>
		</g>
	</g>
	<g>
		<path class="st3" d="M104.4,96.5c0.45,0,0.81-0.45,0.81-1s-0.36-1-0.81-1h-2.3v-2.83h2.3c0.45,0,0.81-0.45,0.81-1s-0.36-1-0.81-1
			h-2.29c0.04-0.09,0.07-0.19,0.07-0.29c0-0.62-0.72-1.12-1.61-1.12c-0.89,0-1.61,0.5-1.61,1.12v0.29h-2.31
			c-0.45,0-0.81,0.45-0.81,1s0.36,1,0.81,1h2.31v2.83h-2.31c-0.45,0-0.81,0.45-0.81,1s0.36,1,0.81,1h2.31v2.83h-2.31
			c-0.45,0-0.81,0.45-0.81,1c0,0.55,0.36,1,0.81,1h2.31v2.83h-2.31c-0.45,0-0.81,0.45-0.81,1s0.36,1,0.81,1h2.31v2.83h-2.31
			c-0.45,0-0.81,0.45-0.81,1s0.36,1,0.81,1h2.31v2.83h-2.31c-0.45,0-0.81,0.45-0.81,1s0.36,1,0.81,1h2.31v2.83h-2.31
			c-0.45,0-0.81,0.45-0.81,1s0.36,1,0.81,1h2.31v0.93c0,0.62,0.72,1.12,1.61,1.12c0.89,0,1.61-0.5,1.61-1.12
			c0-0.12-0.03-0.23-0.08-0.33v-0.6h2.3c0.45,0,0.81-0.45,0.81-1s-0.36-1-0.81-1h-2.3v-2.83h2.3c0.45,0,0.81-0.45,0.81-1
			s-0.36-1-0.81-1h-2.3v-2.83h2.3c0.45,0,0.81-0.45,0.81-1s-0.36-1-0.81-1h-2.3v-2.83h2.3c0.45,0,0.81-0.45,0.81-1s-0.36-1-0.81-1
			h-2.3v-2.83h2.3c0.45,0,0.81-0.45,0.81-1c0-0.55-0.36-1-0.81-1h-2.3V96.5H104.4z"/>
		<path d="M100.58,122.92c-1.04,0-1.86-0.6-1.86-1.37v-0.68h-2.06c-0.59,0-1.06-0.56-1.06-1.25c0-0.69,0.48-1.25,1.06-1.25h2.06
			v-2.33h-2.06c-0.59,0-1.06-0.56-1.06-1.25c0-0.69,0.48-1.25,1.06-1.25h2.06v-2.33h-2.06c-0.59,0-1.06-0.56-1.06-1.25
			c0-0.69,0.48-1.25,1.06-1.25h2.06v-2.33h-2.06c-0.59,0-1.06-0.56-1.06-1.25c0-0.69,0.48-1.25,1.06-1.25h2.06v-2.33h-2.06
			c-0.59,0-1.06-0.56-1.06-1.25c0-0.69,0.48-1.25,1.06-1.25h2.06v-2.33h-2.06c-0.59,0-1.06-0.56-1.06-1.25
			c0-0.69,0.48-1.25,1.06-1.25h2.06v-2.33h-2.06c-0.59,0-1.06-0.56-1.06-1.25c0-0.69,0.48-1.25,1.06-1.25h2.06v-0.04
			c0-0.77,0.82-1.37,1.86-1.37s1.86,0.6,1.86,1.37c0,0.01,0,0.03,0,0.04h1.97c0.59,0,1.06,0.56,1.06,1.25
			c0,0.69-0.48,1.25-1.06,1.25h-2.05v2.33h2.05c0.59,0,1.06,0.56,1.06,1.25c0,0.69-0.48,1.25-1.06,1.25h-2.05v2.33h2.05
			c0.59,0,1.06,0.56,1.06,1.25c0,0.69-0.48,1.25-1.06,1.25h-2.05v2.33h2.05c0.59,0,1.06,0.56,1.06,1.25c0,0.69-0.48,1.25-1.06,1.25
			h-2.05v2.33h2.05c0.59,0,1.06,0.56,1.06,1.25c0,0.69-0.48,1.25-1.06,1.25h-2.05v2.33h2.05c0.59,0,1.06,0.56,1.06,1.25
			c0,0.69-0.48,1.25-1.06,1.25h-2.05v2.33h2.05c0.59,0,1.06,0.56,1.06,1.25c0,0.69-0.48,1.25-1.06,1.25h-2.05v0.3
			c0.05,0.13,0.08,0.26,0.08,0.38C102.44,122.32,101.62,122.92,100.58,122.92z M96.66,118.88c-0.31,0-0.56,0.33-0.56,0.75
			s0.25,0.75,0.56,0.75h2.56v1.18c0,0.47,0.62,0.87,1.36,0.87c0.74,0,1.36-0.4,1.36-0.87c0-0.07-0.02-0.14-0.06-0.23l-0.02-0.1
			v-0.85h2.55c0.31,0,0.56-0.33,0.56-0.75s-0.25-0.75-0.56-0.75h-2.55v-3.33h2.55c0.31,0,0.56-0.33,0.56-0.75s-0.25-0.75-0.56-0.75
			h-2.55v-3.33h2.55c0.31,0,0.56-0.33,0.56-0.75s-0.25-0.75-0.56-0.75h-2.55v-3.33h2.55c0.31,0,0.56-0.33,0.56-0.75
			s-0.25-0.75-0.56-0.75h-2.55v-3.33h2.55c0.31,0,0.56-0.33,0.56-0.75s-0.25-0.75-0.56-0.75h-2.55v-3.33h2.55
			c0.31,0,0.56-0.33,0.56-0.75s-0.25-0.75-0.56-0.75h-2.55v-3.33h2.55c0.31,0,0.56-0.33,0.56-0.75s-0.25-0.75-0.56-0.75h-2.65
			l0.14-0.34c0.03-0.08,0.05-0.14,0.05-0.2c0-0.47-0.62-0.87-1.36-0.87c-0.74,0-1.36,0.4-1.36,0.87v0.54h-2.56
			c-0.31,0-0.56,0.33-0.56,0.75s0.25,0.75,0.56,0.75h2.56v3.33h-2.56c-0.31,0-0.56,0.33-0.56,0.75s0.25,0.75,0.56,0.75h2.56v3.33
			h-2.56c-0.31,0-0.56,0.33-0.56,0.75s0.25,0.75,0.56,0.75h2.56v3.33h-2.56c-0.31,0-0.56,0.33-0.56,0.75s0.25,0.75,0.56,0.75h2.56
			v3.33h-2.56c-0.31,0-0.56,0.33-0.56,0.75s0.25,0.75,0.56,0.75h2.56v3.33h-2.56c-0.31,0-0.56,0.33-0.56,0.75s0.25,0.75,0.56,0.75
			h2.56v3.33H96.66z"/>
	</g>
	<g>
		<path class="st3" d="M171.7,83.23c0.6,0,1.08-0.59,1.08-1.32c0-0.73-0.48-1.32-1.08-1.32h-3.05v-3.76h3.05
			c0.6,0,1.08-0.59,1.08-1.32c0-0.73-0.48-1.32-1.08-1.32h-3.04c0.05-0.12,0.09-0.25,0.09-0.38c0-0.82-0.96-1.49-2.14-1.49
			c-1.18,0-2.14,0.67-2.14,1.49v0.38h-3.07c-0.6,0-1.08,0.59-1.08,1.32c0,0.73,0.48,1.32,1.08,1.32h3.07v3.76h-3.07
			c-0.6,0-1.08,0.59-1.08,1.32c0,0.73,0.48,1.32,1.08,1.32h3.07V87h-3.07c-0.6,0-1.08,0.59-1.08,1.32c0,0.73,0.48,1.32,1.08,1.32
			h3.07v3.76h-3.07c-0.6,0-1.08,0.59-1.08,1.32s0.48,1.32,1.08,1.32h3.07v3.76h-3.07c-0.6,0-1.08,0.59-1.08,1.32
			s0.48,1.32,1.08,1.32h3.07v3.76h-3.07c-0.6,0-1.08,0.59-1.08,1.32s0.48,1.32,1.08,1.32h3.07v3.76h-3.07
			c-0.6,0-1.08,0.59-1.08,1.32s0.48,1.32,1.08,1.32h3.07v1.24c0,0.82,0.96,1.49,2.14,1.49c1.18,0,2.14-0.67,2.14-1.49
			c0-0.16-0.04-0.3-0.11-0.44v-0.8h3.05c0.6,0,1.08-0.59,1.08-1.32s-0.48-1.32-1.08-1.32h-3.05v-3.76h3.05
			c0.6,0,1.08-0.59,1.08-1.32s-0.48-1.32-1.08-1.32h-3.05v-3.76h3.05c0.6,0,1.08-0.59,1.08-1.32s-0.48-1.32-1.08-1.32h-3.05v-3.76
			h3.05c0.6,0,1.08-0.59,1.08-1.32s-0.48-1.32-1.08-1.32h-3.05v-3.76h3.05c0.6,0,1.08-0.59,1.08-1.32c0-0.73-0.48-1.32-1.08-1.32
			h-3.05v-3.76H171.7z"/>
		<path d="M166.63,118.25c-1.32,0-2.38-0.78-2.38-1.74v-0.99h-2.82c-0.73,0-1.33-0.71-1.33-1.57s0.6-1.57,1.33-1.57h2.82v-3.26
			h-2.82c-0.73,0-1.33-0.71-1.33-1.57s0.6-1.57,1.33-1.57h2.82v-3.26h-2.82c-0.73,0-1.33-0.71-1.33-1.57s0.6-1.57,1.33-1.57h2.82
			V96.3h-2.82c-0.73,0-1.33-0.71-1.33-1.57s0.6-1.57,1.33-1.57h2.82v-3.26h-2.82c-0.73,0-1.33-0.71-1.33-1.57s0.6-1.57,1.33-1.57
			h2.82v-3.26h-2.82c-0.73,0-1.33-0.71-1.33-1.57s0.6-1.57,1.33-1.57h2.82v-3.26h-2.82c-0.73,0-1.33-0.71-1.33-1.57
			s0.6-1.57,1.33-1.57h2.82V73.8c0-0.96,1.07-1.74,2.38-1.74s2.39,0.78,2.39,1.74c0,0.05,0,0.09-0.01,0.13h2.7
			c0.73,0,1.33,0.71,1.33,1.57s-0.6,1.57-1.33,1.57h-2.8v3.26h2.8c0.73,0,1.33,0.71,1.33,1.57s-0.6,1.57-1.33,1.57h-2.8v3.26h2.8
			c0.73,0,1.33,0.71,1.33,1.57s-0.6,1.57-1.33,1.57h-2.8v3.26h2.8c0.73,0,1.33,0.71,1.33,1.57s-0.6,1.57-1.33,1.57h-2.8v3.26h2.8
			c0.73,0,1.33,0.71,1.33,1.57s-0.6,1.57-1.33,1.57h-2.8v3.26h2.8c0.73,0,1.33,0.71,1.33,1.57s-0.6,1.57-1.33,1.57h-2.8v3.26h2.8
			c0.73,0,1.33,0.71,1.33,1.57s-0.6,1.57-1.33,1.57h-2.8v0.5c0.07,0.17,0.11,0.34,0.11,0.49
			C169.01,117.47,167.94,118.25,166.63,118.25z M161.42,112.87c-0.46,0-0.83,0.48-0.83,1.07s0.37,1.07,0.83,1.07h3.32v1.49
			c0,0.67,0.86,1.24,1.88,1.24c1.02,0,1.89-0.57,1.89-1.24c0-0.1-0.03-0.21-0.08-0.34l-0.02-0.1v-1.05h3.3
			c0.46,0,0.83-0.48,0.83-1.07s-0.37-1.07-0.83-1.07h-3.3v-4.26h3.3c0.46,0,0.83-0.48,0.83-1.07s-0.37-1.07-0.83-1.07h-3.3v-4.26
			h3.3c0.46,0,0.83-0.48,0.83-1.07s-0.37-1.07-0.83-1.07h-3.3V95.8h3.3c0.46,0,0.83-0.48,0.83-1.07s-0.37-1.07-0.83-1.07h-3.3v-4.26
			h3.3c0.46,0,0.83-0.48,0.83-1.07c0-0.59-0.37-1.07-0.83-1.07h-3.3v-4.26h3.3c0.46,0,0.83-0.48,0.83-1.07s-0.37-1.07-0.83-1.07
			h-3.3v-4.26h3.3c0.46,0,0.83-0.48,0.83-1.07s-0.37-1.07-0.83-1.07h-3.41l0.14-0.34c0.04-0.11,0.08-0.2,0.08-0.29
			c0-0.67-0.86-1.24-1.89-1.24c-1.02,0-1.88,0.57-1.88,1.24v0.63h-3.32c-0.46,0-0.83,0.48-0.83,1.07s0.37,1.07,0.83,1.07h3.32v4.26
			h-3.32c-0.46,0-0.83,0.48-0.83,1.07s0.37,1.07,0.83,1.07h3.32v4.26h-3.32c-0.46,0-0.83,0.48-0.83,1.07c0,0.59,0.37,1.07,0.83,1.07
			h3.32v4.26h-3.32c-0.46,0-0.83,0.48-0.83,1.07s0.37,1.07,0.83,1.07h3.32v4.26h-3.32c-0.46,0-0.83,0.48-0.83,1.07
			s0.37,1.07,0.83,1.07h3.32v4.26h-3.32c-0.46,0-0.83,0.48-0.83,1.07s0.37,1.07,0.83,1.07h3.32v4.26H161.42z"/>
	</g>
	<g>
		<path class="st1" d="M66.11,62.29c2.15,1.14,2.92,0,2.92,0S63.95,61.15,66.11,62.29z"/>
		<path class="st1" d="M74.98,63.69c0.76,0.51,1.39-0.89,1.39-0.89S74.22,63.18,74.98,63.69z"/>
		<path class="st1" d="M63.32,67.36c1.77,0.13,3.3-1.27,3.3-1.27S61.54,67.24,63.32,67.36z"/>
		<path class="st1" d="M77.9,66.73c0.89,0.25,1.77-0.64,1.77-0.64S77.01,66.48,77.9,66.73z"/>
		<path class="st1" d="M82.21,63.3c0,0.64,0.89,0,0.89,0S82.21,62.66,82.21,63.3z"/>
		<path class="st1" d="M54.45,65.34c-1.9,0-1.39,0.76,0,0.76C55.84,66.1,54.45,65.34,54.45,65.34z"/>
		<path class="st1" d="M60.91,61.79c1.01,0.51,2.03,0,2.03,0C62.31,61.66,59.9,61.28,60.91,61.79z"/>
	</g>
	<g>
		<path class="st1" d="M100.87,66.61c-2.15-1.14-2.92,0-2.92,0S103.02,67.75,100.87,66.61z"/>
		<path class="st1" d="M91.99,65.21c-0.76-0.51-1.39,0.89-1.39,0.89S92.75,65.72,91.99,65.21z"/>
		<path class="st1" d="M103.65,61.54c-1.77-0.13-3.3,1.27-3.3,1.27S105.43,61.67,103.65,61.54z"/>
		<path class="st1" d="M89.08,62.17c-0.89-0.25-1.77,0.64-1.77,0.64S89.96,62.42,89.08,62.17z"/>
		<path class="st1" d="M84.77,65.6c0-0.64-0.89,0-0.89,0S84.77,66.24,84.77,65.6z"/>
		<path class="st1" d="M112.53,63.57c1.9,0,1.39-0.76,0-0.76C111.13,62.81,112.53,63.57,112.53,63.57z"/>
		<path class="st1" d="M106.06,67.12c-1.01-0.51-2.03,0-2.03,0C104.67,67.24,107.08,67.62,106.06,67.12z"/>
	</g>
	<g>
		<path class="st3" d="M94.89,59.63c-2.15-0.8-2.92,0-2.92,0S97.05,60.43,94.89,59.63z"/>
		<path class="st3" d="M86.02,58.66c-0.76-0.35-1.39,0.62-1.39,0.62S86.78,59.01,86.02,58.66z"/>
		<path class="st3" d="M97.68,56.1c-1.77-0.09-3.3,0.88-3.3,0.88S99.46,56.19,97.68,56.1z"/>
		<path class="st3" d="M83.11,56.54c-0.89-0.17-1.77,0.44-1.77,0.44S83.99,56.71,83.11,56.54z"/>
		<path class="st3" d="M78.8,58.93c0-0.45-0.89,0-0.89,0S78.8,59.38,78.8,58.93z"/>
		<path class="st3" d="M106.56,57.51c1.9,0,1.39-0.53,0-0.53C105.16,56.98,106.56,57.51,106.56,57.51z"/>
		<path class="st3" d="M100.09,59.99c-1.01-0.35-2.03,0-2.03,0C98.7,60.07,101.11,60.34,100.09,59.99z"/>
	</g>
	<g>
		<path class="st3" d="M63.22,59.63c-1.57-0.8-2.12,0-2.12,0S64.79,60.43,63.22,59.63z"/>
		<path class="st3" d="M56.76,58.66c-0.55-0.35-1.02,0.62-1.02,0.62S57.31,59.01,56.76,58.66z"/>
		<path class="st3" d="M65.25,56.1c-1.29-0.09-2.4,0.88-2.4,0.88S66.54,56.19,65.25,56.1z"/>
		<path class="st3" d="M54.64,56.54c-0.65-0.17-1.29,0.44-1.29,0.44S55.28,56.71,54.64,56.54z"/>
		<path class="st3" d="M51.5,58.93c0-0.45-0.65,0-0.65,0S51.5,59.38,51.5,58.93z"/>
		<path class="st3" d="M71.71,57.51c1.38,0,1.02-0.53,0-0.53C70.7,56.98,71.71,57.51,71.71,57.51z"/>
		<path class="st3" d="M67,59.99c-0.74-0.35-1.48,0-1.48,0C65.99,60.07,67.74,60.34,67,59.99z"/>
	</g>
	<g>
		<path class="st3" d="M63.41,76.11c-1.57-0.8-2.12,0-2.12,0S64.98,76.91,63.41,76.11z"/>
		<path class="st3" d="M56.95,75.14c-0.55-0.35-1.02,0.62-1.02,0.62S57.51,75.5,56.95,75.14z"/>
		<path class="st3" d="M65.44,72.58c-1.29-0.09-2.4,0.88-2.4,0.88S66.74,72.67,65.44,72.58z"/>
		<path class="st3" d="M54.83,73.02c-0.65-0.17-1.29,0.44-1.29,0.44S55.48,73.19,54.83,73.02z"/>
		<path class="st3" d="M51.69,75.41c0-0.45-0.65,0-0.65,0S51.69,75.86,51.69,75.41z"/>
		<path class="st3" d="M71.9,73.99c1.38,0,1.02-0.53,0-0.53C70.89,73.46,71.9,73.99,71.9,73.99z"/>
		<path class="st3" d="M67.2,76.47c-0.74-0.35-1.48,0-1.48,0C66.18,76.56,67.94,76.82,67.2,76.47z"/>
	</g>
	<g>
		<path class="st3" d="M62.72,83.95c-1.14-1.34-1.96-0.81-1.96-0.81S63.87,85.29,62.72,83.95z"/>
		<path class="st3" d="M57.13,80.58c-0.38-0.54-1.17,0.18-1.17,0.18S57.51,81.12,57.13,80.58z"/>
		<path class="st3" d="M65.95,81.46c-1.16-0.58-2.55-0.1-2.55-0.1S67.11,82.04,65.95,81.46z"/>
		<path class="st3" d="M55.98,77.8c-0.53-0.41-1.36-0.08-1.36-0.08S56.51,78.21,55.98,77.8z"/>
		<path class="st3" d="M52.17,78.81c0.17-0.41-0.6-0.25-0.6-0.25S52,79.22,52.17,78.81z"/>
		<path class="st3" d="M71.38,85.25c1.28,0.53,1.14-0.1,0.2-0.49C70.64,84.37,71.38,85.25,71.38,85.25z"/>
		<path class="st3" d="M66.08,85.73c-0.55-0.61-1.37-0.57-1.37-0.57C65.11,85.42,66.63,86.34,66.08,85.73z"/>
	</g>
	<g>
		<path class="st3" d="M67.06,92.94c-1.14-1.34-1.96-0.81-1.96-0.81S68.2,94.28,67.06,92.94z"/>
		<path class="st3" d="M61.47,89.57c-0.38-0.54-1.17,0.18-1.17,0.18S61.84,90.11,61.47,89.57z"/>
		<path class="st3" d="M70.29,90.45c-1.16-0.58-2.55-0.1-2.55-0.1S71.45,91.03,70.29,90.45z"/>
		<path class="st3" d="M60.32,86.79c-0.53-0.41-1.36-0.08-1.36-0.08S60.85,87.2,60.32,86.79z"/>
		<path class="st3" d="M56.5,87.8c0.17-0.41-0.6-0.25-0.6-0.25S56.33,88.21,56.5,87.8z"/>
		<path class="st3" d="M75.71,94.24c1.28,0.53,1.14-0.1,0.2-0.49C74.98,93.36,75.71,94.24,75.71,94.24z"/>
		<path class="st3" d="M70.42,94.72c-0.55-0.61-1.37-0.57-1.37-0.57C69.45,94.41,70.96,95.33,70.42,94.72z"/>
	</g>
	<g>
		<path class="st3" d="M94.39,93.38c-1.14-1.34-1.96-0.81-1.96-0.81S95.53,94.71,94.39,93.38z"/>
		<path class="st3" d="M88.79,90c-0.38-0.54-1.17,0.18-1.17,0.18S89.17,90.54,88.79,90z"/>
		<path class="st3" d="M97.62,90.89c-1.16-0.58-2.55-0.1-2.55-0.1S98.78,91.47,97.62,90.89z"/>
		<path class="st3" d="M87.65,87.23c-0.53-0.41-1.36-0.08-1.36-0.08S88.18,87.64,87.65,87.23z"/>
		<path class="st3" d="M83.83,88.24c0.17-0.41-0.6-0.25-0.6-0.25S83.66,88.65,83.83,88.24z"/>
		<path class="st3" d="M103.04,94.67c1.28,0.53,1.14-0.1,0.2-0.49C102.31,93.8,103.04,94.67,103.04,94.67z"/>
		<path class="st3" d="M97.75,95.16c-0.55-0.61-1.37-0.57-1.37-0.57C96.78,94.85,98.29,95.76,97.75,95.16z"/>
	</g>
	<g>
		<path class="st3" d="M98.72,102.37c-1.14-1.34-1.96-0.81-1.96-0.81S99.87,103.7,98.72,102.37z"/>
		<path class="st3" d="M93.13,99c-0.38-0.54-1.17,0.18-1.17,0.18S93.5,99.53,93.13,99z"/>
		<path class="st3" d="M101.95,99.88c-1.16-0.58-2.55-0.1-2.55-0.1S103.11,100.46,101.95,99.88z"/>
		<path class="st3" d="M91.98,96.22c-0.53-0.41-1.36-0.08-1.36-0.08S92.51,96.63,91.98,96.22z"/>
		<path class="st3" d="M88.17,97.23c0.17-0.41-0.6-0.25-0.6-0.25S87.99,97.64,88.17,97.23z"/>
		<path class="st3" d="M107.38,103.66c1.28,0.53,1.14-0.1,0.2-0.49C106.64,102.79,107.38,103.66,107.38,103.66z"/>
		<path class="st3" d="M102.08,104.15c-0.55-0.61-1.37-0.57-1.37-0.57C101.11,103.84,102.63,104.76,102.08,104.15z"/>
	</g>
	<g>
		<path class="st1" d="M67.12,127.29c-1.59-0.75-2.12,0.06-2.12,0.06S68.72,128.04,67.12,127.29z"/>
		<path class="st1" d="M60.64,126.52c-0.56-0.34-1,0.65-1,0.65S61.2,126.85,60.64,126.52z"/>
		<path class="st1" d="M69.05,123.7c-1.29-0.05-2.37,0.96-2.37,0.96S70.34,123.75,69.05,123.7z"/>
		<path class="st1" d="M58.45,124.46c-0.65-0.15-1.28,0.48-1.28,0.48S59.1,124.61,58.45,124.46z"/>
		<path class="st1" d="M55.39,126.95c-0.01-0.45-0.65,0.02-0.65,0.02S55.4,127.4,55.39,126.95z"/>
		<path class="st1" d="M75.55,124.91c1.38-0.04,1-0.56-0.02-0.53C74.51,124.41,75.55,124.91,75.55,124.91z"/>
		<path class="st1" d="M70.92,127.53c-0.75-0.33-1.48,0.05-1.48,0.05C69.9,127.65,71.67,127.86,70.92,127.53z"/>
	</g>
	<g>
		<path class="st1" d="M74.77,133.7c-1.59-0.75-2.12,0.06-2.12,0.06S76.36,134.45,74.77,133.7z"/>
		<path class="st1" d="M68.29,132.93c-0.56-0.34-1,0.65-1,0.65S68.85,133.27,68.29,132.93z"/>
		<path class="st1" d="M76.69,130.11c-1.29-0.05-2.37,0.96-2.37,0.96S77.99,130.16,76.69,130.11z"/>
		<path class="st1" d="M66.1,130.87c-0.65-0.15-1.28,0.48-1.28,0.48S66.75,131.03,66.1,130.87z"/>
		<path class="st1" d="M63.04,133.36c-0.01-0.45-0.65,0.02-0.65,0.02S63.05,133.81,63.04,133.36z"/>
		<path class="st1" d="M83.19,131.33c1.38-0.04,1-0.56-0.02-0.53C82.16,130.83,83.19,131.33,83.19,131.33z"/>
		<path class="st1" d="M78.57,133.94c-0.75-0.33-1.48,0.05-1.48,0.05C77.55,134.06,79.31,134.27,78.57,133.94z"/>
	</g>
	<g>
		<path class="st1" d="M90.26,128.18c-1.59-0.75-2.12,0.06-2.12,0.06S91.85,128.93,90.26,128.18z"/>
		<path class="st1" d="M83.77,127.4c-0.56-0.34-1,0.65-1,0.65S84.33,127.74,83.77,127.4z"/>
		<path class="st1" d="M92.18,124.58c-1.29-0.05-2.37,0.96-2.37,0.96S93.47,124.63,92.18,124.58z"/>
		<path class="st1" d="M81.58,125.35c-0.65-0.15-1.28,0.48-1.28,0.48S82.23,125.5,81.58,125.35z"/>
		<path class="st1" d="M78.52,127.84c-0.01-0.45-0.65,0.02-0.65,0.02S78.53,128.28,78.52,127.84z"/>
		<path class="st1" d="M98.68,125.8c1.38-0.04,1-0.56-0.02-0.53C97.65,125.3,98.68,125.8,98.68,125.8z"/>
		<path class="st1" d="M94.05,128.42c-0.75-0.33-1.48,0.05-1.48,0.05C93.04,128.54,94.8,128.75,94.05,128.42z"/>
	</g>
	<g>
		<path class="st1" d="M97.91,134.59c-1.59-0.75-2.12,0.06-2.12,0.06S99.5,135.34,97.91,134.59z"/>
		<path class="st1" d="M91.42,133.82c-0.56-0.34-1,0.65-1,0.65S91.98,134.15,91.42,133.82z"/>
		<path class="st1" d="M99.83,131c-1.29-0.05-2.37,0.96-2.37,0.96S101.12,131.05,99.83,131z"/>
		<path class="st1" d="M89.23,131.76c-0.65-0.15-1.28,0.48-1.28,0.48S89.88,131.91,89.23,131.76z"/>
		<path class="st1" d="M86.17,134.25c-0.01-0.45-0.65,0.02-0.65,0.02S86.18,134.69,86.17,134.25z"/>
		<path class="st1" d="M106.33,132.21c1.38-0.04,1-0.56-0.02-0.53C105.3,131.71,106.33,132.21,106.33,132.21z"/>
		<path class="st1" d="M101.7,134.83c-0.75-0.33-1.48,0.05-1.48,0.05C100.69,134.95,102.45,135.16,101.7,134.83z"/>
	</g>
	<g>
		<path class="st1" d="M165,130.11c-1.59-0.75-2.12,0.06-2.12,0.06S166.6,130.86,165,130.11z"/>
		<path class="st1" d="M158.52,129.33c-0.56-0.34-1,0.65-1,0.65S159.08,129.67,158.52,129.33z"/>
		<path class="st1" d="M166.92,126.51c-1.29-0.05-2.37,0.96-2.37,0.96S168.22,126.56,166.92,126.51z"/>
		<path class="st1" d="M156.33,127.28c-0.65-0.15-1.28,0.48-1.28,0.48S156.98,127.43,156.33,127.28z"/>
		<path class="st1" d="M153.27,129.76c-0.01-0.45-0.65,0.02-0.65,0.02S153.28,130.21,153.27,129.76z"/>
		<path class="st1" d="M173.42,127.73c1.38-0.04,1-0.56-0.02-0.53C172.39,127.23,173.42,127.73,173.42,127.73z"/>
		<path class="st1" d="M168.8,130.35c-0.75-0.33-1.48,0.05-1.48,0.05C167.78,130.47,169.54,130.68,168.8,130.35z"/>
	</g>
	<g>
		<path class="st1" d="M162.05,66.17c-1.59-0.75-2.12,0.06-2.12,0.06S163.65,66.91,162.05,66.17z"/>
		<path class="st1" d="M155.57,65.39c-0.56-0.34-1,0.65-1,0.65S156.13,65.73,155.57,65.39z"/>
		<path class="st1" d="M163.98,62.57c-1.29-0.05-2.37,0.96-2.37,0.96S165.27,62.62,163.98,62.57z"/>
		<path class="st1" d="M153.38,63.33c-0.65-0.15-1.28,0.48-1.28,0.48S154.03,63.49,153.38,63.33z"/>
		<path class="st1" d="M150.32,65.82c-0.01-0.45-0.65,0.02-0.65,0.02S150.33,66.27,150.32,65.82z"/>
		<path class="st1" d="M170.48,63.79c1.38-0.04,1-0.56-0.02-0.53C169.45,63.29,170.48,63.79,170.48,63.79z"/>
		<path class="st1" d="M165.85,66.41c-0.75-0.33-1.48,0.05-1.48,0.05C164.83,66.53,166.6,66.74,165.85,66.41z"/>
	</g>
	<g>
		<path class="st3" d="M140.82,106.67c-1.59-0.75-2.12,0.06-2.12,0.06S142.41,107.42,140.82,106.67z"/>
		<path class="st3" d="M134.33,105.9c-0.56-0.34-1,0.65-1,0.65S134.9,106.23,134.33,105.9z"/>
		<path class="st3" d="M142.74,103.08c-1.29-0.05-2.37,0.96-2.37,0.96S144.03,103.12,142.74,103.08z"/>
		<path class="st3" d="M132.15,103.84c-0.65-0.15-1.28,0.48-1.28,0.48S132.8,103.99,132.15,103.84z"/>
		<path class="st3" d="M129.08,106.33c-0.01-0.45-0.65,0.02-0.65,0.02S129.1,106.77,129.08,106.33z"/>
		<path class="st3" d="M149.24,104.29c1.38-0.04,1-0.56-0.02-0.53C148.21,103.79,149.24,104.29,149.24,104.29z"/>
		<path class="st3" d="M144.61,106.91c-0.75-0.33-1.48,0.05-1.48,0.05C143.6,107.03,145.36,107.24,144.61,106.91z"/>
	</g>
	<g>
		<path class="st3" d="M138.1,91.05c-2.06,0.52-1.17,1.77-1.17,1.77S140.16,90.52,138.1,91.05z"/>
		<path class="st3" d="M133.09,95.48c-0.84,0.11,0.37,1.46,0.37,1.46S133.92,95.37,133.09,95.48z"/>
		<path class="st3" d="M133.9,85.86c-0.84,0.99,0.01,2.88,0.01,2.88S134.74,84.86,133.9,85.86z"/>
		<path class="st3" d="M128.73,95.16c-0.62,0.37-0.04,1.52-0.04,1.52S129.34,94.79,128.73,95.16z"/>
		<path class="st3" d="M130.6,100.15c-0.67-0.44-0.35,0.54-0.35,0.54S131.28,100.59,130.6,100.15z"/>
		<path class="st3" d="M139.57,81.86c0.76-1.16-0.24-1.37-0.8-0.52C138.22,82.18,139.57,81.86,139.57,81.86z"/>
		<path class="st3" d="M140.71,88.23c-0.94,0.27-0.81,1.24-0.81,1.24C140.28,89.17,141.64,87.97,140.71,88.23z"/>
	</g>
	<g>
		<path class="st3" d="M177.68,108.3c-2.06,0.52-1.17,1.77-1.17,1.77S179.74,107.78,177.68,108.3z"/>
		<path class="st3" d="M172.67,112.74c-0.84,0.11,0.37,1.46,0.37,1.46S173.51,112.63,172.67,112.74z"/>
		<path class="st3" d="M173.48,103.11c-0.84,0.99,0.01,2.88,0.01,2.88S174.32,102.12,173.48,103.11z"/>
		<path class="st3" d="M168.31,112.41c-0.62,0.37-0.04,1.52-0.04,1.52S168.93,112.05,168.31,112.41z"/>
		<path class="st3" d="M170.19,117.4c-0.67-0.44-0.35,0.54-0.35,0.54S170.86,117.84,170.19,117.4z"/>
		<path class="st3" d="M179.16,99.11c0.76-1.16-0.24-1.37-0.8-0.52C177.8,99.43,179.16,99.11,179.16,99.11z"/>
		<path class="st3" d="M180.29,105.49c-0.94,0.27-0.81,1.24-0.81,1.24C179.87,106.43,181.23,105.22,180.29,105.49z"/>
	</g>
	<g>
		<path class="st3" d="M158.42,103.97c-2.06,0.52-1.17,1.77-1.17,1.77S160.48,103.44,158.42,103.97z"/>
		<path class="st3" d="M153.41,108.4c-0.84,0.11,0.37,1.46,0.37,1.46S154.25,108.29,153.41,108.4z"/>
		<path class="st3" d="M154.22,98.78c-0.84,0.99,0.01,2.88,0.01,2.88S155.07,97.78,154.22,98.78z"/>
		<path class="st3" d="M149.05,108.08c-0.62,0.37-0.04,1.52-0.04,1.52S149.67,107.71,149.05,108.08z"/>
		<path class="st3" d="M150.93,113.07c-0.67-0.44-0.35,0.54-0.35,0.54S151.6,113.51,150.93,113.07z"/>
		<path class="st3" d="M159.9,94.78c0.76-1.16-0.24-1.37-0.8-0.52C158.54,95.1,159.9,94.78,159.9,94.78z"/>
		<path class="st3" d="M161.03,101.16c-0.94,0.27-0.81,1.24-0.81,1.24C160.61,102.09,161.97,100.89,161.03,101.16z"/>
	</g>
	<g>
		<path class="st3" d="M61.47,124.07c-1.32-1.4-1.74,0.05-1.74,0.05S62.79,125.47,61.47,124.07z"/>
		<path class="st3" d="M56.15,122.46c-0.47-0.62-0.8,1.14-0.8,1.14S56.62,123.08,56.15,122.46z"/>
		<path class="st3" d="M62.97,117.66c-1.06-0.13-1.92,1.64-1.92,1.64S64.03,117.8,62.97,117.66z"/>
		<path class="st3" d="M54.31,118.68c-0.54-0.3-1.04,0.83-1.04,0.83S54.85,118.98,54.31,118.68z"/>
		<path class="st3" d="M51.86,123.06c-0.02-0.8-0.53,0.01-0.53,0.01S51.88,123.87,51.86,123.06z"/>
		<path class="st3" d="M68.31,120.07c1.13-0.03,0.8-0.98-0.03-0.95C67.46,119.14,68.31,120.07,68.31,120.07z"/>
		<path class="st3" d="M64.58,124.62c-0.62-0.62-1.21,0.03-1.21,0.03C63.76,124.8,65.21,125.24,64.58,124.62z"/>
	</g>
	<g>
		<path class="st3" d="M72.31,138.98c-1.32-1.4-1.74,0.05-1.74,0.05S73.63,140.38,72.31,138.98z"/>
		<path class="st3" d="M66.98,137.37c-0.47-0.62-0.8,1.14-0.8,1.14S67.45,138,66.98,137.37z"/>
		<path class="st3" d="M73.8,132.58c-1.06-0.13-1.92,1.64-1.92,1.64S74.86,132.71,73.8,132.58z"/>
		<path class="st3" d="M65.15,133.6c-0.54-0.3-1.04,0.83-1.04,0.83S65.68,133.9,65.15,133.6z"/>
		<path class="st3" d="M62.7,137.98c-0.02-0.8-0.53,0.01-0.53,0.01S62.72,138.78,62.7,137.98z"/>
		<path class="st3" d="M79.15,134.98c1.13-0.03,0.8-0.98-0.03-0.95C78.3,134.05,79.15,134.98,79.15,134.98z"/>
		<path class="st3" d="M75.42,139.54c-0.62-0.62-1.21,0.03-1.21,0.03C74.6,139.72,76.04,140.16,75.42,139.54z"/>
	</g>
	<g>
		<path class="st3" d="M91.35,137.98c-1.32-1.4-1.74,0.05-1.74,0.05S92.67,139.38,91.35,137.98z"/>
		<path class="st3" d="M86.02,136.37c-0.47-0.62-0.8,1.14-0.8,1.14S86.49,136.99,86.02,136.37z"/>
		<path class="st3" d="M92.84,131.58c-1.06-0.13-1.92,1.64-1.92,1.64S93.9,131.71,92.84,131.58z"/>
		<path class="st3" d="M84.18,132.6c-0.54-0.3-1.04,0.83-1.04,0.83S84.72,132.89,84.18,132.6z"/>
		<path class="st3" d="M81.73,136.97c-0.02-0.8-0.53,0.01-0.53,0.01S81.75,137.78,81.73,136.97z"/>
		<path class="st3" d="M98.19,133.98c1.13-0.03,0.8-0.98-0.03-0.95C97.33,133.05,98.19,133.98,98.19,133.98z"/>
		<path class="st3" d="M94.46,138.53c-0.62-0.62-1.21,0.03-1.21,0.03C93.63,138.71,95.08,139.15,94.46,138.53z"/>
	</g>
	<g>
		<path class="st3" d="M105.61,103.76c1.43-1.28,0-1.74,0-1.74S104.18,105.05,105.61,103.76z"/>
		<path class="st3" d="M107.35,98.48c0.64-0.45-1.11-0.83-1.11-0.83S106.72,98.93,107.35,98.48z"/>
		<path class="st3" d="M111.97,105.42c0.16-1.06-1.59-1.96-1.59-1.96S111.81,106.47,111.97,105.42z"/>
		<path class="st3" d="M111.17,96.74c0.31-0.53-0.8-1.06-0.8-1.06S110.86,97.27,111.17,96.74z"/>
		<path class="st3" d="M106.86,94.18c0.81,0,0-0.53,0-0.53S106.06,94.18,106.86,94.18z"/>
		<path class="st3" d="M109.43,110.7c0,1.13,0.96,0.83,0.95,0C110.39,109.87,109.43,110.7,109.43,110.7z"/>
		<path class="st3" d="M104.98,106.86c0.64-0.6,0-1.21,0-1.21C104.82,106.03,104.34,107.46,104.98,106.86z"/>
	</g>
	<g>
		<path class="st3" d="M106.17,116.13c1.43-1.28,0-1.74,0-1.74S104.74,117.42,106.17,116.13z"/>
		<path class="st3" d="M107.92,110.85c0.64-0.45-1.11-0.83-1.11-0.83S107.28,111.3,107.92,110.85z"/>
		<path class="st3" d="M112.54,117.79c0.16-1.06-1.59-1.96-1.59-1.96S112.38,118.85,112.54,117.79z"/>
		<path class="st3" d="M111.74,109.11c0.31-0.53-0.8-1.06-0.8-1.06S111.42,109.64,111.74,109.11z"/>
		<path class="st3" d="M107.42,106.55c0.81,0,0-0.53,0-0.53S106.62,106.55,107.42,106.55z"/>
		<path class="st3" d="M110,123.07c0,1.13,0.96,0.83,0.95,0C110.95,122.24,110,123.07,110,123.07z"/>
		<path class="st3" d="M105.54,119.23c0.64-0.6,0-1.21,0-1.21C105.38,118.4,104.9,119.83,105.54,119.23z"/>
	</g>
	<g>
		<path class="st3" d="M151.07,76.2c-2.06,0.52-1.17,1.77-1.17,1.77S153.13,75.67,151.07,76.2z"/>
		<path class="st3" d="M146.06,80.64c-0.84,0.11,0.37,1.46,0.37,1.46S146.9,80.52,146.06,80.64z"/>
		<path class="st3" d="M146.87,71.01c-0.84,0.99,0.01,2.88,0.01,2.88S147.72,70.01,146.87,71.01z"/>
		<path class="st3" d="M141.7,80.31c-0.62,0.37-0.04,1.52-0.04,1.52S142.32,79.94,141.7,80.31z"/>
		<path class="st3" d="M143.58,85.3c-0.67-0.44-0.35,0.54-0.35,0.54S144.25,85.74,143.58,85.3z"/>
		<path class="st3" d="M152.55,67.01c0.76-1.16-0.24-1.37-0.8-0.52C151.19,67.33,152.55,67.01,152.55,67.01z"/>
		<path class="st3" d="M153.68,73.39c-0.94,0.27-0.81,1.24-0.81,1.24C153.26,74.32,154.62,73.12,153.68,73.39z"/>
	</g>
	<g>
		<g>
			<path d="M61.6,143.12l-14.8-14.75v-17.7h27.01v7.83l1.91,1.89h11.46l1.81-1.8V104.9l-1.82-1.88H61.6l-14.8-14.8V53.03h69.2v22.73
				H73.82v2.73l1.89,1.79h26.34l13.96,13.96v34.07l-14.8,14.8H61.6z M99.93,140.02l12.98-12.98V95.53l-12.15-12.15H74.47l-3.75-3.56
				v-7.16h42.19V56.13h-63v30.81l12.98,12.98h25.6l3.61,3.73v16.23l-3.62,3.61H74.45l-3.73-3.69v-6.02H49.9v13.31l12.98,12.93H99.93
				z"/>
		</g>
		<g>
			<path d="M136.2,97.38l18.35-18.35v18.35H136.2z M151.44,94.28v-7.76l-7.76,7.76H151.44z"/>
		</g>
		<g>
			<path d="M147.16,142.28v-20.96h5.22v-5.15h-32.79V89.65l35.89-35.79h22.14v41.35h9.09v20.96h-9.09v5.15h5.22v20.96H147.16z
				 M179.74,139.18v-14.76h-5.22v-11.35h9.09V98.32h-9.09V56.96h-17.76l-34.07,33.97v22.14h32.79v11.35h-5.22v14.76H179.74z"/>
		</g>
	</g>
	<g>
		<path class="st3" d="M47.35,87.99l14.48,14.48h25.58l2.14,2.21v14.14l-2.13,2.12H75.5l-2.23-2.21v-7.5H47.35v16.92l14.48,14.42
			h39.15l14.48-14.47V94.47l-13.64-13.64H75.49l-2.22-2.11v-3.52h42.19V53.58h-68.1V87.99z M49.35,55.58h64.1v17.63H71.27v6.37
			l3.42,3.25h26.3l12.47,12.47v31.96l-13.3,13.3h-37.5l-13.3-13.25v-14.09h21.92v6.34l3.41,3.37h13.56l3.3-3.29v-15.78l-3.29-3.4
			H62.66l-13.3-13.3V55.58z"/>
		<path class="st3" d="M153.99,96.83V80.36l-16.47,16.47H153.99z M151.99,94.83h-9.64l9.64-9.64V94.83z"/>
		<path class="st3" d="M186.16,115.62V95.77h-9.09V54.41h-21.36l-35.57,35.46v25.75h32.79v6.25h-5.22v19.86h34.58v-19.86h-5.22
			v-6.25H186.16z M180.29,123.87v15.86h-30.58v-15.86h5.22v-10.25h-32.79V90.71l34.4-34.29h18.53v41.35h9.09v15.86h-9.09v10.25
			H180.29z"/>
	</g>
</g>
</svg>
