<?xml version="1.0" encoding="utf-8"?>
<!-- Generator: Adobe Illustrator 24.2.0, SVG Export Plug-In . SVG Version: 6.00 Build 0)  -->
<svg version="1.1" xmlns="http://www.w3.org/2000/svg" xmlns:xlink="http://www.w3.org/1999/xlink" x="0px" y="0px"
	 viewBox="0 0 270.84 351.65" style="enable-background:new 0 0 270.84 351.65;" xml:space="preserve">
<style type="text/css">
	.st0{fill:#251C16;}
</style>
<g id="Layer_1">
</g>
<g id="Layer_2">
	<g>
		<g>
			<g>
				<path class="st0" d="M166.82,149.43v5.49l-5.68,1.89v-5.43c-8.08,2.53-21.28,0.76-21.28,0.76l-0.44,5.94l-7.93-2.27l-0.34-5.37
					c-14.52-3.09-23.82-11.12-23.82-11.12c0,9.54,5.56,19.2,15.41,27.28c9.85,8.08,24.57,6.38,24.57,6.38l0.32-5.43l8.02-2.4
					l-0.38,6.57c10.42-2.84,17.43-8.91,21.79-18.84c4.36-9.93,2.08-13.94,2.08-13.94C175.73,145.89,166.82,149.43,166.82,149.43z"/>
				<path class="st0" d="M158.11,142.74c-3.41-10.36-8.97-15.41-8.97-15.41c-1.14,6.95-5.94,16.8-5.94,16.8
					C147.43,145.77,158.11,142.74,158.11,142.74z"/>
				<path class="st0" d="M140.93,133.26c1.01-1.2-10.36-23.81-12.88-22.8c-2.53,1.01-10.93,22.17-10.61,22.8
					C117.75,133.89,140.93,133.26,140.93,133.26z"/>
				<path class="st0" d="M175.22,128.15c0.06-0.57-13.2-20.21-15.6-20.72c-2.4-0.51-4.48,19.33-3.6,24.32
					C156.02,131.75,175.16,128.72,175.22,128.15z"/>
				<path class="st0" d="M224.99,134.97c0.25-5.87-4.04-7.58-4.04-7.58s0.69-3.03-2.02-5.05c-2.72-2.02-6.51-0.76-6.51-0.76
					s-4.8-2.84-8.46-0.19c-3.66,2.65-3.54,5.87-3.54,6.06s-5.43,1.2-4.93,6.76c0.51,5.56,4.42,7.96,4.23,8.91
					c-0.19,0.95-1.07,1.96-0.44,4.23s2.97,3.85,2.97,3.85c-0.19,2.4-2.91,7.26-3.54,7.33s-8.53-4.23-8.53-4.23s3.03-9.85,1.96-22.93
					c-1.39-13.33-8.4-26.02-18.63-33.79c-10.23-7.77-21.41-6.13-22.42-6.51c-6.37-2.39-12.82-2.65-13.2-3.22s0.06-2.65,0.44-4.55
					c0.38-1.89,4.29-5.18,4.29-6.32s-6.13-4.93-7.48-5.56s-3.95-1.58-8.62,5.43c-4.67,7.01-6.13,11.87-6.13,11.87
					c-7.96,1.45-11.75,3.79-11.75,3.79s-8.72-1.83-17.75,3.54c-9.03,5.37-16.23,13.45-19.26,23.43c-3.03,9.98-3.03,18.25-3.16,18.57
					c-0.13,0.32-14.27-0.38-18.19,5.43c-3.92,5.81-4.55,13.07-4.61,14.02c-0.06,0.95-3.41,1.01-4.23,3.47
					c-0.82,2.46-0.38,5.31-0.38,5.31c-3.98,3.6-4.93,8.91-2.34,14.84s6.32,5.68,7.14,5.68s1.01,1.39,4.23,2.16
					c3.22,0.77,5.43-1.84,5.43-1.84s3.16,1.45,6.57-0.19c3.41-1.64,2.46-7.45,2.46-7.45s2.53-2.97,1.2-8.02
					c-1.33-5.05-6.38-6.76-6.38-6.76c0.06-4.99-3.85-5.87-3.85-5.87s0.38-5.68,2.78-8.08c2.4-2.4,10.86-2.53,10.86-2.53
					c0.88,10.11,6.63,18.19,9.66,21.92c3.03,3.73,9.85,9.22,18.57,12.38c8.72,3.16,15.41,3.85,15.41,3.85
					c-0.69,4.48-5.62,14.02-7.83,14.72c-2.21,0.69-11.37-3.6-11.37-3.6s0.76-2.34-0.25-3.66c-1.01-1.33-3.09-1.52-4.42-1.89
					c-1.33-0.38-2.15-1.01-3.03-2.53s-3.35-4.42-7.07-4.23c-3.73,0.19-8.4,6.25-10.29,9.22c-1.89,2.97-7.77,9.79-10.29,16.61
					c-2.53,6.82-2.34,12.38,0.69,15.73c3.03,3.35,8.53,3.98,12.19,1.39c3.66-2.59,4.86-5.94,5.12-7.52
					c0.25-1.58,2.34-3.28,3.54-5.18s1.45-4.42,1.45-4.42c7.33-0.19,8.27-4.29,9.09-4.11s15.28,5.05,17.49,5.31
					s7.26-4.04,11.94-12.51c4.67-8.46,5.62-12.38,5.62-12.38c9.41,3.79,18.51,0.38,19.26,0.44c0.76,0.06,16.17,5.24,19.71,7.96
					c3.6,3.35,7.83,13.58,8.53,15.85c0.69,2.27-2.02,1.71-1.2,5.05c0.82,3.35,2.91,3.98,3.35,4.8c0.44,0.82,0.19,7.2,2.78,10.55
					s4.48,3.79,11.37,0.82c6.88-2.97,23.12-18.25,24.82-20.34c1.71-2.08,3.92-7.07,0.95-10.8c-2.97-3.73-5.62-4.55-9.98-3.09
					s-9.79,6.38-11.24,7.45c-1.45,1.07-6.13,1.39-6.13,1.39c-0.63-1.77-3.54-1.89-4.17-2.08c-0.63-0.19-3.16-8.08-8.08-14.46
					s-10.93-6.76-10.93-6.76l0.06-0.76c14.4-3.22,21.47-18.51,22.04-18.88c0.57-0.38,8.4,3.22,10.93,4.11
					c2.53,0.88,5.24,0.57,7.2-1.64s6.88-11.68,6.88-11.68c4.8,0,5.81-3.09,5.87-3.66c0.06-0.57,1.07-1.14,3.09-3.41
					c2.02-2.27,1.96-5.37,1.96-5.37S224.74,140.84,224.99,134.97z M55.73,164.15c0,0-2.78,0.25-3.54,0.38
					c-0.76,0.13-0.57,1.01-0.06,1.01s7.07,2.46,9.41,5.24c2.34,2.78,0.88,6.69,0,6.76c-0.88,0.06-1.2,0.06-1.26-2.15
					c-0.06-2.21-1.26-2.97-1.26-2.97s-0.38,2.84-0.38,4.74s1.39,4.8,2.08,5.24c0.69,0.44,0.13,3.35-3.41,2.41
					c-3.54-0.93-4.8-8.48-5.68-8.35c-0.88,0.13-0.44,4.61,0.38,6.63c0.82,2.02,0.88,2.15,0.88,2.15c-4.93,1.2-6.32-6.51-7.07-7.07
					s0,5.37-0.51,5.37s-4.86-2.34-4.8-9.09c0.06-6.76,8.59-8.72,8.59-8.72s0.19-0.38,0-0.69c-0.19-0.32-4.36,0-4.36,0
					c-0.33-2.38,1.07-3.98,6-4.04C55.66,160.93,55.73,164.15,55.73,164.15z M65.64,226.17c-3.92-3.22,0.44-10.36,0.44-10.36
					s1.01,1.52,3.54,2.78s3.79,1.45,3.79,1.45S70.25,227.18,65.64,226.17z M72.97,216.69c-1.89,0-6-3.66-3.54-5.62
					c0,0,2.4,3.41,3.92,4.11C74.86,215.87,74.86,216.69,72.97,216.69z M74.93,214.23c-2.18-0.94-3.91-4.4-3.79-5.94
					c0.01-0.11,0.03-0.22,0.06-0.31c0.44-1.33,1.07-0.95,1.07-0.95s1.77,2.78,3.66,4.67C77.83,213.6,77.26,215.24,74.93,214.23z
					 M77.14,209.56c-1.96-0.82-2.97-3.66-2.97-4.99s1.14-0.88,1.14-0.88s1.07,2.53,2.4,4.04C79.03,209.24,79.1,210.38,77.14,209.56z
					 M74.44,194.53c-2.32,3.79-9.11,13.33-11.7,20.84c-2.59,7.52,1.27,10.9,1.27,10.9c-4.29-0.41-5-4.2-3.93-10.08
					c1.07-5.87,7.58-14.65,7.58-14.65s8.46-12.88,10.67-13.77c2.21-0.88,3.16,0.82,3.16,0.82
					C78.72,188.72,76.76,190.74,74.44,194.53z M85.54,200.15c-0.38,3.92,0.57,8.15-2.08,7.52c-2.65-0.63-1.71-6.06-0.51-9.28
					c1.2-3.22,6-5.94,5.94-3.92C88.88,194.46,85.92,196.23,85.54,200.15z M199.41,206.59c0.25-1.83,4.67-4.67,6.57-5.37
					c1.89-0.69,4.17,0.32,3.98,1.39c-0.19,1.07-7.96,9.41-7.96,9.41C200.29,212.97,199.16,208.42,199.41,206.59z M196.44,206.59
					c0,0-0.82,4.57,1.01,8.19c0,0-1.77-0.04-2.53-3.26C194.17,208.29,196.44,206.59,196.44,206.59z M196.11,220.11
					c9.99-7.96,15.74-13.83,16.18-15.6c0,0,2.21,1.64,0.25,4.55c-1.96,2.91-15.28,14.72-20.97,18.25
					c-5.68,3.54-8.84,6.25-11.05,2.72C180.53,230.02,186.12,228.06,196.11,220.11z M192.84,209.62c0,0-0.82,4.61,0.63,7.83
					c0,0-2.15,0.34-2.78-2.67C190.06,211.77,191.45,208.99,192.84,209.62z M190.06,210.32c0,0-1.52,3.09-1.52,4.74
					c0,1.64,0.38,3.92,0.38,4.23c0,0.32-1.96,0.51-2.21-2.84C186.46,213.09,187.92,209.18,190.06,210.32z M176.55,214.36
					c1.26-0.57,3.66-3.03,4.48-4.55c0.82-1.52,2.15-1.89,2.15-1.89c1.24-0.74,3.03,0.88,2.02,2.78c-0.97,1.83-3.16,4.86-5.62,6.63
					c-2.46,1.77-4.23,1.52-4.86,0C174.08,215.81,175.28,214.93,176.55,214.36z M145.66,93.22c0,0-4.93,0.25-6.88-1.26
					C138.78,91.96,141.62,90.95,145.66,93.22z M138.38,77.26c-1.47,1.96-5.27,8.38-6.45,16.56c0,0-0.96,0.41-1.03-0.44
					c-0.06-0.85,0.63-5.71,3.66-11.32c1.3-2.4,2.3-3.91,3.04-4.86C137.83,77.17,138.1,77.18,138.38,77.26z M134.65,75.56
					c0.25-0.02,0.54,0.01,0.83,0.11c-1.68,2.09-6.09,9-7.77,17.98c0,0-1.06,0.41-1.09-0.54s0.95-6.28,4.5-12.33
					C132.65,78.2,133.8,76.58,134.65,75.56z M127.47,81.6c3.73-5.94,5.31-6.69,5.68-6.69c0.38,0,0.32,0.38-0.63,1.14
					c-0.95,0.76-6.63,8.15-8.84,18.32c0,0-1.07,0.38-1.07-0.57C122.61,92.84,123.75,87.54,127.47,81.6z M113.92,92.95
					c0.53-0.28,1.09-0.49,1.66-0.66c0.57-0.16,1.14-0.31,1.73-0.39c0.58-0.09,1.17-0.16,1.77-0.16c-1.12,0.39-2.25,0.69-3.35,1.03
					c-0.56,0.16-1.1,0.35-1.65,0.54c-0.54,0.2-1.08,0.41-1.57,0.74C112.86,93.55,113.39,93.22,113.92,92.95z M182.93,161.62
					c-7.33,12.76-14.4,14.72-14.4,14.72c5.68-5.49,8.46-16.04,8.46-16.04s-5.24,10.36-12.13,15.79c-6.88,5.43-13.52,6.57-13.52,6.57
					c3.35-3.22,4.11-7.83,4.11-7.83s-7.52,11.37-22.8,9.85c-15.16-3.09-21.66-20.84-21.66-20.84c1.64,12.06,10.8,19.64,10.8,19.64
					c-5.12,0.25-14.27-3.98-18.44-9.92c-4.17-5.94-8.65-16.11-9.03-30.82c-0.38-14.72,3.66-25.45,3.66-25.45s-3.35,4.67-5.12,14.15
					c-1.77,9.47-0.13,23.75,3.47,33.92c3.6,10.17,10.61,15.66,10.61,15.66s-8.27-1.39-16.23-11.56c-8.08-9.79-9.6-24.06-9.22-30.95
					c0.38-6.88,0.82-20.97,9.85-30.76c7.8-8.46,13.85-10.03,15.36-10.3c-12.8,1.82-20.95,13.57-24.7,24.58
					c-3.79,11.12-3.09,21.79-1.01,33.22s10.17,19.39,10.17,19.39s-7.33-2.97-13.64-14.59s-5.49-27.47-2.97-38.46
					c2.53-10.99,16.29-23.31,23.81-24.63c7.52-1.33,12.13,0.25,12.13,0.25c-10.04,6.76-12.57,15.16-12.57,15.16
					c8.84-15.6,22.67-15.16,22.67-15.16s-5.56,5.31-8.4,11.75c-2.84,6.44-3.6,14.15-3.6,14.15s2.84-8.97,7.33-16.23
					c4.48-7.26,9.73-8.97,13.01-9.09c3.28-0.13,9.66,2.4,13.52,7.89c3.85,5.49,5.31,12.06,5.31,12.06s0.25-6.06-2.15-10.93
					c-2.4-4.86-8.65-10.11-8.65-10.11C152.55,96,162.21,108,162.21,108c-2.53-8.59-14.15-12.76-14.15-12.76
					c7.39-0.82,19.2,0,26.97,8.65c7.77,8.65,11.37,15.03,12.82,23.24S190.25,148.86,182.93,161.62z M212.61,124.99
					c0.19-1.77,3.54-1.77,4.42,0c0.88,1.77,0,6.76-3.09,10.99c0,0,0.69-3.66-2.08-5.75C211.85,130.23,212.42,126.76,212.61,124.99z
					 M209.77,123.66c1.07,1.07-0.25,5.37-0.25,5.37c-2.85-1.64-5.62-1.52-5.62-1.52C204.21,122.91,208.7,122.59,209.77,123.66z
					 M221.07,138.69c-2.02,3.35-6.76,1.89-6.76,1.89s-0.51,0.88,1.33,2.21c1.83,1.33,3.09,1.14,3.09,1.14s0.44,2.46-2.08,3.47
					c-2.53,1.01-4.8,0.25-5.62-0.06s2.97,3.22,2.97,3.92c0,0.69-3.41,0.82-7.33-1.33c-3.92-2.15-4.04-4.86-4.04-4.86s0,0,1.77,0.32
					s2.72,0,2.72,0c-3.54-1.52-8.08-7.07-8.08-11.31s4.99-5.18,9.03-2.72c4.04,2.46,2.72,6.06,2.72,6.06
					c-2.27,1.07-5.43-2.65-6.06-3.22s-1.52-0.44-0.76,1.52c0.76,1.96,5.05,5.31,9.09,4.18s7.07-9.55,7.07-9.55
					S223.41,133.39,221.07,138.69z"/>
			</g>
		</g>
		<path class="st0" d="M107.33,125.81c0,0-0.76,1.99,0,1.52C108.08,126.85,107.33,125.81,107.33,125.81z"/>
		<path class="st0" d="M106.38,113.78l-0.85,0.76C105.53,114.54,105.91,113.4,106.38,113.78z"/>
		<path class="st0" d="M110.93,103.64c0,0-1.89,0.28-0.85,0.76S110.93,103.64,110.93,103.64z"/>
		<path class="st0" d="M98.71,104.4l-0.66,0.95C98.04,105.35,97.19,104.21,98.71,104.4z"/>
		<path class="st0" d="M83.83,133.54c0,0-0.28,2.5-0.66,0.79C82.79,132.63,83.83,133.54,83.83,133.54z"/>
		<path class="st0" d="M78.34,125.81c0,0-1.42,0.45-0.76,0.79C78.24,126.95,78.34,125.81,78.34,125.81z"/>
		<path class="st0" d="M90.37,135.38c0,0-1.52,0.09-0.95,0.57C89.99,136.42,90.37,135.38,90.37,135.38z"/>
		<path class="st0" d="M75.31,133.3c0,0-1.52-0.47-1.04,0C74.74,133.77,75.31,133.3,75.31,133.3z"/>
		<path class="st0" d="M74.74,145.23l0.57,3.32C75.31,148.55,73.98,146.08,74.74,145.23z"/>
		<path class="st0" d="M77.01,143.05c0,0-0.09,0.19,0,0.66C77.11,144.19,77.01,143.05,77.01,143.05z"/>
		<path class="st0" d="M89.29,150.92c0,0-1.67,0.85-0.91,0.85S89.29,150.92,89.29,150.92z"/>
		<path class="st0" d="M104.67,166.74c0,0,1.23,1.71,0,0.85S104.67,166.74,104.67,166.74z"/>
		<path class="st0" d="M108.56,168.54c0,0-0.76-0.66,0-0.71C109.32,167.78,108.56,168.54,108.56,168.54z"/>
		<path class="st0" d="M108.39,162v1.23C108.39,163.23,107.27,162.66,108.39,162z"/>
		<path class="st0" d="M130.06,103.64c0,0-1.33,0.6-0.86,0.87C129.68,104.78,131.01,104.12,130.06,103.64z"/>
		<path class="st0" d="M133.37,100.33c0,0-1.23-0.57-0.94,0S133.37,100.33,133.37,100.33z"/>
		<path class="st0" d="M127.41,100.07l-0.38,0.51c0,0,1.61-0.82,0.19-1.01C125.8,99.38,127.41,100.07,127.41,100.07z"/>
		<path class="st0" d="M149.48,100.58c0,0-1.8,0.69-0.95,0.88S149.48,100.58,149.48,100.58z"/>
		<path class="st0" d="M159.43,98.15c0,0-3.92-1.42-3.62-1.23C156.12,97.11,156.12,95.49,159.43,98.15z"/>
		<path class="st0" d="M161.71,100.07c0,0-2.37-0.82-1.52,0S161.71,100.07,161.71,100.07z"/>
		<path class="st0" d="M161.71,101.84c0,0,1.33,1.8,0.47,1.52S161.71,101.84,161.71,101.84z"/>
		<path class="st0" d="M170.99,102.62c0,0-2.27,0.8-1.23,0.77C170.8,103.36,170.99,102.62,170.99,102.62z"/>
		<path class="st0" d="M169.48,101.49l-1.15-0.45c0,0,1.54-1,1.15,0S169.48,101.49,169.48,101.49z"/>
		<path class="st0" d="M166.54,99.28c0,0-1.75-0.85-1.02,0S166.54,99.28,166.54,99.28z"/>
		<path class="st0" d="M180.56,127.89c0,0-1.66,2.81-0.83,1.93S180.56,127.89,180.56,127.89z"/>
		<path class="st0" d="M183.21,130.64"/>
		<path class="st0" d="M184.54,129.99c0,0-1.61-0.49-1.33,0.65S184.54,129.99,184.54,129.99z"/>
		<path class="st0" d="M167.58,167.97c0,0-1.04,0.19-0.76,0.57C167.11,168.92,167.58,167.97,167.58,167.97z"/>
		<path class="st0" d="M142.28,180.47c0,0-1.33-1.04-0.85,0C141.91,181.52,142.28,180.47,142.28,180.47z"/>
		<path class="st0" d="M130.77,179.24c0,0-0.61,0.31-0.7,0.77c-0.09,0.46-2.56,0.73-1.23,0.93
			C130.16,181.14,131.28,180.09,130.77,179.24z"/>
		<path class="st0" d="M124.28,177.06l-0.76,0.76C123.53,177.82,126.18,177.63,124.28,177.06z"/>
		<path class="st0" d="M112.35,178.67l0.76,1.34C113.11,180.01,111.78,180.09,112.35,178.67z"/>
		<path class="st0" d="M112.21,174.32l0.45,1.51v-1.51C112.66,174.32,112.92,173.75,112.21,174.32z"/>
		<path class="st0" d="M75.31,138.95c0,0-1.18,0.93-0.4,0.96S75.31,138.95,75.31,138.95z"/>
		<path class="st0" d="M73.6,141.73l0.57,1.33C74.17,143.05,74.44,141.93,73.6,141.73z"/>
		<path class="st0" d="M180.56,134.05v1.23C180.56,135.28,181.6,134.81,180.56,134.05z"/>
		<path class="st0" d="M182.64,124.77c0,0-1.52-0.95-1.04,0c0.47,0.95,1.58-1.11,1.58-1.11L182.64,124.77z"/>
		<path class="st0" d="M179.73,121.17c0,0-0.42,0.19,0.3,0.57C180.75,122.12,182.88,119.75,179.73,121.17z"/>
		<path class="st0" d="M173.83,106.77c0,0-1.23-0.11-0.85,0.65C173.36,108.19,173.83,106.77,173.83,106.77z"/>
		<path class="st0" d="M164.17,100.07l0.38,1.04C164.55,101.11,164.93,99.92,164.17,100.07z"/>
		<path class="st0" d="M170.71,163.89"/>
		<path class="st0" d="M158.11,177.06l-2.29,0.76C155.81,177.82,157.35,176.02,158.11,177.06z"/>
		<path class="st0" d="M122.48,157.07"/>
		<path class="st0" d="M170.17,232.46c0,1.28-21.79,2.32-45.16,2.32s-44.97-1.04-44.97-2.32s21.6-2.32,44.97-2.32
			S170.17,231.18,170.17,232.46z"/>
		<g>
			<path class="st0" d="M45.37,241.45H29.07c-0.69,0-1.71,0.13-1.39,1.2c0.32,1.07,2.4,3.22,2.46,4.36s0.32,22.55-0.06,25.89
				c-0.38,3.35-2.4,3.16-2.4,4.23s0.76,1.07,1.89,1.15c1.14,0.08,5.12-0.08,7.71-0.01s3.16-0.06,3.22-0.76
				c0.06-0.69-2.4-2.34-2.4-3.54s0.38-7.83,0.38-7.83s2.97,0.06,6.76,0c3.79-0.06,10.55-2.4,10.23-13.07
				C55.16,242.4,45.37,241.45,45.37,241.45z M47.52,255.6c-0.69,5.62-9.09,4.8-9.09,3.98c0-0.82,0-11.81,0-11.81s3.66-0.06,4.99,0
				C44.74,247.83,48.21,249.98,47.52,255.6z"/>
			<path class="st0" d="M150.78,241.45h-16.29c-0.69,0-1.71,0.13-1.39,1.2c0.32,1.07,2.4,3.22,2.46,4.36s0.32,22.55-0.06,25.89
				c-0.38,3.35-2.4,3.16-2.4,4.23s0.76,1.07,1.89,1.15c1.14,0.08,5.12-0.08,7.71-0.01s3.16-0.06,3.22-0.76
				c0.06-0.69-2.4-2.34-2.4-3.54s0.38-7.83,0.38-7.83s2.97,0.06,6.76,0c3.79-0.06,10.55-2.4,10.23-13.07
				C160.57,242.4,150.78,241.45,150.78,241.45z M152.93,255.6c-0.69,5.62-9.09,4.8-9.09,3.98c0-0.82,0-11.81,0-11.81
				s3.66-0.06,4.99,0C150.15,247.83,153.62,249.98,152.93,255.6z"/>
			<path class="st0" d="M87.49,241.14c-0.57-0.06-3.6,0-6.44,0s-3.98,0-3.92,0.95c0.06,0.95,2.27,1.83,2.4,3.09
				c0.13,1.26,0.57,17.75,0.44,21.92c-0.13,4.17-2.84,6.13-6.57,5.81c-3.73-0.32-5.05-3.22-4.99-5.37c0.06-2.15,0-19.83,0.19-21.66
				c0.19-1.83,1.89-2.53,1.96-3.47c0.06-0.95-0.88-0.95-0.88-0.95H59.2c0,0-1.2-0.38-1.14,0.95c0.06,1.33,2.72,2.91,2.72,4.8
				c0,1.89-0.37,18-0.25,22.17c0.38,4.17,4.48,9.41,13.83,9.54c9.35,0.13,12.38-6.19,12.51-8.91c0.13-2.72-0.06-22.61-0.06-24.32
				s2.02-2.46,2.02-3.47C88.82,241.2,88.06,241.2,87.49,241.14z"/>
			<path class="st0" d="M127.28,246.76c0.32-2.4,2.46-2.97,2.46-3.92s0.06-1.58-1.52-1.48c-1.58,0.1-7.89-0.1-8.97,0
				c-1.07,0.1-1.52,1.48-1.52,1.48c-2.46,5.05-6.25,15.22-6.82,15.41c-0.57,0.19-4.48-12-5.62-14.34c-1.14-2.34-1.2-2.46-2.65-2.53
				s-9.47,0-9.47,0c-0.51,0-1.01,0.19-1.01,1.33s2.56,0.85,2.56,3.51s0,25.2,0,26.34s-0.57,2.18-1.55,3.22s-1.67,2.58,0,2.58
				c1.67,0,7.99,0,9.51,0c1.52,0,1.42-1.25,0.66-2.01c-0.76-0.76-1.61-2.46-1.61-2.46v-18.19c0,0,0,0,0.38-0.19
				c0.38-0.19,7.01,18,7.01,18h2.34c0,0,2.3-4.83,4.76-10.89c2.46-6.06,3.35-6.06,3.35-6.06s0.32,14.27,0,16.93s-2.4,2.46-2.46,3.66
				c-0.06,1.2,0.51,1.14,1.64,1.2s6.69-0.06,8.08-0.06c1.39,0,3.09,0.44,2.91-1.01s-2.46-2.97-2.46-4.17
				S126.97,249.16,127.28,246.76z"/>
			<path class="st0" d="M206.91,273.98c0-1.52,0-26.02,0-27.85c0-1.83,0.51-2.4,1.58-3.03s0.51-2.02-1.64-2.02
				c-2.15,0-9.66,0-9.66,0c-0.69,0-1.07,0.32-1.07,1.45s2.53,2.15,2.53,4.04s0,23.24,0,25.83s-0.76,3.22-1.71,4.17
				c-0.95,0.95-0.63,1.74,0.82,1.74s7.2,0,8.65,0c1.45,0,2.61,0.53,2.61-0.73C209.02,275.94,206.91,275.49,206.91,273.98z"/>
			<path class="st0" d="M183.81,259.33c-0.95-1.83-1.2-3.92-1.2-3.92s7.45-9.6,9.09-10.99c1.64-1.39,2.08-2.97,0.32-2.97
				c-1.77,0-9.41,0-9.41,0c-2.4,0,1.01,1.71,0.32,3.22c-0.11,0.69-6.99,8.9-9.22,11.56c0-5.04,0-9.37,0-10.1
				c0-1.83,0.51-2.4,1.58-3.03s0.51-2.02-1.64-2.02c-2.15,0-9.66,0-9.66,0c-0.69,0-1.07,0.32-1.07,1.45s2.53,2.15,2.53,4.04
				s0,23.24,0,25.83s-0.76,3.22-1.71,4.17c-0.95,0.95-0.63,1.74,0.82,1.74c1.45,0,7.2,0,8.65,0s2.61,0.53,2.61-0.73
				c0-1.64-2.11-2.08-2.11-3.6c0-0.47,0-3.15,0-6.67l3.54-3.88c0,0,4.61,9.98,5.24,11.62c0.63,1.64-2.02,3.37-0.38,3.37
				s8.84,0,9.54,0c0.69,0,2.21,0.04,2.21-0.84c0-0.88-0.69-0.76-1.83-2.65C190.88,273.03,184.76,261.16,183.81,259.33z"/>
			<path class="st0" d="M241,241.07c-1.42,0-5.78,0-7.48,0s-2.46,0.32-2.46,1.26s2.08,1.8,2.08,3.98s0,15.54,0,15.54
				s-8.43-16.11-9.85-18.66c-1.42-2.56-1.9-2.12-1.9-2.12c-1.88,0-8.44,0-8.44,0c-0.61,0-0.94,0.32-0.94,1.45s2.21,2.15,2.21,4.04
				s0,23.24,0,25.83s-0.66,3.22-1.49,4.17s-0.55,1.74,0.72,1.74s6.29,0,7.56,0s2.28,0.53,2.28-0.73c0-1.64-1.84-2.08-1.84-3.6
				c0-0.86,0-9.08,0-16.39c0.81,0.57,10.75,19.42,11.41,20.27c0.66,0.85,2.08,0.56,3.51,0.56c1.42,0,3.41,0.39,3.41-0.75
				s0-27.38,0-29.56s0.09-2.75,1.23-4.17C242.14,242.53,242.42,241.07,241,241.07z"/>
		</g>
		<g>
			<path class="st0" d="M99.27,285.54c-1.23,0-24.54,0-24.54,0c-0.85,0-0.47,3.98-1.04,6.06c-0.57,2.08-0.76,3.69,1.04,3.41
				c1.8-0.28,2.46-3.22,3.98-3.22s3.98,0,3.98,0s0,21.69,0,23.4s0,2.75-1.23,3.51c-1.23,0.76-1.89,2.84-0.38,2.84s7.2,0,8.72,0
				c1.52,0,3.88,0.57,3.88-0.85c0-1.42-2.37-1.89-2.37-4.74s0-24.06,0-24.06c4.17,0,5.68,0.28,6.82,1.52
				c1.14,1.23,1.33,1.8,2.37,1.14S100.51,285.54,99.27,285.54z"/>
			<path class="st0" d="M134.23,319.83c-0.66-0.57-2.46-3.41-4.36-6.54s-2.75-6.63-2.75-6.63s5.68-0.85,5.68-10.04
				c0-11.46-11.37-11.08-11.37-11.08h-17.91c0,3.88,2.46,2.84,2.46,5.12s0,20.46,0,24.16c0,3.69-1.33,4.17-1.33,4.17
				s-1.52,2.67,0.66,2.67s7.01,0,9.38,0s1.71-1.15,1.04-1.63s-1.42-1.42-1.42-3.88c0-0.82,0-3.8,0-7.42
				c1.71-0.11,3.87-0.46,4.26-0.35c0.66,0.19,5.78,13.28,5.78,13.28s7.2,0,9.38,0S134.9,320.4,134.23,319.83z M121.25,302.02
				c-1.92,0-4.89,0-6.92,0c0-5.51,0-10.52,0-10.52s2.18,0,5.4,0s4.55,2.18,4.55,4.83S124.38,302.02,121.25,302.02z"/>
			<path class="st0" d="M151.38,284.49c0,0-9.57-0.66-13.17,9.47c-3.6,10.14-1.14,21.79,4.64,25.86c5.78,4.07,18.47,3.03,22.17-4.17
				c2.84-6.06,3.98-15.35,1.33-21.79C163.7,287.43,158.39,284.49,151.38,284.49z M159.05,307.04c0,6.92-3.79,9.09-6.44,9.09
				c-2.65,0-6.92-0.95-6.92-13.45s5.78-11.65,5.78-11.65C160.9,290.56,159.05,300.13,159.05,307.04z"/>
			<path class="st0" d="M197.52,285.06h-25.67c-1.04,0-0.76,6.35-1.52,8.53c-0.76,2.18,1.52,1.42,1.52,1.42
				c1.61-2.84,4.26-2.94,4.55-3.22c0.28-0.28,4.07,0,4.07,0s0,21.32,0,23.4c0,2.08,0,2.56-1.33,3.41c-1.33,0.85-1.99,3.03-0.47,3.03
				c1.52,0,9.09,0,10.8,0s1.71-0.47,1.71-1.71s-2.37-1.61-2.37-4.26c0-2.65,0-23.97,0-23.97h2.08c2.75,0,4.55,1.14,5.23,2.27
				c0.68,1.14,2.45,1.42,2.45,0C198.56,292.55,197.52,285.06,197.52,285.06z"/>
		</g>
		<g>
			<path d="M101.27,57.91h-3.12v8.54h1.8v-2.69h1.23c2.18-0.03,3.58-1.18,3.58-2.97C104.76,59.02,103.42,57.91,101.27,57.91z
				 M101.17,62.27h-1.22v-2.85h1.22c1.13,0,1.76,0.5,1.76,1.43C102.93,61.72,102.26,62.27,101.17,62.27z"/>
			<path d="M114.69,60.69v-0.05c0-0.78-0.28-1.44-0.82-1.92c-0.59-0.52-1.51-0.81-2.58-0.81h-3.5v8.54h1.8v-2.92h1.37
				c0.01,0,0.02,0,0.03,0l1.98,2.93h2.09l-2.24-3.27C114.03,62.75,114.69,61.87,114.69,60.69z M111.14,62.05h-1.54v-2.63h1.57
				c0.78,0,1.72,0.22,1.72,1.32C112.88,61.56,112.23,62.05,111.14,62.05z"/>
			<polygon points="119.25,62.9 123.11,62.9 123.11,61.41 119.25,61.41 119.25,59.41 123.6,59.41 123.6,57.91 117.46,57.91 
				117.46,66.45 123.67,66.45 123.67,64.96 119.25,64.96 			"/>
			<path d="M130.02,61.46c-1.59-0.55-1.85-0.84-1.85-1.33c0-0.5,0.5-0.83,1.24-0.83c0.64,0,1.32,0.25,2.02,0.76l0.09,0.07l1.04-1.24
				l-0.1-0.08c-0.85-0.66-1.87-1-3.01-1c-1.82,0-3.09,1.01-3.09,2.47c0,1.41,1.02,2.03,2.78,2.62c1.44,0.47,1.7,0.78,1.7,1.24
				c0,0.56-0.54,0.93-1.34,0.93c-0.82,0-1.55-0.29-2.38-0.96l-0.09-0.07l-1.1,1.21l0.1,0.08c0.99,0.81,2.16,1.22,3.46,1.22
				c1.86,0,3.16-1.03,3.16-2.54C132.64,62.64,131.59,62,130.02,61.46z"/>
			<polygon points="137.64,62.9 141.49,62.9 141.49,61.41 137.64,61.41 137.64,59.41 141.99,59.41 141.99,57.91 135.85,57.91 
				135.85,66.45 142.06,66.45 142.06,64.96 137.64,64.96 			"/>
			<polygon points="150.06,63.19 146.17,57.96 146.13,57.91 144.5,57.91 144.5,66.45 146.28,66.45 146.28,61.01 150.28,66.4 
				150.32,66.45 151.82,66.45 151.82,57.91 150.06,57.91 			"/>
			<polygon points="154.61,59.44 157.07,59.44 157.07,66.45 158.87,66.45 158.87,59.44 161.33,59.44 161.33,57.91 154.61,57.91 			
				"/>
			<path d="M167.35,61.46c-1.59-0.55-1.85-0.84-1.85-1.33c0-0.5,0.5-0.83,1.24-0.83c0.65,0,1.33,0.25,2.02,0.76l0.09,0.07l1.04-1.24
				l-0.1-0.08c-0.85-0.66-1.87-1-3.01-1c-1.82,0-3.09,1.01-3.09,2.47c0,1.41,1.02,2.03,2.78,2.62c1.44,0.47,1.7,0.78,1.7,1.24
				c0,0.56-0.54,0.93-1.34,0.93c-0.82,0-1.55-0.29-2.38-0.96l-0.09-0.07l-1.1,1.21l0.1,0.08c1,0.81,2.16,1.22,3.46,1.22
				c1.86,0,3.16-1.03,3.16-2.54C169.97,62.64,168.92,62,167.35,61.46z"/>
			<path d="M38.07,75.27c-0.35-0.29-2.07-2.51-3.82-4.82c1.95-1.39,3.77-1.27,3.77-1.27l-2.32-3.24c0,0,0,0.52-0.76,1.23
				c-0.49,0.46-1.48,1.03-2.13,1.38c-1.46-1.95-2.66-3.56-2.66-3.56s0.66-0.85,2.32-1.75c1.66-0.9,3.08-0.66,3.08-0.66l-2.13-3.03
				c0,0,0,0-0.81,0.85c-0.81,0.85-7.25,4.64-7.25,4.64s0.66,0.47,1.37,0.71c0.71,0.24,7.25,9.28,8.27,10.61
				c1.02,1.33,0.78,2.46,0.78,2.46l4.07-2.98C39.87,75.84,38.83,75.88,38.07,75.27z"/>
			<path d="M40.25,54.9l-2.7,1.94c0,0,4.55,13.03,5.07,14.78c0.52,1.75,0,2.32,0,2.32l3.84-2.55l0,0c0,0-1.09-0.52-1.61-1.61
				c-0.12-0.25-0.35-0.84-0.64-1.58c0.78-0.46,2.19-1.29,3.23-1.95c0.28,0.31,0.51,0.58,0.68,0.78c0.8,0.96,1.4,1.71,1.72,2.12
				l3.96-2.64c0,0-1.99-0.24-4.93-3.27C45.94,60.21,40.25,54.9,40.25,54.9z M43.46,66.2c-0.86-2.32-1.78-4.86-1.78-4.86
				c-0.28-0.76,0.57-0.66,0.57-0.66s2.06,2.16,3.79,4.04L43.46,66.2z"/>
			<path d="M52.05,53.76c-1.99-3.51-1.94-4.83-1.94-4.83l-4.43,2.42c0,0,0.78,0.33,1.63,1.09c0.85,0.76,4.55,7.58,6.06,10.09
				c1.52,2.51,1.14,3.41,1.14,3.41l4.41-2.75c0,0-0.9-0.14-1.75-1.09C56.31,61.15,54.04,57.27,52.05,53.76z"/>
			<path d="M65.07,52.77c1.45-2.12,0.98-5.27-0.41-7.04s-3.79-2.21-5.31-1.39c-1.52,0.82-5.79,3.17-5.79,3.17s0.21,0.14,0.87,0.93
				c0.66,0.79,4.45,8.97,5.34,10.64c0.88,1.67,0.57,3.25,0.57,3.25l4.96-2.27c0,0-1.52-0.25-2.12-1.33
				c-0.21-0.37-0.91-1.75-1.75-3.39c0.68-0.39,1.61-0.88,1.71-0.75c0.16,0.22,4.04,4.74,4.04,4.74c1.89-1.01,4.42-1.77,4.42-1.77
				s-1.42-0.47-2.65-1.42C67.73,55.2,65.07,52.77,65.07,52.77z M62.93,51.64c-0.59,0.63-1.69,1.26-2.51,1.69
				c-1.31-2.59-2.57-5.11-2.57-5.11c0.88-0.79,2.62-1.2,2.62-1.2C62.67,46.61,63.94,50.56,62.93,51.64z"/>
			<path d="M76.25,37.33c0,0-3.88,1.42-4.04,1.52s1.04,0.06,1.48,1.07c0.44,1.01,0.73,9.44,0.73,9.44s-4.36-6.32-4.93-7.23
				c-0.57-0.92-0.25-2.21-0.25-2.21l-4.67,1.86c0,0,0.09,0.25,1.17,0.95s8.87,12.88,8.87,12.88l2.56-0.63c0,0-0.92-13.01-1.14-14.75
				C75.81,38.49,76.25,37.33,76.25,37.33z"/>
			<path d="M86.93,49.33c-0.63-1.23-2.21-7.29-2.97-9.98c-0.76-2.68,0-4.33,0-4.33l-5.62,1.64c0,0,1.11,0.44,1.74,1.42
				s3.35,10.77,3.79,12.41c0.44,1.64-0.21,2.37-0.21,2.37l5.32-1.64C88.98,51.22,87.56,50.56,86.93,49.33z"/>
			<path d="M99.91,48.28l-0.63-3.76c0,0-0.35,1.26-1.26,1.77s-3.66,1.07-3.66,1.07c-0.08-0.15-0.68-2.38-1.32-4.82
				c2.51-0.61,3.72-0.3,3.72-0.3l-0.73-3.51c-1.1,1.17-2.66,1.67-3.51,1.86c-0.64-2.44-1.2-4.61-1.2-4.61
				c2.37-0.63,5.53-0.98,5.53-0.98c-0.63-1.74-0.38-3.06-0.38-3.06l-9.73,2.27c0,0,0.51,0.47,1.17,1.67s2.72,9.38,3.16,11.4
				c0.44,2.02-0.09,3.22-0.09,3.22L99.91,48.28z"/>
			<path d="M112.38,46.29c0.03-0.16,0.54-10.93,0.85-13.89c0.32-2.97,1.29-3.35,1.29-3.47c0-0.04-1.88,0.23-4.38,0.61
				c0.42,0.3,0.99,0.77,1.13,1.22c0.22,0.73-0.66,8.12-0.98,8.21c-0.29,0.09-2.66-7.8-3.01-8.99c-0.66,0.1-1.33,0.21-2,0.31
				l-0.83,8.87c0,0-1.71-3.79-2.21-5.75c-0.34-1.33,0.01-2.24,0.27-2.69c-2.73,0.43-4.85,0.77-4.85,0.77s0.51,0.63,1.26,1.83
				c0.76,1.2,4.17,14.37,4.17,14.37s1.36-0.18,3.03-0.41c0.14-1.68,0.69-7.99,0.88-7.83c0.19,0.16,2.36,5.81,2.93,7.29
				C111.32,46.52,112.37,46.35,112.38,46.29z"/>
			<path d="M131.71,42.63c-1.39,0-3.35,0-3.35,0s0,0,0-0.54c0-0.23,0-2.34,0-4.71c0.44,0,0.98,0,1.56,0c1.56,0,2.04,0.6,2.04,0.6
				v-3.69c-0.88,0.97-2.73,1.07-3.6,1.06c0-2.62,0-5.01,0-5.01s1.86,0,3.19,0c1.33,0,2.05,0.85,2.05,0.85v-3h-9.66
				c0.19,1.2,1.61,1.58,1.61,2.78s0,7.71,0,10.33c0,2.62-0.63,3.22-0.63,3.22h9v-3.41C133.92,41.12,133.1,42.63,131.71,42.63z"/>
			<path d="M184.53,38.25c1.26,0.41,1.69,1.45,1.69,1.45l0.93-2.9l-9.2-2.96c-0.19,1.22,1.04,2.02,0.67,3.18
				c-0.37,1.16-2.39,7.44-3.21,9.97c-0.81,2.53-1.6,2.92-1.6,2.92l8.57,2.76l1.06-3.29c0,0-1.25,1.21-2.58,0.79
				c-1.32-0.43-3.19-1.03-3.19-1.03s0,0,0.17-0.52c0.07-0.22,0.73-2.25,1.46-4.54c0.42,0.14,0.93,0.3,1.49,0.48
				c1.49,0.48,1.75,1.2,1.75,1.2l1.15-3.57c-1.14,0.67-2.93,0.2-3.76-0.08c0.81-2.53,1.56-4.83,1.56-4.83S183.27,37.84,184.53,38.25
				z"/>
			<path d="M136.44,44.53h9.22v-3.41c0,0-0.73,1.01-1.74,1.01c-1.01,0-3.47,0.13-3.51,0c-0.03-0.13,0.09-7.83,0.09-10.77
				s1.17-3.16,1.17-3.16h-4.99c0,0,0.47,0.69,0.47,2.15s0,9.51,0,11.4S136.44,44.53,136.44,44.53z"/>
			<path d="M156.84,42.44c0,0-0.88,1.11-1.23,1.04c-0.35-0.06-4.11-0.19-4.11-0.28c0-0.04,0.25-2.46,0.54-5.11
				c0.47,0.03,0.96,0.06,1.39,0.09c1.39,0.09,1.99,0.88,1.99,0.88l0.47-3.05c0,0-0.13,0.17-1.11,0.17c-0.7,0-1.89-0.18-2.52-0.28
				c0.27-2.5,0.5-4.68,0.5-4.68s1.64,0.16,3.16,0.32c1.52,0.16,2.27,1.45,2.27,1.45v-3.41l-9-0.85c0,0,0.32,0.66,0.41,2.05
				c0.09,1.39-0.73,7.77-0.98,10.26c-0.25,2.49-1.14,3.69-1.14,3.69c4.33,0.38,8.75,1.07,8.75,1.07L156.84,42.44z"/>
			<path d="M173.74,37.45c0.92-3.79,2.49-4.17,2.49-4.17l-4.94-1.1c-0.87,1.41-3.8,6.55-4.16,6.88c-0.37,0.34-0.71-6.6-0.78-7.98
				l-4.4-0.98c0,0,0.41,0.79,0.22,2.49c-0.19,1.71-1.23,9.35-2.05,11.53c-0.77,2.04-1.48,1.95-1.57,1.93l4.03,1.04
				c0,0-0.54-0.73-0.28-1.74c0.25-1.01,1.64-8.4,2.02-9.19s0.19,8.49,0.19,8.49s1.17,0.57,1.42,0.57s3.95-6.13,4.29-6.35
				c0.35-0.22-0.44,4.2-1.14,6.44c-0.69,2.24-1.8,2.84-1.8,2.84l4.71,1.26c0,0-0.54-0.95-0.25-2.53
				C172.03,45.32,172.82,41.24,173.74,37.45z"/>
			<path d="M201.54,41.83l-4.12-1.66c0,0,0.09,1.37-0.81,4.17c-0.9,2.79-1.94,5.08-1.94,5.08s-0.62-10.29-0.76-10.53
				c-0.14-0.24-3.88-1.23-3.88-1.23s0.47,2.08-0.62,4.97s-3.03,8.01-3.6,9.14s-1.23,1.47-1.23,1.47l4.17,1.61
				c0,0-0.52-1.56,0.33-4.03c0.85-2.46,2.32-5.4,2.32-5.4l0.99,10.71l2.61,0.99c0,0,0.24-1.18,2.04-6.35
				c1.8-5.16,2.94-7.44,3.27-8.15C200.64,41.92,201.54,41.83,201.54,41.83z"/>
			<path d="M208.34,47.62c0.42,0.21,0.83,0.43,1.21,0.64c2.42,1.37,1.94,2.42,1.94,2.42c0.76-1.75,1.61-3.29,1.61-3.29l-9.81-4.71
				l-1.75,2.98c0,0,0.43-0.19,1.33-0.14c0.42,0.02,1.39,0.33,2.55,0.79c-1.18,2.28-5.12,9.85-5.73,10.82
				c-0.71,1.14-1.56,1.42-1.56,1.42l4.88,2.08c0,0-0.33-0.66,0.28-2.56C203.85,56.35,207.64,48.97,208.34,47.62z"/>
			<path d="M220.21,51.25l-2.99-1.89c0,0-8.43,9.06-10.04,10.48c-1.61,1.42-2.43,1.64-2.43,1.64l3.54,2.15
				c0-0.94,0.49-1.68,1.78-3.22l3.62,2.45c-0.06,0.15-0.11,0.29-0.16,0.42c-0.9,2.18-1.61,2.51-1.61,2.51l3.51,1.89
				c0,0,0.14-0.95,0.85-3.69C216.98,61.25,220.21,51.25,220.21,51.25z M214.41,60.73l-2.86-2.03c1.96-2.17,4.51-4.55,4.51-4.55
				l0.21,0.19C216.27,54.33,215.29,57.93,214.41,60.73z"/>
			<path d="M231.62,64.74c1.55-2.91,0.79-4.83,0-5.51c-0.79-0.68-6.28-4.53-6.28-4.53s0.32,1.22-0.69,2.74
				c-1.01,1.52-5.34,8.22-6.41,9.64c-1.07,1.42-1.96,1.42-1.96,1.42l4.14,2.81c0,0-0.16-1.29,0.47-2.62
				c0.22-0.46,1.01-1.73,1.94-3.19c0.6,0.27,1.51,0.71,1.59,0.95c0.13,0.35-0.66,3.73-1.89,5.97l3.57,2.68c0,0,0.35-8.07,0.69-7.93
				S230.07,67.64,231.62,64.74z M226.63,65.12c-0.63-0.02-1.87-0.7-2.75-1.25c1.51-2.31,3.04-4.56,3.16-4.63
				c0.22-0.13,2.31,0.66,2.84,2.15C230.42,62.87,227.67,65.15,226.63,65.12z"/>
			<path d="M240.46,65.31c0,0,0.32,0.85-0.28,1.55c-0.6,0.69-3.65,2.24-3.65,2.24s0.08-1.67,0.39-3.32
				c0.32-1.64,1.39-2.05,1.39-2.05l-3.57-2.62c-0.09,1.99-0.73,5.4-1.14,7.71c-0.41,2.31-2.87,5.27-4.01,6.44
				c-1.14,1.17-2.24,0.82-2.24,0.82l3.92,3.25c0.03-0.82,1.55-3.54,2.94-5.21c1.39-1.67,4.01-3.28,6.06-4.52
				c2.05-1.23,3.66-1.23,3.66-1.23L240.46,65.31z"/>
		</g>
	</g>
</g>
</svg>
