<?xml version="1.0" encoding="utf-8"?>
<!-- Generator: Adobe Illustrator 24.2.0, SVG Export Plug-In . SVG Version: 6.00 Build 0)  -->
<svg version="1.1" xmlns="http://www.w3.org/2000/svg" xmlns:xlink="http://www.w3.org/1999/xlink" x="0px" y="0px"
	 viewBox="0 0 397.8 357" style="enable-background:new 0 0 397.8 357;" xml:space="preserve">
<style type="text/css">
	.st0{fill:#174991;}
	.st1{fill:#FFFFFF;}
</style>
<g id="Layer_1">
</g>
<g id="Layer_2">
	<g>
		<path class="st0" d="M145.3,115.1c-0.3,0-0.5,0-0.7-0.1c0.7-0.7,2.6-1.3,2.7-1.3l-0.1-0.2c-1,0.2-1.8,0.5-2.3,0.7
			c0.9-1,2.2-1.1,2.9-1.1c0.4,0,0.7,0,0.8,0.1c0,0,0,0,0,0.1c0,0.2-0.3,0.9-1.6,1.4C146.6,115,145.9,115.1,145.3,115.1L145.3,115.1z
			"/>
	</g>
	<g>
		<path class="st0" d="M211.4,121.4c-0.3,0-0.6,0-0.7-0.1c0.8-0.8,2.8-1.5,2.9-1.5l-0.1-0.3c-1.1,0.2-2,0.6-2.5,0.9
			c1-1.2,2.4-1.4,3.2-1.4c0.4,0,0.8,0.1,0.9,0.1c0,0,0,0,0,0.1c0,0.3-0.3,1-1.7,1.7C212.7,121.3,212.1,121.4,211.4,121.4
			L211.4,121.4z"/>
	</g>
	<g>
		<path class="st0" d="M201.1,102.7c-0.5,0-0.9-0.1-1.1-0.1c1.2-1.3,4.2-2.3,4.3-2.3l-0.1-0.4c-1.7,0.3-2.9,0.8-3.7,1.3
			c1.5-1.7,3.6-2,4.7-2c0.6,0,1.1,0.1,1.3,0.1c0,0,0.1,0,0.1,0.1c0,0.4-0.5,1.5-2.5,2.5C203.1,102.5,202.1,102.7,201.1,102.7
			L201.1,102.7z"/>
	</g>
	<g>
		<path class="st0" d="M238.2,150.7c-0.4,0-0.7,0-0.9-0.1c0.9-1,3.4-1.8,3.4-1.9l-0.1-0.3c-1.4,0.2-2.4,0.7-3,1
			c1.2-1.4,2.9-1.6,3.8-1.6c0.5,0,0.9,0.1,1.1,0.1c0,0,0,0,0.1,0.1c0,0.3-0.4,1.2-2,2.1C239.8,150.5,239,150.7,238.2,150.7
			L238.2,150.7z"/>
	</g>
	<g>
		<path class="st0" d="M147.8,201.9c-0.3,0-0.5-0.1-0.6-0.1c0.6-1.5,2.3-2.7,2.3-2.7l-0.1-0.5c-0.9,0.3-1.6,1-2,1.5
			c0.8-2.1,1.9-2.4,2.6-2.4c0.4,0,0.6,0.1,0.7,0.2c0,0,0,0,0,0.1c0,0.5-0.3,1.8-1.4,3C149,201.6,148.4,201.9,147.8,201.9
			L147.8,201.9z"/>
	</g>
	<g>
		<path class="st0" d="M150.7,140.2c0,0-0.1,0-0.2-0.1c-0.4-0.3-0.7-1-0.6-2.3c0.2-1.4,1.1-2.3,1.5-2.6c0.4,1.1-0.3,3.2-0.3,3.3
			l0.4,0.1c0.6-1.1,0.8-2,0.8-2.6C153.2,138.3,150.8,140.1,150.7,140.2L150.7,140.2z"/>
	</g>
	<g>
		<path class="st0" d="M237.2,197.6c-0.1,0-0.2-0.1-0.3-0.2c-0.4-0.5-0.9-1.8-0.7-3.8c0.2-2.4,1.4-3.9,1.9-4.4
			c0.5,1.9-0.4,5.5-0.4,5.6l0.5,0.1c0.8-1.8,1-3.4,1-4.4C240.4,194.4,237.3,197.5,237.2,197.6L237.2,197.6z"/>
	</g>
	<g>
		<path class="st0" d="M202.3,227.2c-0.1,0-0.2,0-0.3-0.1c-0.4-0.3-0.9-1.3-0.7-2.7c0.2-1.7,1.4-2.7,1.9-3.1
			c0.5,1.3-0.4,3.9-0.4,3.9l0.5,0.1c0.8-1.3,1-2.4,1-3.1C205.5,225,202.4,227.2,202.3,227.2L202.3,227.2z"/>
	</g>
	<g>
		<path class="st0" d="M238.3,174.7c0-0.1,0.1-0.1,0.3-0.2c0.5-0.2,1.3-0.2,2.1,0.5c0.9,0.9,0.8,2.3,0.7,2.9c-1.1-0.1-2.1-2-2.1-2
			l-0.3,0.3c0.3,1.2,0.9,1.8,1.3,2.2C237.7,178.3,238.2,174.8,238.3,174.7L238.3,174.7z"/>
	</g>
	<g>
		<path class="st0" d="M215.4,232.6c-0.3,0-1.5-0.9-2.1-3.6c-0.5-2.2,0-3.9,0.4-4.7c1,1.8,1.3,5.4,1.3,5.4l0.7,0c0.1-1.7,0-3-0.2-4
			C217.2,229,215.4,232.6,215.4,232.6L215.4,232.6z"/>
	</g>
	<g>
		<path class="st0" d="M139.5,98.1c-0.3,0-0.6-0.1-0.8-0.3c-0.2-0.2-0.3-0.6-0.3-0.9c0.1-0.8,0.3-1.1,0.4-1.3
			c0.1-0.1,0.1-0.2,0.1-0.4c-0.1-0.2-0.2-0.2-0.4-0.3c0,0-0.1,0-0.1-0.1c-0.1-0.3,0.3-1.1,0.6-1.7c0.4,0.6,1.3,1.7,1.7,1.9
			c0.4,0.3,0.4,1.1-0.1,2.3C140.5,97.8,140.1,98.1,139.5,98.1L139.5,98.1z"/>
	</g>
	<g>
		<path class="st1" d="M208.7,242.2c-0.2,0-0.3,0-0.5,0c-2.7-0.3-5.9-3.4-10.1-7.8c-1.8-1.8-4.2-4.4-5-4.6c-0.5,0-1.2-0.1-2-0.1
			c-3.4-0.2-8.5-0.5-11.8-2c-0.9-0.4-1.7-0.8-2.5-1.2c-2.7-1.3-5.3-2.6-10.1-3.8c-2.1-0.5-3.4-0.6-4.3-0.6c-2.4-0.1-3.2-0.5-5.8-3.3
			c-5.6-6.3-9.5-9.1-10.6-9.2c-0.6,0-1.1-0.1-1.4-0.2c-0.1,0-0.1,0.1-0.2,0.1c-2.2,0.9-8.6,1.2-11.6-0.9c-1.6-1.1-1.8-2.5-1.7-3.5
			c0.2-2.1,0.1-30.9,0-56.4c-0.1-27.2-0.2-44-0.1-45.4c0.2-1.6,0.8-2.7,1.7-3.4c0.8-0.6,1.8-0.7,2.4-0.5c2.6,0,31.2,0.4,35.6,1.4
			c4.7,1,8.6,4,12.3,6.9c2.7,2.1,4.1,5,4.8,6.6c1.5-0.3,4.1-0.3,6.9,1.2c5,2.7,6.8,2.1,7.3,1.7c0.2-0.1,0.3-0.4,0.6-0.9
			c1-2,2.5-3.9,8-3.2c2,0.2,3.7,0.5,5,0.8c3.2,0.6,3.9,0.6,4.9-0.3c2.8-2.7,12.2-9.6,22.5-14c9.1-3.9,12.8-4.9,14.8-3.8
			c0.6,0.3,1.3,0.9,1.4,2.2c0.3,2.9,0.9,24.7,0.2,30.7c-0.2,2-0.8,3-1.3,4c-1,1.9-2.4,4.5-1.6,21.6l1.2,25.2l-0.2,0.4
			c0,0-2.5,5-3.8,12.4c-1.6,9.2-9.2,12.4-13.3,14.2c-3.3,1.4-5.7,5.1-8,8.8c-0.7,1-1.3,2-2,3c-1.1,1.6-2.9,2.6-5.1,3
			c-3.7,0.6-8.1-0.7-10.1-2c-0.1,1.4-0.1,3.4-0.1,5.2c-0.2,9.9-1.2,14.9-3.6,17C210.7,241.9,209.8,242.2,208.7,242.2z M146.4,206.6
			C146.4,206.6,146.4,206.6,146.4,206.6c3.2,0,9.3,6.3,12.6,10c2.1,2.4,2.3,2.4,3.9,2.5c1.1,0,2.5,0.1,4.9,0.7
			c5.1,1.2,7.9,2.6,10.6,4c0.8,0.4,1.6,0.8,2.4,1.2c2.8,1.3,7.8,1.6,10.8,1.8c0.9,0.1,1.6,0.1,2.2,0.1c1.5,0.2,3.3,1.9,6.6,5.4
			c2.8,2.9,6.6,6.8,8.5,7c0.4,0,0.6-0.1,0.8-0.2c1.5-1.3,2.3-6.2,2.5-14.6c0.1-7.1,0.1-8.5,1.7-9.3c1.3-0.6,2.3,0.4,3,1
			c1,0.9,5.2,2.4,8.5,1.9c1.3-0.2,2.3-0.7,2.9-1.5c0.6-0.9,1.2-1.8,1.9-2.9c2.5-3.9,5.3-8.3,9.6-10.1c4.8-2,10.1-4.8,11.3-11.6
			c1.2-6.8,3.3-11.6,3.9-12.9l-1.2-24.4c-0.8-17.9,0.6-20.7,2-23.2c0.4-0.8,0.8-1.4,0.9-2.8c0.7-5.9,0-27.7-0.2-30
			c0-0.1,0-0.2,0-0.2c-0.3-0.3-2.2-0.5-12.3,3.9c-10.7,4.6-19.5,11.4-21.4,13.3c-2.3,2.2-4.4,1.8-7.7,1.2c-1.3-0.2-2.8-0.5-4.8-0.7
			c-3.7-0.4-4.1,0.3-4.7,1.4c-0.3,0.6-0.8,1.5-1.6,2.1c-2.3,1.7-5.7,1.2-10.5-1.4c-3.2-1.7-5.8-0.8-5.9-0.7l-1.5,0.6l-0.4-1.5
			c0,0-1-4-4.2-6.5c-3.6-2.8-7.1-5.5-11.2-6.4c-3.5-0.8-26.6-1.2-35.2-1.3l-0.3,0c0,0.1-0.2,0.3-0.3,1c-0.1,1.4,0,23.6,0.1,45.1
			c0.2,31.9,0.3,54.6,0,56.7c0,0.2-0.1,0.5,0.6,1c2,1.4,7.4,1.3,8.7,0.7c1.4-0.6,1.9-0.8,2.6-0.3L146.4,206.6z M146.6,207.7
			L146.6,207.7C146.6,207.7,146.6,207.7,146.6,207.7z M134.4,102.3L134.4,102.3C134.4,102.3,134.4,102.3,134.4,102.3z"/>
	</g>
	<path class="st1" d="M212.3,105.4c-0.4,0.9,0.2,3.4,1.4,4C213.6,109.4,212.7,104.5,212.3,105.4z"/>
	<path class="st1" d="M225.3,101.7c-0.8-0.5,2.5-2.2,0-2.8c-0.5-0.1-2.3,0.8-1.5,1.5c0.8,0.8-0.8,4.7,0.7,4S226,102.2,225.3,101.7z"
		/>
	<path class="st1" d="M245.2,130c1.3-0.1,0.1,6.3,1.6,4.7c1.5-1.6,0.6-4.9,0-5.3c-0.6-0.4,0-3.2-1.6-0.9
		C245.2,128.5,244,130.1,245.2,130z"/>
	<path class="st1" d="M263.1,131.7c0,0-3.6-2.8-3-0.5c0.6,2.3,2.7,3.7,3.7,2.8C264.8,133.1,265.2,130.5,263.1,131.7z"/>
	<path class="st1" d="M251.6,144.8c0,0-3.5-1.6-2.1,0S251.6,144.8,251.6,144.8z"/>
	<path class="st1" d="M237.5,162c-0.2,0.5,1.5,0.2,1.9,0c0.1,0,0.1-0.1,0.1-0.2c0.6,0.4,1.4,0.4,1.8-0.3c0.7-1.1-1.8-0.4-1.8-0.4
		s0.2-0.7-0.6-1.1c-0.9-0.4-0.2,1.6-0.4,1.1c-0.2-0.4-0.8-0.6-1.7,0.4C235.8,162.4,237.7,161.4,237.5,162z"/>
	<path class="st1" d="M249.3,161.6c-0.5,1.9-0.2,6,0.8,4.1C251.2,163.8,249.8,159.7,249.3,161.6z"/>
	<path class="st1" d="M236.6,173.2c0.1-0.7,0-1.5,0-1.5l-0.2-0.6c0,0-0.1,0.6-1,0.6c-0.9-0.1-1.1-0.3-1.1-0.3s0.5,1.2,0.2,2.1
		c-0.3,1,0.2,0.4,1.1,0C236.6,173.2,236.5,173.9,236.6,173.2z"/>
	<path class="st1" d="M256.1,165.6v2.5c0,0-1.4-6-1.1-2.5c0.3,3.5,2,2.8,2.5,2.5c0.5-0.3,0.9,1.3,0.5-0.3
		C257.6,166.1,256.5,169.4,256.1,165.6z"/>
	<path class="st1" d="M207.9,174.2c0,0,3.3-1.3,1.4-3.5C207.4,168.4,208,173.4,207.9,174.2z"/>
	<path class="st1" d="M246.1,191.9c-0.7-1.3-1.7-0.4-1.7-0.4s-2.5-0.6-0.3,0.9C246.3,193.9,246.8,193.1,246.1,191.9z"/>
	<path class="st1" d="M266.7,192.2c2.9-1,2-3.6,0-3.1C266.7,189.1,263.8,193.2,266.7,192.2z"/>
	<path class="st1" d="M250.2,210.2c0,0-7.6,4.4-2.8,5.6S252.8,210.4,250.2,210.2z"/>
	<path class="st1" d="M267.7,218c2,1.4-0.7-5-0.7-5C264.3,211.2,265.7,216.6,267.7,218z"/>
	<path class="st1" d="M241,226.9c-1.4,1.8-2.4,6.3,0,5.7C243.4,231.9,242.3,225.1,241,226.9z"/>
	<path class="st1" d="M238.2,233c0,0,0.6-3.5-2.3-2.1c0,0-0.9,1.8,0.5,2.1s0.6,4.6,2.3,2.6C240.3,233.6,238.2,233,238.2,233z"/>
	<path class="st1" d="M218.7,236.1c2.3-1.3,0.9-2.8,0.9-2.8S216.4,237.4,218.7,236.1z"/>
	<path class="st1" d="M180.7,217.4c0.5,1.8,1.9-1.5,1.9-1.5s1.1,2.3,2.5,2.7s-0.3-1.9-1-4C183.4,212.3,180.2,215.6,180.7,217.4z"/>
	<path class="st1" d="M172.2,230.6c0,0-1.8,1.1,1.1,3.3c2.9,2.1,3.3,1.3,3,0.6S173.9,230.4,172.2,230.6z"/>
	<path class="st1" d="M166.9,234.1c0,0-0.1,1.5,3,1.2C173.1,235,166.9,234.1,166.9,234.1z"/>
	<path class="st1" d="M190.2,231.7c1.5,2.9,2.4,2.4,2.4,2.4S188.7,228.8,190.2,231.7z"/>
	<path class="st1" d="M139.1,209.3c0,0,3.8,3.7,5.6,3.7S139.1,209.3,139.1,209.3z"/>
	<path class="st1" d="M152.4,191.9c0.4,3.7,1.9-2.8,1.9-2.8S152,188.2,152.4,191.9z"/>
	<path class="st1" d="M154.8,176.4c-1.2-1.5-1.1-2.1-1.1-2.1s-0.7,0.2-0.7,0.6c0,0.4,2.4,3.6,2.5,3.7s0.6-0.2,0.5-0.5
		C155.9,177.8,156,177.9,154.8,176.4z"/>
	<path class="st1" d="M132.3,189c0.1,2.2,4.9,1.6,4.9-0.5C137.2,188.5,132.2,186.8,132.3,189z"/>
	<path class="st1" d="M133.6,160.9c0,0-6.9-3.3-4.4-0.8C131.7,162.7,133.6,160.9,133.6,160.9z"/>
	<path class="st1" d="M127.1,146.2c-1.3,0.2-1.7,8.3,0,6.9C128.8,151.7,128.4,146,127.1,146.2z"/>
	<path class="st1" d="M131.1,143.2c0-1.3-1.2-2.1-1.2-2.1s-2.3-2.7-1.9-1.1c0.3,1,0.6,1.2,0.8,1.2c-0.3,0.1-1.2,0.5-0.2,1.4
		C129.8,143.6,131.1,144.5,131.1,143.2z"/>
	<path class="st1" d="M127.7,132c0.8-1-0.8-2.7-1.8-2.3C125,130.2,127.5,132.3,127.7,132z"/>
	<path class="st1" d="M119.8,103.1c1.3,2.3,3.2,0.7,3.2,0.7l1.4-1.4c-1.2,0.6-1.2,0.6-1.2,0.6S118.5,100.8,119.8,103.1z"/>
	<path class="st1" d="M125.9,102.8c-0.1,0.1-0.2,0.1-0.3,0.2c-0.3,0.5-1,2.1-0.3,1.7C126.1,104.2,127,102.3,125.9,102.8z"/>
	<path class="st1" d="M125.1,102.1c0.1-0.1,0.2-0.1,0.4-0.2c0.1-0.2,0.2-0.4,0.2-0.4L125.1,102.1z"/>
	<path class="st1" d="M145.8,94.5c0,0-4.4-5.4-2.7-1.8C145,96.4,145.8,94.5,145.8,94.5z"/>
	<path class="st1" d="M143.3,118.6c0,0,3.2,7.6,3.3,5.3C146.7,121.6,144.1,117.3,143.3,118.6z"/>
	<path class="st1" d="M136.7,107.5c0,0-3-3.4-2-1.4C135.7,108.1,136.7,107.5,136.7,107.5z"/>
	<path class="st1" d="M154.5,114.1c0,0-1.7,1.4,0,4.3S154.5,114.1,154.5,114.1z"/>
	<path class="st1" d="M157.4,119.3c0,0-2.5,3.7-0.9,2.9C158.2,121.4,158.9,119,157.4,119.3z"/>
	<path class="st1" d="M151.6,119.1c1,0.6,0-3,0-3C149.1,114.6,150.6,118.5,151.6,119.1z"/>
	<path class="st1" d="M156.3,110.9c1.9-2,0.8-4.8,0.8-4.8S154.4,112.9,156.3,110.9z"/>
	<path class="st1" d="M175.1,101c1.8-1.2-2.8-1.1-3.5-1.1C171.6,99.9,173.4,102.2,175.1,101z"/>
	<path class="st1" d="M179.3,98.8c-2.8-1.5-1.6,1,0,1.1S179.6,99,179.3,98.8z"/>
	<path class="st1" d="M196,108.1c0,0-3,5.6-1.3,4.4S199.5,106.5,196,108.1z"/>
	<path class="st1" d="M191.7,107.6c1.6,0.8,1-1.5,1-1.5S190,106.8,191.7,107.6z"/>
	<path class="st1" d="M192.8,109.9c0,0-4-4.1-3.3-2.1c0.8,2,3.3,3.6,3.8,2.5S192.8,109.9,192.8,109.9z"/>
	<path class="st1" d="M166.2,124.3c0,0-3-1.5-2.4,0C164.4,125.9,166.2,124.3,166.2,124.3z"/>
	<path class="st1" d="M177.3,116.3c0,0-0.5,1.5,0.6,1.5C179.1,117.9,177.3,116.3,177.3,116.3z"/>
	<path class="st1" d="M168.5,116.6c1.3,0.3,2-0.7,2-0.7S167.2,116.3,168.5,116.6z"/>
	<path class="st1" d="M183.6,119.1c0,0,2.3,3.8,4.8,3.8S184.2,119.6,183.6,119.1z"/>
	<path class="st1" d="M148.7,143.9c0,0-4.3-1.8-2.1,0.6S148.7,143.9,148.7,143.9z"/>
	<path class="st1" d="M143.3,141.7c0,0-5.1-4.9-3.5-1.1S143.3,141.7,143.3,141.7z"/>
	<path class="st1" d="M146.6,140.1c0.6-3.2-0.6-2.9-0.6-2.9S146,143.2,146.6,140.1z"/>
	<path class="st1" d="M152.8,149.2c-0.8,2.3,0.6,5.7,0.9,2.9c0.3-2.8,0.4-4.4-2.1-4.7c0,0-6.1-1.1-2.9,0.8
		C152,150.1,153.5,146.9,152.8,149.2z"/>
	<path class="st1" d="M145.5,170.3c-0.8,2.3,0.6,5.7,0.9,2.9c0.3-2.8,0.4-4.4-2.1-4.7c0,0-6.1-1.1-2.9,0.8
		C144.7,171.1,146.2,168,145.5,170.3z"/>
	<path class="st1" d="M160.7,164.3c0,0-1.5,2.2,0,3.7c1.5,1.6,1.4-0.9,0.4-2.1c-1-1.1,0,0,2-0.3S160.7,164.3,160.7,164.3z"/>
	<path class="st1" d="M154.3,156.2c1.6-1.3-1-1.5-1-1.5S152.7,157.5,154.3,156.2z"/>
	<path class="st1" d="M164.2,153.1c1.5,1.6,2-0.7,2-0.7S162.6,151.5,164.2,153.1z"/>
	<path class="st1" d="M238.4,109.4c0,0-4.3-1.8-2.1,0.6C238.4,112.5,238.4,109.4,238.4,109.4z"/>
	<path class="st1" d="M239.1,113.9c1.1,0.6,1.8,0.4,2.3,0.2c0.1,0,0.3,0,0.4-0.1c0,0.1,0,0.2-0.1,0.5c-0.5,1.4,0.4,3.6,0.6,1.8
		c0.1-1.2,0.2-2-0.3-2.5c0.5-0.5,0.4-1.7-1.2-2.4c0,0-1.5,0.6-0.6,1.8C239.2,113.2,237.6,113.1,239.1,113.9z"/>
	<path class="st1" d="M250.4,129.9c0,0-1.5,2.2,0,3.7c1.5,1.6,1.4-0.9,0.4-2.1c-1-1.1,0,0,2-0.3S250.4,129.9,250.4,129.9z"/>
	<path class="st1" d="M243.9,121.8c1.6-1.3-1-1.5-1-1.5S242.3,123.1,243.9,121.8z"/>
	<path class="st1" d="M250.8,106.5c0,0-4.3-1.8-2.1,0.6S250.8,106.5,250.8,106.5z"/>
	<path class="st1" d="M250.8,110.8c3.3,1.9,4.8-1.3,4,1c-0.8,2.3,0.6,5.7,0.9,2.9c0.3-2.8,0.4-4.4-2.1-4.7
		C253.7,110,247.5,108.9,250.8,110.8z"/>
	<path class="st1" d="M263.3,128.1C263.3,128,263.3,128,263.3,128.1c0.1-0.3-0.1-0.2-0.3-0.2c-0.2,0,0,0.1,0.1,0.2
		c0,0.1,0,0.1,0,0.2c0.1,0.1,0.1-0.1,0-0.2C263.1,128.1,263.2,128.2,263.3,128.1C263.3,128.1,263.3,128.1,263.3,128.1
		C263.3,128.1,263.3,128.1,263.3,128.1z"/>
	<path class="st1" d="M256.4,118.9c1.6-1.3-1-1.5-1-1.5s-0.1,0.2-0.1,0.6c-0.9-0.2-2.7-0.4-1.5,0.8c0.7,0.8,1.2,0.6,1.6,0.3
		C255.5,119.2,255.8,119.3,256.4,118.9z"/>
	<path class="st1" d="M268.2,115.1c0,0-3.5-0.9-2,0.7S268.2,115.1,268.2,115.1z"/>
	<path class="st1" d="M228.1,114.7c0,0-4.3-1.8-2.1,0.6C228.1,117.8,228.1,114.7,228.1,114.7z"/>
	<path class="st1" d="M233.1,123c0.3-2.8,0.4-4.4-2.1-4.7c0,0-6.1-1.1-2.9,0.8c3.3,1.9,4.8-1.3,4,1
		C231.4,122.3,232.7,125.7,233.1,123z"/>
	<path class="st1" d="M241.9,138.2c0,0-0.8,1.1,0,2c0.2,0.2,0.3,0.2,0.4,0.3c0.9,1.5,3.1,4.3,3.3,4.4c0.2,0.1,0.9-0.3,0.7-0.7
		c-0.2-0.5-0.1-0.3-1.8-2.4c-1.2-1.5-1.5-2.4-1.5-2.8c0.1,0,0.2,0,0.2,0C244.2,138.8,241.9,138.2,241.9,138.2z M242.1,139.1
		C242.1,139.1,242.1,139.1,242.1,139.1c-0.4-0.5-0.2-0.3,0.3-0.2C242.3,139,242.2,139,242.1,139.1z"/>
	<path class="st1" d="M232.7,125.6c0,0-0.7,2.8,1,1.5S232.7,125.6,232.7,125.6z"/>
	<path class="st1" d="M243.5,124c1.5,1.6,2-0.7,2-0.7S242,122.4,243.5,124z"/>
	<path class="st1" d="M131.1,165.1c0.8,0.8,1.2-1.6,1.2-1.6S130.3,164.3,131.1,165.1z"/>
	<path class="st0" d="M217.8,186.1v-15.7l-5.4-5.4l5.4-5.4v-13l-8.4-8.4h-33.8v8h3.7v39.9h-3.7v8h18.4v-8h-3.7v-17h12.8l3.6,3.5
		v21.5h14.7v-8H217.8z M190.4,146.2h12.8l3.6,3.6v7.7l-3.6,3.6h-12.8V146.2z"/>
	<g>
		<g>
			<path class="st1" d="M229,201.6h-60.9v-23h3.7v-24.9h-3.7v-23h44.4l12.8,12.8v19.3l-2.3,2.3l2.3,2.3v11.3h3.7V201.6z
				 M202.8,198.1h22.7v-16h-3.7v-13.3l-3.7-3.7l3.7-3.7V145L211,134.2h-39.4v16h3.7v31.9h-3.7v16h26.4v-16h-3.7v-9h7.2l1.2,1.2
				V198.1z M197.9,178.6h1.4v-2h-1.4V178.6z M201.5,157.1h-7.2v-6.9h7.2l1.3,1.3v4.4L201.5,157.1z"/>
		</g>
	</g>
</g>
</svg>
