<?xml version="1.0" encoding="utf-8"?>
<!-- Generator: Adobe Illustrator 24.2.0, SVG Export Plug-In . SVG Version: 6.00 Build 0)  -->
<svg version="1.1" id="Layer_1" xmlns="http://www.w3.org/2000/svg" xmlns:xlink="http://www.w3.org/1999/xlink" x="0px" y="0px"
	 viewBox="0 0 194.84 178.89" style="enable-background:new 0 0 194.84 178.89;" xml:space="preserve">
<style type="text/css">
	.st0{fill:url(#SVGID_1_);}
	.st1{fill:#FFFFFF;}
	.st2{fill:#431710;}
	.st3{fill:#84807F;}
</style>
<g>
	
		<radialGradient id="SVGID_1_" cx="78.3721" cy="92.6245" r="24.2528" gradientTransform="matrix(0.6065 0.7951 -1.2386 0.9449 145.5623 -57.2052)" gradientUnits="userSpaceOnUse">
		<stop  offset="0.0754" style="stop-color:#90453A"/>
		<stop  offset="0.7682" style="stop-color:#560D00"/>
	</radialGradient>
	<path class="st0" d="M47.1,111.75c0,0-6.21-9.63,4.82-26.62s29.54-21.04,43.35-20.15c13.82,0.89,17.62,12.8,10.77,27.13
		s-19.61,22.31-36.11,25.35S47.1,111.75,47.1,111.75z"/>
	<g>
		<path class="st1" d="M63.58,43.24c0.6,0.17,1.55-1.27,5.82-1.15c-1.07,3.85-1.7,7.92-1.76,11.48c-0.13,7.23,2.73,13.44,7.61,12.74
			c2.98-0.43,5.02-4.52,6.15-7.64c0.47,4.24,1.97,5.52,4.37,5.87c3.49,0.51,4.31-6.78,4.5-11.28c0.19-4.5,1.9-3.87,1.9-3.03
			s-1.27,6.77-1.08,10.83s3.67,6,6.22,4.15c1.34-0.97,2.58-2.96,3.46-4.64c0.76,1.33,2.03,2.26,3.82,2.26c2.82,0,4.48-3.46,5.5-5.93
			c-0.01,2.23,0.45,4.19,1.91,4.92c3.48,1.74,6.22-0.78,9.08-5.94c0.97,4.77,3.5,8.15,7.16,7.62c4.88-0.7,7.88-13.26,7.88-13.26
			s-0.6-1.39-1.19-0.37c-1.47,2.56-3.59,10.33-7.06,10.64c-2.29,0.21-2.92-4.59-2.46-10.53c2.38-1.62,5.1-5.76,7.07-10.09
			c0.38-0.01,0.16-0.02,0.6-0.02c3.47-0.03,3.38-0.22,4.57-0.67c0.4-0.15-0.11-1.54-0.11-1.54s-0.3,0.38-4.27,0.38
			c0.84-2.1,1.47-4.16,1.75-5.93c1.01-6.34-4.31-8.43-8.05-3.21c-1.57,2.19-2.92,5.13-3.96,8.33c-1.77-0.14-3.22-0.19-4.22-0.05
			c-2.22,0.32-2.73,1.18-2.85,1.57c-0.13,0.39-0.25,1.41,0.63,1.66c0.6,0.17,1.55-1.27,5.82-1.15c-1.07,3.85-1.7,7.92-1.76,11.48
			c-0.01,0.59,0.01,1.16,0.03,1.73c-1.5,2.43-4.47,6.89-5.82,6.29c-1.84-0.82,0.89-9.4,1.46-11.2c0.57-1.79-0.56-2.96-2.09-2.82
			c-1.53,0.14-1.91,1.22-2.6,3.43c0,0-0.44-2.85-4.37-2.41c-3.3,0.37-5.6,4.79-6.68,8.12c-0.98,1.79-3.41,6.35-4.35,6.76
			c-1.14,0.49-0.32-5.12-0.82-9.04c-0.51-3.93-2.35-5.01-4.94-3.61c-2.6,1.39-3.61,7.48-3.8,10.46c-0.19,2.96-2.38,4.66-1.35-6.61
			c9.48-6.89,11.31-15.55,11.43-19.12c0.13-3.68-1.58-6.78-6.21-3.49c-2.69,1.92-5.18,6.49-6.89,11.4c-0.9,0.13-2.01,0.23-3.36,0.23
			c0.84-2.1,1.47-4.16,1.75-5.93c1.01-6.34-4.31-8.43-8.05-3.21c-1.57,2.19-2.92,5.13-3.96,8.33c-1.77-0.14-3.22-0.19-4.22-0.05
			c-2.22,0.32-2.73,1.18-2.85,1.57C62.82,41.97,62.69,42.99,63.58,43.24z M131.66,28.95c0.71-0.47,1.84,3.37-0.27,9.03
			c-0.16-0.01-0.32-0.02-0.49-0.03c-1.16-0.09-2.25-0.19-3.29-0.29C129.46,30.84,130.99,29.4,131.66,28.95z M126.91,40.43
			c0.06-0.27,0.13-0.52,0.19-0.78c1.1,0.12,2.17,0.23,3.48,0.26c-1.82,3.9-3.76,6.3-4.9,7.49C125.96,45.1,126.38,42.71,126.91,40.43
			z M107.62,49.52c1.71-0.97,2.53-0.73,2.94,0.17c-1.09,1.72-4.4,9.25-5.54,9.08C103.76,58.58,105.28,50.85,107.62,49.52z
			 M93.74,30.88c0.76-0.06,1.65,2.15-1.2,8.94c-2.39,5.68-5.83,8.5-6.89,9.28C87.34,38.78,93.04,30.94,93.74,30.88z M78.66,31.77
			c0.71-0.47,1.84,3.37-0.27,9.03c-0.16-0.01-0.32-0.02-0.49-0.03c-1.16-0.09-2.25-0.19-3.29-0.29
			C76.45,33.66,77.98,32.22,78.66,31.77z M73.91,43.25c0.06-0.27,0.13-0.52,0.19-0.78c1.1,0.12,2.17,0.23,3.48,0.26
			c-1.82,3.9-3.76,6.3-4.9,7.49C72.96,47.92,73.38,45.53,73.91,43.25z M72.41,52.8c2.38-1.62,5.1-5.76,7.07-10.09
			c0.38-0.01,0.78-0.03,1.21-0.06c0.92-0.06,1.68-0.1,2.32-0.13c-0.88,2.94-1.47,5.89-1.63,8.38c-0.09,1.3-0.14,2.48-0.15,3.54
			c-1.48,3.67-3.79,8.64-6.36,8.88C72.57,63.54,71.95,58.75,72.41,52.8z"/>
		<path class="st1" d="M141.96,34.85c0,0,0.42,0.63,1.39,0.59c0.97-0.04,0.89-2.58,0.34-4.77s-2.62-4.27-4.14-3.89
			c-1.52,0.38-1.44,2.28-0.34,3.21C140.31,30.92,142.08,32.02,141.96,34.85z"/>
		<path class="st1" d="M146.77,54.25c0.49,0.64,0.87,1.19,1.18,1.66c-1.12,0.53-2.44,1.33-3.55,2.48c-2.45,2.54-2.66,6.72,1.56,6.59
			c4.23-0.13,7.86-2.87,7.69-7.18c-0.01-0.29-0.05-0.58-0.1-0.87c0.77-0.05,2.37-0.51,4.58-2.98c2.96-3.3,3.08-4.56,2.87-4.94
			c-0.51-0.59-1.35,0-1.35,0s-2.37,3.17-4.1,4.31c-1.08,0.71-2.22,0.96-2.93,1.05c-1.65-3.28-4.72-6.48-4.97-8.49
			c-0.34-2.7,3.13-3.68,4.82-1.61c1.69,2.07,0.51,5.07,0.51,5.07c-0.26,0.95,1.23,0.97,1.94-0.72c0.72-1.69,0.51-5.49-2.15-7.73
			c-2.66-2.24-7.23-0.85-8.79,2.27C142.42,46.27,144.53,51.33,146.77,54.25z M149.22,58.77c0.11,0.51-1.35,1.86-2.11,1.61
			c-0.55-0.18,0.8-1.16,2-2.11C149.17,58.48,149.2,58.64,149.22,58.77z"/>
		<path class="st1" d="M131.52,64.87c-1.14,1.64-6.78,18.49-6.78,18.18s-1.39-14.89-2.03-15.72c-0.63-0.82-6.85-2.09-7.42-1.39
			c-0.57,0.7-3.23,28.65-2.92,30.8c0.32,2.15,2.85,2.54,5.45,2.85c0,0,0.82-22.75,1.2-23.07c0.38-0.32,0.63,0.32,0.63,0.32
			s1.58,15.02,2.03,15.78s2.73,2.03,3.49,1.77c0.76-0.25,5.83-17.42,6.21-17.96c0.38-0.55,1.14,0.34,0.95,1.17
			c-0.19,0.82-2.66,20.54-2.41,21.3c0.25,0.76,5.07,2.41,5.45,1.84c0.38-0.57,2.55-33.54,2.41-33.82
			C137.67,66.63,132.66,63.23,131.52,64.87z"/>
		<path class="st1" d="M156.81,64.98c-0.7,0.5-8.3,14.13-8.75,15.91c0,0-3.74-11.28-4.56-12.68c-0.82-1.39-4.12-1.96-4.12,0
			s4.69,17.75,4.75,20.03c0.06,2.28-1.2,11.98-0.95,12.23c0.25,0.25,4.37,1.96,5.2,1.33c0.82-0.63,1.9-12.04,2.22-13.37
			s10.08-19.71,10.14-20.79C160.8,66.56,157.51,64.48,156.81,64.98z"/>
		<path class="st1" d="M155.16,93.63c-2.28-0.06-2.09,1.58-2.09,1.58c-1.46,6.46-3.68,22.56-3.74,24.02
			c-0.06,1.46,2.6,2.92,3.74,2.22s1.33-5.13,3.4-12.87c2.07-7.73,3.13-11.6,3.38-12.61C160.1,94.96,157.44,93.69,155.16,93.63z"/>
		<path class="st1" d="M150.28,122.4c0,0-3.42,1.27-3.42,3.87c0,2.6,1.77,4.69,4.44,4.18c2.66-0.51,3.99-3.49,2.73-5.83
			C152.75,122.28,150.84,122.15,150.28,122.4z"/>
		<path class="st1" d="M144.7,117.14c0,0-4.82,2.41-5.07,2.41s0.63-5.89-1.01-7.1s-5.13-0.7-6.65,2.41c0,0,0.7-4.31-1.84-4.37
			c-2.54-0.06-3.42,2.85-4.12,8.56c-0.05,0.42-0.1,0.84-0.14,1.26c-0.96,0.84-2.24,1.75-3.69,2.2c0.28-2.39,0.17-4.71-0.29-6.27
			c-1.2-4.04-5.51-5.11-8.49-3.09c-2.12,1.44-3.14,4.19-3.42,6l0,0c0,0-1.96,5.79-3.49,8s-2.6,3.08-2.98,1.76
			c-0.38-1.32,1.08-9.52,1.27-10.46c0.19-0.94-1.08-2.43-2.85-2.22c-1.55,0.18-2.52,2.62-2.95,5.72
			c-0.03,0.07-5.35,11.28-5.99,10.97c-0.63-0.32,0.95-11.66,0-15.34c-0.95-3.68-4.94-4.56-6.97,0c-2.03,4.56-4.12,14.07-4.44,13.5
			c-0.32-0.57,0.19-6.91,1.27-10.46c1.08-3.55-2.6-4.25-3.61-3.17c-0.61,0.65-1.28,4.29-1.54,7.92c-1.24,1.69-3.24,4.24-4.87,5.33
			c-1.62,1.09-3.52,1.35-4.34,0.31c1.92-0.87,4.72-2.81,5.98-6.96c2.03-6.65-5.45-7.8-8.18-3.68c-0.78,1.18-1.5,2.52-2.05,3.9l0,0
			c0,0-0.02,0.07-0.07,0.18c0,0.01-0.01,0.02-0.01,0.03c-0.36,0.88-1.96,4.37-5.6,5.97c-0.82,0.36-1.58,0.62-2.32,0.85
			c-0.99-1.52-2.3-3.14-3.64-4.84c-3.11-3.93-2.73-7.8,0.51-7.8c3.23,0,4.18,3.55,3.74,5.58c-0.44,2.03-0.32,2.15,0.82,2.09
			c1.14-0.06,2.71-5.68,0.51-8.23c-2.2-2.56-8.05-3.94-10.52-0.9c-2.47,3.04-2.85,8.31,0.51,12.17c1.26,1.45,2.28,2.62,3.04,3.58
			c-1.08,0.54-2.18,1.32-3.36,2.56c-3.68,3.87-2.66,7.29,1.39,7.73s7.86-3.68,8.62-6.53c0.22-0.84,0.12-1.73-0.2-2.67
			c2.14-0.86,4.1-2.15,5.49-4.34c0.07,1.58,0.54,3.04,1.61,4.22c3.17,3.49,8.05,1.9,10.71-1.08c0.78-0.87,1.51-1.9,2.16-2.94
			c0.05,0.68,0.13,1.29,0.25,1.8c0.89,3.8,2.92,4.75,5.01,3.17c2.09-1.58,1.96-3.68,2.85-8.56c0.89-4.88,3.18-10.14,3.43-9.25
			c0.25,0.89-1.84,9-1.72,14.32c0.13,5.32,1.77,7.54,4.88,7.42c3.11-0.13,3.63-3.53,5.07-6.97c0.65-1.56,1.08-2.88,1.39-3.91
			c0.3,2.94,1.36,5.66,4.32,5.62c3.59-0.05,5.22-3.52,6.4-6.23c0.01,0.45,0.05,0.89,0.13,1.29c0.57,2.85,3.68,5.32,7.99,3.04
			c2-1.06,3.31-3.59,4.03-6.39c1.51-0.22,2.69-0.82,3.96-2.05c-0.25,4.17-0.05,7.8,0.76,8.76c1.08,1.27,2.92,0.85,3.17-1.44
			c0.25-2.29,2.73-9.01,4.12-11.87c1.39-2.85,2.47-3.55,2.47-2.92s-0.74,6.78,1.66,7.04s4.11-1.14,6.45-3.23
			C146.6,117.46,145.92,116.54,144.7,117.14z M52.93,136.47c-0.19,1.39-2.35,3.04-2.22,1.84c0.08-0.79,0.81-1.66,2.19-2.43
			C52.94,136.09,52.95,136.29,52.93,136.47z M68.39,127.92c1.33-4.18,3.17-7.29,3.49-5.89c0.29,1.26-1.2,5.68-3.78,7.31
			C68.13,128.92,68.22,128.45,68.39,127.92z M118.65,126.42c-1.93,3.71-4.95,3.51-4.34-2.13c1.06,0.48,2.26,0.85,3.58,0.97
			c0.44,0.04,0.85,0.07,1.24,0.08C118.98,125.72,118.83,126.09,118.65,126.42z M119.88,122.78c-3.22-0.14-4.91-2.12-4.91-2.12
			s0.44-2.12,0-3.01c-0.44-0.89-1.52-1.41-1.52-1.41s0.89-2.9,4.31-1.88C120.26,115.09,120.63,119.17,119.88,122.78z"/>
		<path class="st1" d="M101.32,111.01c-0.28,1.66,0.61,3.19,1.99,3.43s2.73-0.92,3.01-2.57c0.28-1.66-0.61-3.19-1.99-3.43
			C102.95,108.2,101.61,109.36,101.32,111.01z"/>
		<path class="st1" d="M145.12,104.78c-0.17-1.1-2.7-2.03-10.52-2.84c-7.82-0.81-15.93-1.43-20.54-1.34
			c-4.61,0.08-4.35,1.34-4.35,1.34c0.59,2.37,5.07,1.53,15.08,2.33c10.01,0.8,17.49,1.73,18.97,1.73
			C145.25,106.01,145.29,105.88,145.12,104.78z"/>
		<path class="st1" d="M131.98,105.67c-6.76-0.55-15.8-1.27-17.87-1.35c-2.07-0.08-2.58,1.35-2.58,1.35s-0.3,1.52,4.35,1.99
			c5.45,0.63,18.8,1.86,23.28,2.03s4.77-0.42,4.73-1.52C143.86,107.06,138.74,106.22,131.98,105.67z"/>
	</g>
	<path class="st1" d="M49.99,88.33c0,0,0.28,7.03,6.02,16.32s18.08,11.91,18.08,11.91s-4.98,1.21-8.53,1.54
		c0,0-8.28-3.05-12.85-10.66s-4.6-15.36-4.6-15.36L49.99,88.33z"/>
	<path class="st1" d="M88.71,64.95c0,0,6.68,4.39,10.74,10.13c4.06,5.75,6.59,17.03,6.59,17.03l2-5.01c0,0-1.9-15.68-15.26-22.15
		H88.71z"/>
	<g>
		<g>
			<path class="st2" d="M53.39,116.24l-1.1-0.51c39.42-0.87,56.88-35.26,57.05-35.58l-0.09,1.27
				C109.08,81.75,91.62,114.96,53.39,116.24z"/>
		</g>
	</g>
	<g>
		<g>
			<path class="st2" d="M45.47,102.63v-0.96c0.04-0.09,4.78-10.38,21.16-23.74c16.42-13.4,35.93-10.84,36.11-10.8l1.52,0.52
				c-0.18-0.03-21.07-2.58-37.32,10.67C50.68,91.59,45.51,102.54,45.47,102.63z"/>
		</g>
	</g>
	<path class="st1" d="M86.3,72.18c-0.3-1.05-0.7-1.91-1.13-2.62c0.13-0.14,0.21-0.33,0.18-0.53c-0.05-0.35-0.38-0.6-0.74-0.55
		c-0.02,0-0.08,0.01-0.17,0.03c-0.97-1.22-1.87-1.71-1.93-1.75c-0.49-0.26-1.08-0.07-1.34,0.41c-0.26,0.48-0.08,1.09,0.4,1.35
		c0.03,0.02,0.29,0.17,0.64,0.49c-1.34,0.37-3.17,0.97-5.28,1.91c-0.43-0.68-0.68-1.07-0.68-1.07c-0.3-0.46-0.92-0.6-1.38-0.3
		c-0.46,0.3-0.6,0.92-0.3,1.38c0,0,0.2,0.32,0.55,0.86c-1.54,0.78-3.2,1.76-4.89,2.93c-0.47-0.67-0.8-1.1-0.83-1.14
		c-0.34-0.44-0.96-0.52-1.4-0.19c-0.44,0.33-0.52,0.96-0.19,1.4c0.01,0.01,0.33,0.43,0.8,1.1c-1.81,1.36-3.49,2.73-5,4.03
		c-0.72-0.92-1.09-1.56-1.1-1.57c-0.27-0.48-0.88-0.65-1.36-0.39c-0.48,0.27-0.66,0.88-0.39,1.36c0.03,0.05,0.47,0.83,1.34,1.92
		c-1.85,1.65-3.37,3.11-4.42,4.17c-0.74-0.86-1.27-1.58-1.28-1.59c-0.33-0.44-0.95-0.54-1.4-0.21c-0.44,0.33-0.54,0.95-0.21,1.4
		c0.04,0.06,0.65,0.88,1.49,1.84C56.1,87.04,56,87.14,56,87.15c-0.24,0.26-0.22,0.68,0.04,0.92c0.13,0.11,0.28,0.17,0.44,0.17
		c0.18,0,0.35-0.07,0.48-0.21c0.01-0.01,0.08-0.09,0.2-0.21c0.35,0.36,0.71,0.72,1.07,1.03c0.19,0.17,0.42,0.25,0.66,0.25
		c0.28,0,0.56-0.12,0.75-0.34c0.36-0.42,0.32-1.05-0.1-1.41c-0.33-0.29-0.67-0.62-0.99-0.96c1.04-1.04,2.54-2.5,4.39-4.15
		c0.42,0.46,0.89,0.95,1.44,1.45c0.19,0.17,0.43,0.26,0.67,0.26c0.27,0,0.54-0.11,0.74-0.33c0.37-0.41,0.34-1.04-0.07-1.41
		c-0.48-0.44-0.91-0.87-1.28-1.28c1.48-1.27,3.12-2.61,4.89-3.94c0.34,0.51,0.71,1.07,1.07,1.67c0.19,0.31,0.52,0.48,0.86,0.48
		c0.18,0,0.36-0.05,0.52-0.15c0.47-0.29,0.62-0.9,0.33-1.37c-0.4-0.65-0.79-1.26-1.16-1.81c1.68-1.17,3.32-2.12,4.86-2.89
		c0.39,0.61,0.84,1.33,1.36,2.16c0.19,0.3,0.52,0.47,0.85,0.47c0.18,0,0.37-0.05,0.53-0.15c0.47-0.29,0.61-0.91,0.32-1.38
		c-0.46-0.74-0.87-1.39-1.23-1.96c2.3-1.01,4.24-1.6,5.51-1.92c0.44,0.64,0.89,1.49,1.22,2.62c0.13,0.44,0.53,0.72,0.96,0.72
		c0.09,0,0.19-0.01,0.28-0.04C86.15,73.26,86.45,72.71,86.3,72.18z"/>
	<path class="st1" d="M89.23,77.01l-3.35-0.57l-7.07,5.05l2.46,3.45l0.6-0.43l3.11,4.35l-0.73,0.52l-4.85-3.11l0.23-0.16l-2.46-3.45
		l-6.53,4.66l2.46,3.45l0.16-0.11l1.37,5.6l-0.36,0.26l-4.17-5.84l-3.35-0.57l-7.07,5.05l2.46,3.45l0.6-0.43l3.11,4.35l-0.6,0.43
		l2.46,3.44l7.07-5.05l0.43-2.6l1.08,1.52l5.03-3.59l-1.94-2.72l1.15-0.82l1.94,2.72l4.38-3.13l0,0l7.07-5.05l0.56-3.34L89.23,77.01
		z M69.78,99.71l-3.11-4.35l0.53-0.38l3.11,4.35L69.78,99.71z M88.92,86.04l-3.11-4.35l0.53-0.38l3.11,4.35L88.92,86.04z"/>
	<g>
		<path class="st3" d="M60.67,95.32l6.24-4.46l2.76,0.47l4.89,6.85l-0.46,2.75l-6.24,4.46l-1.62-2.27l0.6-0.43l-3.95-5.53l-0.6,0.43
			L60.67,95.32z M69.61,100.71l1.38-0.98l0.1-0.55l-3.49-4.89l-0.56-0.09l-1.38,0.98L69.61,100.71z"/>
		<path class="st3" d="M76.99,83.66l1.62,2.27l-0.51,0.36l6.16,3.95l0.6-0.43l1.62,2.27l-3.87,2.76L81,92.58l0.33-0.23L80.87,92
			l-2.67,1.91l0.16,0.56l0.33-0.23l1.62,2.27l-3.86,2.75l-1.62-2.27l0.6-0.43l-1.73-7.11l-0.44,0.31l-1.62-2.27L76.99,83.66z
			 M77.5,91.48l1.28-0.92L77,89.43L77.5,91.48z"/>
		<path class="st3" d="M79.81,81.65l6.24-4.46l2.76,0.47l4.89,6.85l-0.46,2.75L87,91.73l-1.62-2.27l0.6-0.43l-3.95-5.53l-0.6,0.43
			L79.81,81.65z M88.75,87.04l1.38-0.98l0.1-0.55l-3.49-4.89l-0.56-0.09l-1.38,0.98L88.75,87.04z"/>
	</g>
</g>
</svg>
