<?xml version="1.0" encoding="utf-8"?>
<!-- Generator: Adobe Illustrator 24.2.0, SVG Export Plug-In . SVG Version: 6.00 Build 0)  -->
<svg version="1.1" id="Layer_1" xmlns="http://www.w3.org/2000/svg" xmlns:xlink="http://www.w3.org/1999/xlink" x="0px" y="0px"
	 viewBox="0 0 199.63 183.28" style="enable-background:new 0 0 199.63 183.28;" xml:space="preserve">
<style type="text/css">
	.st0{fill:#676670;}
	.st1{fill:url(#SVGID_1_);}
	.st2{fill:#FFFFFF;}
	.st3{fill:#431710;}
	.st4{fill:#84807F;}
</style>
<rect x="13.11" y="12.04" class="st0" width="173.41" height="159.21"/>
<radialGradient id="SVGID_1_" cx="79.7511" cy="93.6809" r="29.4345" gradientUnits="userSpaceOnUse">
	<stop  offset="0.0754" style="stop-color:#90453A"/>
	<stop  offset="0.7682" style="stop-color:#560D00"/>
</radialGradient>
<path class="st1" d="M49.49,113.95c0,0-6.21-9.63,4.82-26.62s29.54-21.04,43.35-20.15c13.82,0.89,17.62,12.8,10.77,27.13
	s-19.61,22.31-36.11,25.35C55.83,122.7,49.49,113.95,49.49,113.95z"/>
<g>
	<path class="st2" d="M65.97,45.44c0.6,0.17,1.55-1.27,5.82-1.15c-1.07,3.85-1.7,7.92-1.76,11.48c-0.13,7.23,2.73,13.44,7.61,12.74
		c2.98-0.43,5.02-4.52,6.15-7.64c0.47,4.24,1.97,5.52,4.37,5.87c3.49,0.51,4.31-6.78,4.5-11.28c0.19-4.5,1.9-3.87,1.9-3.03
		s-1.27,6.77-1.08,10.83s3.67,6,6.22,4.15c1.34-0.97,2.58-2.96,3.46-4.64c0.76,1.33,2.03,2.26,3.82,2.26c2.82,0,4.48-3.46,5.5-5.93
		c-0.01,2.23,0.45,4.19,1.91,4.92c3.48,1.74,6.22-0.78,9.08-5.94c0.97,4.77,3.5,8.15,7.16,7.62c4.88-0.7,7.88-13.26,7.88-13.26
		s-0.6-1.39-1.19-0.37c-1.47,2.56-3.59,10.33-7.06,10.64c-2.29,0.21-2.92-4.59-2.46-10.53c2.38-1.62,5.1-5.76,7.07-10.09
		c0.38-0.01,0.16-0.02,0.6-0.02c3.47-0.03,3.38-0.22,4.57-0.67c0.4-0.15-0.11-1.54-0.11-1.54s-0.3,0.38-4.27,0.38
		c0.84-2.1,1.47-4.16,1.75-5.93c1.01-6.34-4.31-8.43-8.05-3.21c-1.57,2.19-2.92,5.13-3.96,8.33c-1.77-0.14-3.22-0.19-4.22-0.05
		c-2.22,0.32-2.73,1.18-2.85,1.57c-0.13,0.39-0.25,1.41,0.63,1.66c0.6,0.17,1.55-1.27,5.82-1.15c-1.07,3.85-1.7,7.92-1.76,11.48
		c-0.01,0.59,0.01,1.16,0.03,1.73c-1.5,2.43-4.47,6.89-5.82,6.29c-1.84-0.82,0.89-9.4,1.46-11.2c0.57-1.79-0.56-2.96-2.09-2.82
		c-1.53,0.14-1.91,1.22-2.6,3.43c0,0-0.44-2.85-4.37-2.41c-3.3,0.37-5.6,4.79-6.68,8.12c-0.98,1.79-3.41,6.35-4.35,6.76
		c-1.14,0.49-0.32-5.12-0.82-9.04c-0.51-3.93-2.35-5.01-4.94-3.61c-2.6,1.39-3.61,7.48-3.8,10.46c-0.19,2.96-2.38,4.66-1.35-6.61
		c9.48-6.89,11.31-15.55,11.43-19.12c0.13-3.68-1.58-6.78-6.21-3.49c-2.69,1.92-5.18,6.49-6.89,11.4c-0.9,0.13-2.01,0.23-3.36,0.23
		c0.84-2.1,1.47-4.16,1.75-5.93c1.01-6.34-4.31-8.43-8.05-3.21c-1.57,2.19-2.92,5.13-3.96,8.33c-1.77-0.14-3.22-0.19-4.22-0.05
		c-2.22,0.32-2.73,1.18-2.85,1.57C65.21,44.17,65.08,45.18,65.97,45.44z M134.06,31.15c0.71-0.47,1.84,3.37-0.27,9.03
		c-0.16-0.01-0.32-0.02-0.49-0.03c-1.16-0.09-2.25-0.19-3.29-0.29C131.85,33.04,133.38,31.6,134.06,31.15z M129.3,42.63
		c0.06-0.27,0.13-0.52,0.19-0.78c1.1,0.12,2.17,0.23,3.48,0.26c-1.82,3.9-3.76,6.3-4.9,7.49C128.35,47.29,128.77,44.91,129.3,42.63z
		 M110.02,51.71c1.71-0.97,2.53-0.73,2.94,0.17c-1.09,1.72-4.4,9.25-5.54,9.08C106.15,60.78,107.67,53.04,110.02,51.71z
		 M96.14,33.08c0.76-0.06,1.65,2.15-1.2,8.94c-2.39,5.68-5.83,8.5-6.89,9.28C89.74,40.97,95.43,33.14,96.14,33.08z M81.05,33.97
		c0.71-0.47,1.84,3.37-0.27,9.03c-0.16-0.01-0.32-0.02-0.49-0.03c-1.16-0.09-2.25-0.19-3.29-0.29
		C78.85,35.86,80.38,34.42,81.05,33.97z M76.3,45.45c0.06-0.27,0.13-0.52,0.19-0.78c1.1,0.12,2.17,0.23,3.48,0.26
		c-1.82,3.9-3.76,6.3-4.9,7.49C75.35,50.11,75.77,47.73,76.3,45.45z M74.81,55c2.38-1.62,5.1-5.76,7.07-10.09
		c0.38-0.01,0.78-0.03,1.21-0.06c0.92-0.06,1.68-0.1,2.32-0.13c-0.88,2.94-1.47,5.89-1.63,8.38c-0.09,1.3-0.14,2.48-0.15,3.54
		c-1.48,3.67-3.79,8.64-6.36,8.88C74.97,65.74,74.34,60.94,74.81,55z"/>
	<path class="st2" d="M144.35,37.05c0,0,0.42,0.63,1.39,0.59c0.97-0.04,0.89-2.58,0.34-4.77s-2.62-4.27-4.14-3.89
		c-1.52,0.38-1.44,2.28-0.34,3.21C142.7,33.12,144.48,34.22,144.35,37.05z"/>
	<path class="st2" d="M149.17,56.44c0.49,0.64,0.87,1.19,1.18,1.66c-1.12,0.53-2.44,1.33-3.55,2.48c-2.45,2.54-2.66,6.72,1.56,6.59
		c4.23-0.13,7.86-2.87,7.69-7.18c-0.01-0.29-0.05-0.58-0.1-0.87c0.77-0.05,2.37-0.51,4.58-2.98c2.96-3.3,3.08-4.56,2.87-4.94
		c-0.51-0.59-1.35,0-1.35,0s-2.37,3.17-4.1,4.31c-1.08,0.71-2.22,0.96-2.93,1.05c-1.65-3.28-4.72-6.48-4.97-8.49
		c-0.34-2.7,3.13-3.68,4.82-1.61c1.69,2.07,0.51,5.07,0.51,5.07c-0.26,0.95,1.23,0.97,1.94-0.72c0.72-1.69,0.51-5.49-2.15-7.73
		c-2.66-2.24-7.23-0.85-8.79,2.27C144.81,48.47,146.93,53.53,149.17,56.44z M151.62,60.97c0.11,0.51-1.35,1.86-2.11,1.61
		c-0.55-0.18,0.8-1.16,2-2.11C151.56,60.68,151.59,60.84,151.62,60.97z"/>
	<path class="st2" d="M133.91,67.06c-1.14,1.64-6.78,18.49-6.78,18.18s-1.39-14.89-2.03-15.72c-0.63-0.82-6.85-2.09-7.42-1.39
		c-0.57,0.7-3.23,28.65-2.92,30.8c0.32,2.15,2.85,2.54,5.45,2.85c0,0,0.82-22.75,1.2-23.07c0.38-0.32,0.63,0.32,0.63,0.32
		s1.58,15.02,2.03,15.78s2.73,2.03,3.49,1.77c0.76-0.25,5.83-17.42,6.21-17.96c0.38-0.55,1.14,0.34,0.95,1.17
		c-0.19,0.82-2.66,20.54-2.41,21.3c0.25,0.76,5.07,2.41,5.45,1.84c0.38-0.57,2.55-33.54,2.41-33.82
		C140.06,68.83,135.05,65.43,133.91,67.06z"/>
	<path class="st2" d="M159.2,67.18c-0.7,0.5-8.3,14.13-8.75,15.91c0,0-3.74-11.28-4.56-12.68c-0.82-1.39-4.12-1.96-4.12,0
		s4.69,17.75,4.75,20.03c0.06,2.28-1.2,11.98-0.95,12.23c0.25,0.25,4.37,1.96,5.2,1.33c0.82-0.63,1.9-12.04,2.22-13.37
		s10.08-19.71,10.14-20.79C163.19,68.76,159.9,66.68,159.2,67.18z"/>
	<path class="st2" d="M157.55,95.83c-2.28-0.06-2.09,1.58-2.09,1.58c-1.46,6.46-3.68,22.56-3.74,24.02
		c-0.06,1.46,2.6,2.92,3.74,2.22s1.33-5.13,3.4-12.87c2.07-7.73,3.13-11.6,3.38-12.61C162.5,97.16,159.84,95.89,157.55,95.83z"/>
	<path class="st2" d="M152.67,124.6c0,0-3.42,1.27-3.42,3.87c0,2.6,1.77,4.69,4.44,4.18c2.66-0.51,3.99-3.49,2.73-5.83
		C155.14,124.47,153.24,124.35,152.67,124.6z"/>
	<path class="st2" d="M147.1,119.34c0,0-4.82,2.41-5.07,2.41s0.63-5.89-1.01-7.1s-5.13-0.7-6.65,2.41c0,0,0.7-4.31-1.84-4.37
		c-2.54-0.06-3.42,2.85-4.12,8.56c-0.05,0.42-0.1,0.84-0.14,1.26c-0.96,0.84-2.24,1.75-3.69,2.2c0.28-2.39,0.17-4.71-0.29-6.27
		c-1.2-4.04-5.51-5.11-8.49-3.09c-2.12,1.44-3.14,4.19-3.42,6l0,0c0,0-1.96,5.79-3.49,8s-2.6,3.08-2.98,1.76
		c-0.38-1.32,1.08-9.52,1.27-10.46c0.19-0.94-1.08-2.43-2.85-2.22c-1.55,0.18-2.52,2.62-2.95,5.72c-0.03,0.07-5.35,11.28-5.99,10.97
		c-0.63-0.32,0.95-11.66,0-15.34c-0.95-3.68-4.94-4.56-6.97,0c-2.03,4.56-4.12,14.07-4.44,13.5c-0.32-0.57,0.19-6.91,1.27-10.46
		c1.08-3.55-2.6-4.25-3.61-3.17c-0.61,0.65-1.28,4.29-1.54,7.92c-1.24,1.69-3.24,4.24-4.87,5.33c-1.62,1.09-3.52,1.35-4.34,0.31
		c1.92-0.87,4.72-2.81,5.98-6.96c2.03-6.65-5.45-7.8-8.18-3.68c-0.78,1.18-1.5,2.52-2.05,3.9l0,0c0,0-0.02,0.07-0.07,0.18
		c0,0.01-0.01,0.02-0.01,0.03c-0.36,0.88-1.96,4.37-5.6,5.97c-0.82,0.36-1.58,0.62-2.32,0.85c-0.99-1.52-2.3-3.14-3.64-4.84
		c-3.11-3.93-2.73-7.8,0.51-7.8c3.23,0,4.18,3.55,3.74,5.58c-0.44,2.03-0.32,2.15,0.82,2.09c1.14-0.06,2.71-5.68,0.51-8.23
		c-2.2-2.56-8.05-3.94-10.52-0.9c-2.47,3.04-2.85,8.31,0.51,12.17c1.26,1.45,2.28,2.62,3.04,3.58c-1.08,0.54-2.18,1.32-3.36,2.56
		c-3.68,3.87-2.66,7.29,1.39,7.73s7.86-3.68,8.62-6.53c0.22-0.84,0.12-1.73-0.2-2.67c2.14-0.86,4.1-2.15,5.49-4.34
		c0.07,1.58,0.54,3.04,1.61,4.22c3.17,3.49,8.05,1.9,10.71-1.08c0.78-0.87,1.51-1.9,2.16-2.94c0.05,0.68,0.13,1.29,0.25,1.8
		c0.89,3.8,2.92,4.75,5.01,3.17c2.09-1.58,1.96-3.68,2.85-8.56c0.89-4.88,3.18-10.14,3.43-9.25c0.25,0.89-1.84,9-1.72,14.32
		c0.13,5.32,1.77,7.54,4.88,7.42c3.11-0.13,3.63-3.53,5.07-6.97c0.65-1.56,1.08-2.88,1.39-3.91c0.3,2.94,1.36,5.66,4.32,5.62
		c3.59-0.05,5.22-3.52,6.4-6.23c0.01,0.45,0.05,0.89,0.13,1.29c0.57,2.85,3.68,5.32,7.99,3.04c2-1.06,3.31-3.59,4.03-6.39
		c1.51-0.22,2.69-0.82,3.96-2.05c-0.25,4.17-0.05,7.8,0.76,8.76c1.08,1.27,2.92,0.85,3.17-1.44c0.25-2.29,2.73-9.01,4.12-11.87
		c1.39-2.85,2.47-3.55,2.47-2.92s-0.74,6.78,1.66,7.04s4.11-1.14,6.45-3.23C149,119.66,148.31,118.73,147.1,119.34z M55.32,138.67
		c-0.19,1.39-2.35,3.04-2.22,1.84c0.08-0.79,0.81-1.66,2.19-2.43C55.33,138.28,55.35,138.48,55.32,138.67z M70.79,130.11
		c1.33-4.18,3.17-7.29,3.49-5.89c0.29,1.26-1.2,5.68-3.78,7.31C70.52,131.12,70.62,130.65,70.79,130.11z M121.05,128.62
		c-1.93,3.71-4.95,3.51-4.34-2.13c1.06,0.48,2.26,0.85,3.58,0.97c0.44,0.04,0.85,0.07,1.24,0.08
		C121.38,127.92,121.22,128.28,121.05,128.62z M122.28,124.98c-3.22-0.14-4.91-2.12-4.91-2.12s0.44-2.12,0-3.01
		c-0.44-0.89-1.52-1.41-1.52-1.41s0.89-2.9,4.31-1.88C122.66,117.29,123.02,121.36,122.28,124.98z"/>
	<path class="st2" d="M103.72,113.21c-0.28,1.66,0.61,3.19,1.99,3.43s2.73-0.92,3.01-2.57c0.28-1.66-0.61-3.19-1.99-3.43
		C105.35,110.4,104,111.55,103.72,113.21z"/>
	<path class="st2" d="M147.52,106.98c-0.17-1.1-2.7-2.03-10.52-2.84c-7.82-0.81-15.93-1.43-20.54-1.34
		c-4.61,0.08-4.35,1.34-4.35,1.34c0.59,2.37,5.07,1.53,15.08,2.33c10.01,0.8,17.49,1.73,18.97,1.73
		C147.64,108.21,147.69,108.08,147.52,106.98z"/>
	<path class="st2" d="M134.38,107.87c-6.76-0.55-15.8-1.27-17.87-1.35c-2.07-0.08-2.58,1.35-2.58,1.35s-0.3,1.52,4.35,1.99
		c5.45,0.63,18.8,1.86,23.28,2.03s4.77-0.42,4.73-1.52C146.25,109.26,141.14,108.42,134.38,107.87z"/>
</g>
<path class="st2" d="M52.38,90.53c0,0,0.28,7.03,6.02,16.32s18.08,11.91,18.08,11.91s-4.98,1.21-8.53,1.54
	c0,0-8.28-3.05-12.85-10.66c-4.56-7.61-4.6-15.36-4.6-15.36L52.38,90.53z"/>
<path class="st2" d="M91.11,67.14c0,0,6.68,4.39,10.74,10.13c4.06,5.75,6.59,17.03,6.59,17.03l2-5.01c0,0-1.9-15.68-15.26-22.15
	H91.11z"/>
<g>
	<g>
		<path class="st3" d="M55.78,118.43l-1.1-0.51c39.42-0.87,56.88-35.26,57.05-35.58l-0.09,1.27
			C111.47,83.94,94.01,117.16,55.78,118.43z"/>
	</g>
</g>
<g>
	<g>
		<path class="st3" d="M47.87,104.83v-0.96c0.04-0.09,4.78-10.38,21.16-23.74c16.42-13.4,35.93-10.84,36.11-10.8l1.52,0.52
			c-0.18-0.03-21.07-2.58-37.32,10.67C53.07,93.78,47.9,104.73,47.87,104.83z"/>
	</g>
</g>
<path class="st2" d="M88.69,74.38c-0.3-1.05-0.7-1.91-1.13-2.62c0.13-0.14,0.21-0.33,0.18-0.53c-0.05-0.35-0.38-0.6-0.74-0.55
	c-0.02,0-0.08,0.01-0.17,0.03c-0.97-1.22-1.87-1.71-1.93-1.75c-0.49-0.26-1.08-0.07-1.34,0.41c-0.26,0.48-0.08,1.09,0.4,1.35
	c0.03,0.02,0.29,0.17,0.64,0.49c-1.34,0.37-3.17,0.97-5.28,1.91c-0.43-0.68-0.68-1.07-0.68-1.07c-0.3-0.46-0.92-0.6-1.38-0.3
	c-0.46,0.3-0.6,0.92-0.3,1.38c0,0,0.2,0.32,0.55,0.86c-1.54,0.78-3.2,1.76-4.89,2.93c-0.47-0.67-0.8-1.1-0.83-1.14
	c-0.34-0.44-0.96-0.52-1.4-0.19c-0.44,0.33-0.52,0.96-0.19,1.4c0.01,0.01,0.33,0.43,0.8,1.1c-1.81,1.36-3.49,2.73-5,4.03
	c-0.72-0.92-1.09-1.56-1.1-1.57c-0.27-0.48-0.88-0.65-1.36-0.39c-0.48,0.27-0.66,0.88-0.39,1.36c0.03,0.05,0.47,0.83,1.34,1.92
	c-1.85,1.65-3.37,3.11-4.42,4.17c-0.74-0.86-1.27-1.58-1.28-1.59c-0.33-0.44-0.95-0.54-1.4-0.21c-0.44,0.33-0.54,0.95-0.21,1.4
	c0.04,0.06,0.65,0.88,1.49,1.84c-0.18,0.18-0.27,0.29-0.28,0.3c-0.24,0.26-0.22,0.68,0.04,0.92c0.13,0.11,0.28,0.17,0.44,0.17
	c0.18,0,0.35-0.07,0.48-0.21c0.01-0.01,0.08-0.09,0.2-0.21c0.35,0.36,0.71,0.72,1.07,1.03c0.19,0.17,0.42,0.25,0.66,0.25
	c0.28,0,0.56-0.12,0.75-0.34c0.36-0.42,0.32-1.05-0.1-1.41c-0.33-0.29-0.67-0.62-0.99-0.96c1.04-1.04,2.54-2.5,4.39-4.15
	c0.42,0.46,0.89,0.95,1.44,1.45c0.19,0.17,0.43,0.26,0.67,0.26c0.27,0,0.54-0.11,0.74-0.33c0.37-0.41,0.34-1.04-0.07-1.41
	c-0.48-0.44-0.91-0.87-1.28-1.28c1.48-1.27,3.12-2.61,4.89-3.94c0.34,0.51,0.71,1.07,1.07,1.67c0.19,0.31,0.52,0.48,0.86,0.48
	c0.18,0,0.36-0.05,0.52-0.15c0.47-0.29,0.62-0.9,0.33-1.37c-0.4-0.65-0.79-1.26-1.16-1.81c1.68-1.17,3.32-2.12,4.86-2.89
	c0.39,0.61,0.84,1.33,1.36,2.16c0.19,0.3,0.52,0.47,0.85,0.47c0.18,0,0.37-0.05,0.53-0.15c0.47-0.29,0.61-0.91,0.32-1.38
	c-0.46-0.74-0.87-1.39-1.23-1.96c2.3-1.01,4.24-1.6,5.51-1.92c0.44,0.64,0.89,1.49,1.22,2.62c0.13,0.44,0.53,0.72,0.96,0.72
	c0.09,0,0.19-0.01,0.28-0.04C88.54,75.46,88.84,74.91,88.69,74.38z"/>
<g>
	<polygon class="st2" points="96.75,87.31 97.23,87.03 95.22,83.61 94.11,84.26 91.15,79.21 87.84,81.16 85.91,88.49 85.99,88.62 
		84.06,88.12 85.71,87.16 83.57,83.52 74.26,88.97 77.14,93.88 80.41,94.73 83.5,92.92 84.23,94.18 83.24,94.76 82.55,93.57 
		78.39,96.01 80.01,98.78 83.27,99.63 88.46,96.58 89.32,93.32 88.6,92.09 91.54,90.37 93.4,93.55 98.62,90.5 	"/>
	<path class="st2" d="M75.95,94.79l-2.05,1.1l-0.36-0.68l2.23-1.19l-1.84-3.17l-2.08,1.11l-1.27-2.43l-3.18,1.82l1.23,2.34
		l-1.01,0.54l-1.2-2.29l-3.18,1.82l1.16,2.2l-2.29,1.23l1.87,3.13l2.12-1.13l0.37,0.7l-2.33,1.25l1.87,3.13l2.16-1.15l1.34,2.54
		l3.14-1.85l-1.26-2.41l1.03-0.55l1.26,2.4l3.14-1.85l-1.18-2.26l2.2-1.17L75.95,94.79z M69.66,98.15l-0.36-0.69l1.02-0.54
		l0.36,0.69L69.66,98.15z"/>
</g>
<g>
	<path class="st4" d="M79.93,90.52l0.54,0.13l3.21-1.88l2.53,0.66l2.35,4l-0.7,2.69l-4.68,2.74l-2.68-0.7l-1.11-1.89l2.92-1.71
		l0.49,0.84l0.54,0.14l1.55-0.91l0.14-0.52l-1.07-1.83l-0.53-0.15l-3.12,1.83l-2.69-0.7l-2.36-4.03l8.07-4.73l1.4,2.4l-5.15,3.02
		L79.93,90.52z"/>
	<path class="st4" d="M97.64,90.24l-3.98,2.33l-1.28-2.18l0.64-0.37l-0.59-1.01l-4,2.35l-1.74-2.97l1.78-6.76l2.43-1.43l2.96,5.05
		l1.11-0.65l1.28,2.18l-1.11,0.65l0.59,1.01l0.64-0.37L97.64,90.24z M90.04,85.19l-0.66,2.53l1.59-0.93L90.04,85.19z"/>
</g>
<path class="st4" d="M76.79,97.67l-1.12-1.92l-2.08,1.11l-1.03-1.96l2.2-1.17l-1.12-1.92l-2.11,1.13l-1.26-2.41l-1.93,1.1l1.24,2.36
	l-2.28,1.22l-1.19-2.27l-1.93,1.1l1.16,2.22l-2.26,1.21l1.13,1.89l2.15-1.15l1.03,1.97l-2.3,1.23l1.13,1.89l2.19-1.17l1.32,2.52
	l1.9-1.12l-1.27-2.44l2.3-1.22l1.24,2.37l1.9-1.12l-1.2-2.29L76.79,97.67z M69.36,99.13l-1.03-1.97l2.29-1.22l1.03,1.96L69.36,99.13
	z"/>
</svg>
