<?xml version="1.0" encoding="utf-8"?>
<!-- Generator: Adobe Illustrator 24.2.0, SVG Export Plug-In . SVG Version: 6.00 Build 0)  -->
<svg version="1.1" id="Layer_1" xmlns="http://www.w3.org/2000/svg" xmlns:xlink="http://www.w3.org/1999/xlink" x="0px" y="0px"
	 viewBox="0 0 272.9 294.8" style="enable-background:new 0 0 272.9 294.8;" xml:space="preserve">
<style type="text/css">
	.st0{fill:#EC202B;}
	.st1{fill:#323292;}
</style>
<g>
	<g>
		<path class="st0" d="M131.2,94c3.7-4.1,5.1-9.9,3.5-16.6C114.2,78,105,95,105,95C116.2,91.9,122.8,92.1,131.2,94z"/>
		<path class="st0" d="M141.8,97.4l7.6-17.8c0,0-6.6-2.2-10.8-2.2c0,0,2.5,9-3.2,17.6C141.8,97.4,141.8,97.4,141.8,97.4z"/>
		<path class="st0" d="M151,102.1c0,0,2.2-9.4,11.2-14.1c-4.5-4.2-9.2-6.6-9.2-6.6l-7.7,17.2L151,102.1z"/>
		<path class="st0" d="M183,111.4c-4.3-3.2-9.4-4.6-11.2-5.1c-1.8-9.8-7-15.3-7-15.3c-4.1,1.7-7.9,5.1-10.6,13.3
			c5.8,3.7,11.4,12,11.4,12s4.1-1.1,6.9-3.3c0-2.2-0.2-4.2-0.5-6.1c1.5,0.5,4.3,1.7,4.5,4.2c0.3,3.5-3.4,6.9-16,9.7
			c-12.6,2.8-26,2.4-41.3,1.2c-15.3-1.3-22.9-6.6-22.7-10.1c0.1-2.7,2.9-4.2,4.2-4.7c-0.7,3.6-0.8,5.6-0.8,5.6s5.6,4.1,11.7,4.9
			c3-7.3,9.8-15.5,16.4-20.6c0,0-15-2.3-25.5,3.4c-0.7,2.3-1.2,4.4-1.6,6.1c-6.1,1.1-15.5,5-13.7,10.7c1.9,5.9,19.1,11.2,36.1,11.8
			c17,0.6,32.2,0.5,48.5-3.6C187.8,121.2,188.2,115.2,183,111.4z"/>
		<path class="st0" d="M154.2,108.9l-0.5,9.9c0,0,7.3-1.2,8-1.5C159,112.8,154.2,108.9,154.2,108.9z"/>
		<path class="st0" d="M150.4,106.1l-6.9-4c-1,2.5-7.7,17.8-7.7,17.8s0,0,14-0.9C150.7,115.1,150.4,106.1,150.4,106.1z"/>
		<path class="st0" d="M115.6,118.2c3.5,0.6,15.7,1.7,15.7,1.7l8.7-19.2c0,0-0.5-0.5-7.3-2.6C130.5,100,117.8,111.1,115.6,118.2z"/>
		<path class="st0" d="M120.7,145.4c0,0-1.6,4.5-4.5,16c-1.6-4.5-6.3-15.6-6.3-15.6l6.6-14.5l-3.5-0.2l-4.4,12.5c0,0,0,0-8.8-15.8
			c-8-1.1-13-5.8-13-5.8v39.6l5.4,1.5l0.2-36.7c0,0,10.7,13.9,15.9,24.2s8.3,17.7,8.3,17.7h2c0,0-1.2-2.5-1.2-5.3s4.8-15.2,4.8-15.2
			L120.7,145.4z"/>
		<path class="st0" d="M133.9,144.4c0,0-2.5,4.9-3.7,10.1c-4.8-12-5.5-12.3-5.5-12.3l5.1-9.8l-3.9-0.3l-2.9,6.5l-4.4-7.3l-2.3,3.8
			c0,0,5.2,7.4,8.8,14.9c3.5,7.4,3.8,8.4,3.8,8.4s-1.7,8-1.9,10c0.7,0.6,0.7,0.6,0.7,0.6s5-16.6,7.7-21L133.9,144.4z"/>
		<polygon class="st0" points="132.8,169.4 134.3,169.4 131.9,160.4 130.9,163.7 		"/>
		<path class="st0" d="M156.3,168.3c0,0,3.1-7.4,8.3-17.7s15.9-24.2,15.9-24.2l0.2,36.7l5.4-1.5V122c0,0-5,4.6-13,5.8
			c-8.8,15.8-8.8,15.8-8.8,15.8l-4.2-12l-2.1,3.4l5,10.9c0,0-4.7,11.1-6.3,15.6c-2.6-10.7-5.1-17.1-5.5-18
			c3.2-5.6,7.4-12.5,7.4-12.5l-4.4,0.3l-4.4,7.3L147,132l-0.7,0.1l-1.9,2.8l3.7,7.2c0,0,0,0,0,0l1.7,3.7c0,0,5.9,14.3,5.8,17.1
			s-1.2,5.3-1.2,5.3H156.3z"/>
		<path class="st0" d="M145.1,168.9c0,0,0,0,0.7-0.6c-0.1-1.2-0.8-4.4-1.3-6.9l-1.1,2.1C144.4,166.6,145.1,168.9,145.1,168.9z"/>
		<path class="st0" d="M146,153.5C146,153.4,146,153.4,146,153.5c0.2-0.3,0.3-0.6,0.4-0.9c0.1-0.1,0.1-0.2,0.2-0.4
			c0.1-0.2,0.2-0.5,0.3-0.7c0.1-0.1,0.1-0.2,0.2-0.4c0.2-0.4,0.4-0.8,0.6-1.2c0.3-0.6,0.6-1.3,1-1.9c-0.4-1-1.2-2.8-1.6-3.9
			c-0.1,0.2-0.2,0.4-0.3,0.6c0,0,0,0.1,0,0.1c-0.1,0.2-0.2,0.4-0.3,0.7c0,0,0,0.1,0,0.1c-0.1,0.2-0.2,0.5-0.3,0.8c0,0,0,0.1-0.1,0.1
			c-0.1,0.3-0.3,0.6-0.4,0.9c0,0,0,0.1-0.1,0.2c-0.1,0.3-0.3,0.7-0.5,1.1c0,0,0,0.1,0,0.1c-0.2,0.4-0.4,0.8-0.5,1.3c0,0,0,0,0,0.1
			c-0.4,1-0.8,2.1-1.3,3.3l-0.7,0c0.1,0.4,0.2,0.8,0.3,1.1c-1.5-6.2-4.4-12.3-4.4-12.3l4.8-9.7h-3.5l-3.2,5.3l-2.9-5.3h-1.8
			l-1.5,1.7l7.3,13.7c1.2,1.9,2.8,6.2,4.2,10.3l-0.8,2.3l-2.3,8.9h1.4l1.9-5.7l0.8-2.3c0.7-2.1,1.2-3.1,1.2-3.1
			S144.1,157.7,146,153.5L146,153.5z"/>
		<path class="st0" d="M70.2,190.1l-0.5-20.5c0,0-15.3-0.6-31.1,3.1c0,0,10.6,6,12.8,10c2.2,4-1.2,7.8-8.1,15.3
			c15-2.4,32.5-3.8,45.8-2.2C70.2,190.1,70.2,190.1,70.2,190.1z"/>
		<path class="st0" d="M221.5,182.8c2.2-4,12.8-10,12.8-10c-15.8-3.7-31.1-3.1-31.1-3.1l-0.5,20.5c0,0,0,0-18.8,5.8
			c13.2-1.6,30.8-0.2,45.8,2.2C222.6,190.6,219.3,186.8,221.5,182.8z"/>
		<path class="st0" d="M160.7,185.2c0.3,0,0.5-0.2,0.5-0.6l-0.2-2c0-0.3-0.2-0.5-0.6-0.5l-1.3,0.1l0.4,3.1L160.7,185.2z"/>
		<path class="st0" d="M105.5,181l-1.2-0.2l-1,5.8l1.2,0.2c0.3,0.1,0.5-0.1,0.6-0.4l0.8-4.7C106,181.2,105.9,181,105.5,181z"/>
		<polygon class="st0" points="153.7,183.4 153.1,187.1 154.8,187 		"/>
		<path class="st0" d="M136.2,188.9l0-4.9c0-0.4-0.2-0.5-0.5-0.5l-0.8,0c-0.3,0-0.5,0.2-0.5,0.5l0,4.9c0,0.4,0.2,0.5,0.5,0.5l0.8,0
			C136,189.5,136.2,189.3,136.2,188.9z"/>
		<path class="st0" d="M167,187.2c0.3,0,0.5-0.3,0.4-0.6l-0.7-4.8c-0.1-0.4-0.3-0.5-0.6-0.5l-1.2,0.2l0.9,5.8L167,187.2z"/>
		<path class="st0" d="M139.4,198.2c39.9-0.5,60.2-10.6,60.2-10.6v-27.7c0,0-1.6,0.8-4.7,2.1v-57.4c0,0-11.6-8-24.7-12.1
			c0,0,2,3.6,2.9,5.4c15,6.4,17.5,8.9,17.5,8.9v56.7c-10.3,3.6-29.5,8.5-57.1,9.1c-23.5-1.2-41.2-5.9-51.2-9.3v-56.6
			c0,0,2.5-2.5,17.5-8.9c0.9-1.9,2.9-5.4,2.9-5.4c-13.1,4.1-24.7,12.1-24.7,12.1v57.3c-3.2-1.2-4.8-2-4.8-2v27.7
			C73.1,187.6,99.5,198.7,139.4,198.2z M190.4,173.5l1.3-0.6c1.1-0.5,2-0.2,2.5,0.9l0.4,0.8c0.1,0.1,0,0.2-0.1,0.3l-1.2,0.6
			c-0.1,0.1-0.2,0-0.3-0.1l-0.2-0.5c-0.2-0.3-0.4-0.4-0.7-0.3l-0.6,0.3c-0.3,0.1-0.4,0.4-0.2,0.7l0.5,1l3.3-0.4
			c0.2,0,0.4,0.1,0.5,0.3l1.1,2.3c0.6,1.1,0.3,2-0.8,2.6l-1.3,0.6c-1.1,0.5-2,0.2-2.5-0.9l-0.4-0.8c-0.1-0.1,0-0.2,0.1-0.3l1.2-0.6
			c0.1-0.1,0.2,0,0.3,0.1l0.2,0.5c0.2,0.3,0.4,0.4,0.7,0.3l0.6-0.3c0.3-0.1,0.4-0.4,0.2-0.7l-0.6-1.2l-3.3,0.4
			c-0.2,0-0.4-0.1-0.5-0.3l-1-2.1C189,174.9,189.3,174,190.4,173.5z M184.4,175.6l1.3-0.4c0.1,0,0.2,0,0.3,0.1l2.3,7.1l2.5-0.8
			c0.1,0,0.2,0,0.3,0.1l0.4,1.3c0,0.1,0,0.2-0.1,0.3l-4,1.3c-0.1,0-0.2,0-0.3-0.1l-2.8-8.6C184.3,175.7,184.3,175.6,184.4,175.6z
			 M179.7,176.9l1.8-0.5c0.1,0,0.2,0,0.3,0.1l4.4,8.2c0.1,0.1,0,0.2-0.1,0.3l-1.2,0.3c-0.1,0-0.2,0-0.2-0.1l-0.8-1.5l-2.4,0.6l0,1.8
			c0,0.1,0,0.2-0.2,0.2l-1.2,0.3c-0.1,0-0.2,0-0.2-0.2l-0.2-9.3C179.6,177,179.6,176.9,179.7,176.9z M171.9,178.6l1-0.2
			c0.1,0,0.2,0,0.3,0.1l3.5,4.6l-1-5c0-0.1,0-0.2,0.2-0.3l1.2-0.3c0.1,0,0.2,0,0.2,0.2l1.8,8.9c0,0.1,0,0.2-0.2,0.3l-1,0.2
			c-0.1,0-0.2,0-0.3-0.1l-3.5-4.6l1,5c0,0.1,0,0.2-0.2,0.3l-1.2,0.3c-0.1,0-0.2,0-0.2-0.2l-1.8-8.9
			C171.7,178.7,171.8,178.6,171.9,178.6z M169.1,179.1l1.3-0.2c0.1,0,0.2,0,0.2,0.2l1.6,8.9c0,0.1,0,0.2-0.2,0.2l-1.3,0.2
			c-0.1,0-0.2,0-0.2-0.2l-1.6-8.9C168.9,179.2,169,179.1,169.1,179.1z M163.1,180l3.1-0.5c1.2-0.2,2,0.4,2.1,1.7l0.8,5.5
			c0.2,1.3-0.4,2-1.6,2.2l-3.1,0.5c-0.1,0-0.2,0-0.2-0.2l-1.3-8.9C162.9,180.1,163,180,163.1,180z M157.4,180.7l3.1-0.4
			c1.2-0.1,1.9,0.5,2.1,1.7l0.3,2.7c0.1,0.8-0.1,1.4-0.5,1.7l1,2.8c0.1,0.2,0,0.2-0.2,0.3l-1.3,0.1c-0.1,0-0.2,0-0.2-0.2l-0.9-2.6
			l-1.2,0.1l0.3,2.6c0,0.1-0.1,0.2-0.2,0.2l-1.3,0.1c-0.1,0-0.2-0.1-0.2-0.2l-1-9C157.2,180.8,157.3,180.7,157.4,180.7z
			 M152.4,181.3c0-0.1,0.1-0.2,0.2-0.2l1.8-0.1c0.1,0,0.2,0,0.2,0.2l2.9,8.8c0.1,0.1,0,0.2-0.2,0.2l-1.3,0.1c-0.1,0-0.2-0.1-0.2-0.2
			l-0.6-1.7l-2.4,0.2l-0.3,1.7c0,0.1-0.1,0.2-0.2,0.2l-1.3,0.1c-0.1,0-0.2-0.1-0.2-0.2L152.4,181.3z M146.3,181.5l1.5-0.1
			c1.2-0.1,1.9,0.6,2,1.9l0.1,1.5c0,0.1-0.1,0.2-0.2,0.2l-1.2,0.1c-0.1,0-0.2-0.1-0.2-0.2l-0.1-1.1c0-0.4-0.2-0.5-0.5-0.5l-0.8,0
			c-0.4,0-0.5,0.2-0.5,0.6l0.2,4.9c0,0.4,0.2,0.5,0.5,0.5l0.8,0c0.3,0,0.5-0.2,0.5-0.6l-0.1-1.1c0-0.1,0.1-0.2,0.2-0.2l1.2-0.1
			c0.1,0,0.2,0.1,0.2,0.2l0.1,1.5c0.1,1.3-0.6,2-1.8,2l-1.5,0.1c-1.2,0.1-1.9-0.6-2-1.9l-0.3-5.6
			C144.4,182.3,145.1,181.6,146.3,181.5z M139.1,189.4l1.2,0c0.2,0,0.3,0.1,0.3,0.3l0,1.2c0,0.2-0.1,0.3-0.3,0.3l-1.2,0
			c-0.2,0-0.3-0.1-0.3-0.3l0-1.2C138.9,189.5,139,189.4,139.1,189.4z M81.1,179.2l-1.5-0.5l-1.2,3.2c0,0.1-0.1,0.2-0.3,0.1l-1.3-0.5
			c-0.1,0-0.2-0.1-0.1-0.3l3.6-9.7c0-0.1,0.1-0.2,0.3-0.1l2.9,1.1c1.2,0.4,1.5,1.3,1.1,2.5l-1.1,3.1
			C83.1,179.2,82.3,179.6,81.1,179.2z M89.1,185.1c0,0.2-0.1,0.2-0.2,0.2l-1.2-0.3c-0.1,0-0.2-0.1-0.1-0.2l0.1-1.8l-2.4-0.7
			l-0.9,1.5c-0.1,0.1-0.1,0.2-0.3,0.1l-1.2-0.3c-0.1,0-0.2-0.1-0.1-0.3l4.5-8.1c0.1-0.1,0.2-0.2,0.3-0.1l1.7,0.5
			c0.1,0,0.2,0.1,0.2,0.2L89.1,185.1z M92.8,186.3l-1.4-0.3c-1.2-0.3-1.7-1.1-1.4-2.3l1.7-7.1c0-0.1,0.2-0.2,0.3-0.2l1.2,0.3
			c0.1,0,0.2,0.2,0.2,0.3l-1.6,6.7c-0.1,0.4,0.1,0.6,0.4,0.6l0.7,0.2c0.3,0.1,0.5,0,0.6-0.4l1.6-6.7c0-0.1,0.2-0.2,0.3-0.2l1.2,0.3
			c0.1,0,0.2,0.2,0.2,0.3l-1.7,7.1C94.8,186,94,186.5,92.8,186.3z M100.3,187.6c0,0.1-0.1,0.2-0.2,0.2L96,187
			c-0.1,0-0.2-0.1-0.2-0.3l1.8-8.9c0-0.1,0.1-0.2,0.2-0.2l1.3,0.3c0.1,0,0.2,0.1,0.2,0.3l-1.5,7.3l2.5,0.5c0.1,0,0.2,0.1,0.2,0.3
			L100.3,187.6z M104.6,188.6l-3.1-0.5c-0.1,0-0.2-0.1-0.2-0.2l1.5-8.9c0-0.1,0.1-0.2,0.2-0.2l3.1,0.5c1.2,0.2,1.7,1,1.5,2.2
			l-0.9,5.5C106.6,188.3,105.8,188.8,104.6,188.6z M109.1,189.3l-1.3-0.2c-0.1,0-0.2-0.1-0.2-0.2l1.3-8.9c0-0.1,0.1-0.2,0.2-0.2
			l1.3,0.2c0.1,0,0.2,0.1,0.2,0.2l-1.3,8.9C109.3,189.2,109.2,189.3,109.1,189.3z M115.9,189.9c0,0.1-0.1,0.2-0.2,0.2l-1-0.1
			c-0.1,0-0.2-0.1-0.2-0.2l-1.8-5.4l-0.6,5.1c0,0.1-0.1,0.2-0.2,0.2l-1.2-0.1c-0.1,0-0.2-0.1-0.2-0.2l1.1-9c0-0.1,0.1-0.2,0.2-0.2
			l1,0.1c0.1,0,0.2,0.1,0.2,0.2l1.8,5.4l0.6-5.1c0-0.1,0.1-0.2,0.2-0.2l1.2,0.1c0.1,0,0.2,0.1,0.2,0.2L115.9,189.9z M122.8,183.2
			l-0.1,1c0,0.1-0.1,0.2-0.2,0.2l-1.2-0.1c-0.1,0-0.2-0.1-0.2-0.2l0.1-0.7c0-0.4-0.1-0.6-0.5-0.6l-0.8-0.1c-0.4,0-0.5,0.1-0.6,0.5
			l-0.4,4.9c0,0.4,0.1,0.6,0.5,0.6l0.8,0.1c0.3,0,0.5-0.1,0.6-0.5l0.1-1.2l-0.7-0.1c-0.1,0-0.2-0.1-0.2-0.2l0.1-1.3
			c0-0.1,0.1-0.2,0.2-0.2l2.1,0.2c0.1,0,0.2,0.1,0.2,0.2l-0.3,3.1c-0.1,1.3-0.8,1.9-2,1.8l-1.5-0.1c-1.2-0.1-1.8-0.8-1.7-2.1
			l0.5-5.6c0.1-1.3,0.8-1.9,2-1.8l1.5,0.1C122.3,181.2,122.9,181.9,122.8,183.2z M131.8,183.7c0,0.1-0.1,0.2-0.2,0.2l-1.3-0.1
			c-0.1,0-0.2-0.1-0.2-0.2l0-1.1c0-0.4-0.2-0.5-0.5-0.6l-0.7,0c-0.4,0-0.5,0.2-0.5,0.5l-0.2,6.2c0,0.4,0.2,0.5,0.5,0.6l0.7,0
			c0.3,0,0.5-0.2,0.5-0.5l0-1.1c0-0.1,0.1-0.2,0.2-0.2l1.3,0.1c0.1,0,0.2,0.1,0.2,0.2l-0.1,1.5c0,1.3-0.7,1.9-2,1.9l-1.5-0.1
			c-1.2,0-1.9-0.7-1.8-2l0.3-6.9c0-1.3,0.7-1.9,2-1.9l1.5,0.1c1.2,0,1.9,0.7,1.8,2L131.8,183.7z M132.6,189.2l0-5.6
			c0-1.3,0.7-1.9,1.9-1.9l1.5,0c1.2,0,1.9,0.7,1.9,2l0,5.6c0,1.3-0.7,1.9-1.9,1.9l-1.5,0C133.3,191.2,132.6,190.5,132.6,189.2z"/>
		<polygon class="st0" points="87.6,181.4 87.8,177.6 86,180.9 		"/>
		<path class="st0" d="M82.6,174l-1.1-0.4l-1.3,3.4l1.1,0.4c0.3,0.1,0.6,0,0.7-0.3l0.9-2.4C83,174.3,82.9,174.1,82.6,174z"/>
		<polygon class="st0" points="182.9,182.3 181.2,178.9 181.3,182.7 		"/>
		<path class="st0" d="M102.8,198.2l-9.8-1.6c1.9,3.5,6.9,6.6,11.9,9.6c5,3,31.4,18,31.4,18s32.7-18,37.8-22c5.1-4,5.5-5.6,5.5-5.6
			l-9.4,1.6c0,0-20,11.7-33.9,19.4C129.2,214.3,102.8,198.2,102.8,198.2z"/>
		<path class="st0" d="M175.7,207c-5,3.3-39.4,22.5-39.4,22.5s-25.1-14.1-34.6-19.9c-9.5-5.8-13.2-10.9-13.2-10.9H84
			c1.6,3.3,6.1,8.8,12.9,12.9c6.7,4.1,39.4,22.7,39.4,22.7s38.3-20.7,45-26.6s7.5-9,7.5-9h-4.9C183.8,198.7,180.7,203.7,175.7,207z"
			/>
	</g>
	<g>
		<path class="st1" d="M48,239.3h-4.1c-0.2,0-0.3,0.1-0.3,0.3v13.2c0,0.2,0.1,0.3,0.3,0.3H48c1.6,0,2.5-0.9,2.5-2.5v-3.2
			c0-0.6-0.5-1.1-1.1-1.2v0c0.6-0.1,1.1-0.6,1.1-1.2v-3.2C50.4,240.2,49.6,239.3,48,239.3z M48.2,250.1c0,0.5-0.2,0.7-0.7,0.7h-1.6
			v-3.5h1.6c0.5,0,0.7,0.2,0.7,0.7V250.1z M48.2,244.4c0,0.4-0.2,0.7-0.7,0.7h-1.6v-3.5h1.6c0.5,0,0.7,0.2,0.7,0.7V244.4z"/>
		<path class="st1" d="M57.7,241.1h-2.4c-0.2,0-0.3,0.1-0.3,0.2l-2.9,11.5c-0.1,0.2,0,0.3,0.2,0.3H54c0.2,0,0.2-0.1,0.3-0.2l0.5-2.2
			h3.2l0.6,2.2c0,0.2,0.1,0.2,0.3,0.2h1.7c0.2,0,0.3-0.1,0.2-0.3l-2.9-11.5C57.9,241.1,57.8,241.1,57.7,241.1z M55.4,248.7l1.1-4.7
			l1.1,4.7H55.4z"/>
		<path class="st1" d="M67,241.1h-1.9c-1.6,0-2.5,0.9-2.5,2.5v3c0,0.3,0.2,0.5,0.5,0.6l4.1,1.3v1.7c0,0.5-0.2,0.7-0.7,0.7h-0.9
			c-0.4,0-0.7-0.2-0.7-0.7v-0.7c0-0.2-0.1-0.3-0.3-0.3h-1.7c-0.2,0-0.3,0.1-0.3,0.3v1.1c0,1.6,0.9,2.5,2.5,2.5H67
			c1.6,0,2.5-0.9,2.5-2.5v-3.2c0-0.3-0.2-0.5-0.4-0.6l-4.2-1.3V244c0-0.4,0.3-0.7,0.7-0.7h0.9c0.5,0,0.7,0.2,0.7,0.7v0.7
			c0,0.2,0.1,0.3,0.3,0.3h1.7c0.2,0,0.3-0.1,0.3-0.3v-1.1C69.5,241.9,68.7,241.1,67,241.1z"/>
		<path class="st1" d="M76.7,246.6l2.9-5.1c0.1-0.2,0-0.4-0.2-0.4h-1.8c-0.2,0-0.3,0.1-0.4,0.3l-2.6,4.6v-4.5c0-0.2-0.1-0.3-0.3-0.3
			h-1.7c-0.2,0-0.3,0.1-0.3,0.3v11.4c0,0.2,0.1,0.3,0.3,0.3h1.7c0.2,0,0.3-0.1,0.3-0.3v-2.9l0.6-1.2l2.2,4.2
			c0.1,0.2,0.2,0.3,0.4,0.3h1.8c0.3,0,0.4-0.2,0.3-0.4L76.7,246.6z"/>
		<path class="st1" d="M88.6,241.1h-6.3c-0.2,0-0.3,0.1-0.3,0.3v11.5c0,0.2,0.1,0.3,0.3,0.3h6.3c0.2,0,0.3-0.1,0.3-0.3v-1.7
			c0-0.2-0.1-0.3-0.3-0.3h-4.2v-2.5h3.2c0.2,0,0.3-0.1,0.3-0.3v-1.7c0-0.2-0.1-0.3-0.3-0.3h-3.2v-2.6h4.2c0.2,0,0.3-0.1,0.3-0.3
			v-1.7C88.9,241.2,88.8,241.1,88.6,241.1z"/>
		<path class="st1" d="M97.5,241.1h-6.3c-0.2,0-0.3,0.1-0.3,0.3v1.7c0,0.2,0.1,0.3,0.3,0.3h2v9.5c0,0.2,0.1,0.3,0.3,0.3h1.8
			c0.2,0,0.3-0.1,0.3-0.3v-9.5h2c0.2,0,0.3-0.1,0.3-0.3v-1.7C97.8,241.2,97.7,241.1,97.5,241.1z"/>
		<path class="st1" d="M104.5,241.1h-4.1c-0.2,0-0.3,0.1-0.3,0.3v11.5c0,0.2,0.1,0.3,0.3,0.3h4.1c1.6,0,2.5-0.9,2.5-2.5v-2.3
			c0-0.6-0.5-1.1-1.1-1.2v0c0.6-0.1,1.1-0.6,1.1-1.2v-2.3C107,241.9,106.1,241.1,104.5,241.1z M104.8,250.2c0,0.5-0.2,0.7-0.7,0.7
			h-1.9v-2.7h1.9c0.5,0,0.7,0.2,0.7,0.7V250.2z M104.8,245.3c0,0.4-0.2,0.7-0.7,0.7h-1.9v-2.7h1.9c0.5,0,0.7,0.2,0.7,0.7V245.3z"/>
		<path class="st1" d="M114.6,241.1h-2.4c-0.2,0-0.3,0.1-0.3,0.2l-2.9,11.5c-0.1,0.2,0,0.3,0.2,0.3h1.7c0.2,0,0.2-0.1,0.3-0.2
			l0.5-2.2h3.2l0.6,2.2c0,0.2,0.1,0.2,0.3,0.2h1.7c0.2,0,0.3-0.1,0.2-0.3l-2.9-11.5C114.8,241.1,114.7,241.1,114.6,241.1z
			 M112.3,248.7l1.1-4.7l1.1,4.7H112.3z"/>
		<path class="st1" d="M125.8,250.8h-3.4v-9.5c0-0.2-0.1-0.3-0.3-0.3h-1.8c-0.2,0-0.3,0.1-0.3,0.3v11.5c0,0.2,0.1,0.3,0.3,0.3h5.5
			c0.2,0,0.3-0.1,0.3-0.3v-1.7C126.1,250.9,126,250.8,125.8,250.8z"/>
		<path class="st1" d="M134.5,250.8h-3.4v-9.5c0-0.2-0.1-0.3-0.3-0.3H129c-0.2,0-0.3,0.1-0.3,0.3v11.5c0,0.2,0.1,0.3,0.3,0.3h5.5
			c0.2,0,0.3-0.1,0.3-0.3v-1.7C134.8,250.9,134.7,250.8,134.5,250.8z"/>
		<path class="st1" d="M146.8,239.3h-1.9c-1.6,0-2.5,0.9-2.5,2.5v8.8c0,1.6,0.9,2.5,2.5,2.5h1.9c1.6,0,2.5-0.9,2.5-2.5v-1.9
			c0-0.2-0.1-0.3-0.3-0.3h-1.7c-0.2,0-0.3,0.1-0.3,0.3v1.4c0,0.5-0.2,0.7-0.7,0.7h-0.9c-0.4,0-0.7-0.2-0.7-0.7v-7.8
			c0-0.4,0.2-0.7,0.7-0.7h0.9c0.4,0,0.7,0.2,0.7,0.7v1.4c0,0.2,0.1,0.3,0.3,0.3h1.7c0.2,0,0.3-0.1,0.3-0.3v-1.9
			C149.3,240.2,148.4,239.3,146.8,239.3z"/>
		<path class="st1" d="M157.7,250.8h-3.4v-9.5c0-0.2-0.1-0.3-0.3-0.3h-1.8c-0.2,0-0.3,0.1-0.3,0.3v11.5c0,0.2,0.1,0.3,0.3,0.3h5.5
			c0.2,0,0.3-0.1,0.3-0.3v-1.7C158,250.9,157.9,250.8,157.7,250.8z"/>
		<path class="st1" d="M162.2,241.1h-1.8c-0.2,0-0.3,0.1-0.3,0.3v11.5c0,0.2,0.1,0.3,0.3,0.3h1.8c0.2,0,0.3-0.1,0.3-0.3v-11.5
			C162.5,241.2,162.4,241.1,162.2,241.1z"/>
		<path class="st1" d="M171.9,241.1h-1.6c-0.2,0-0.3,0.1-0.3,0.3v6.5l-3.2-6.6c-0.1-0.2-0.2-0.2-0.3-0.2h-1.4
			c-0.2,0-0.3,0.1-0.3,0.3v11.5c0,0.2,0.1,0.3,0.3,0.3h1.6c0.2,0,0.3-0.1,0.3-0.3v-6.5l3.2,6.6c0.1,0.2,0.2,0.2,0.3,0.2h1.4
			c0.2,0,0.3-0.1,0.3-0.3v-11.5C172.2,241.2,172.1,241.1,171.9,241.1z"/>
		<path class="st1" d="M177.3,241.1h-1.8c-0.2,0-0.3,0.1-0.3,0.3v11.5c0,0.2,0.1,0.3,0.3,0.3h1.8c0.2,0,0.3-0.1,0.3-0.3v-11.5
			C177.5,241.2,177.4,241.1,177.3,241.1z"/>
		<path class="st1" d="M184.3,241.1h-1.9c-1.6,0-2.5,0.9-2.5,2.5v7.1c0,1.6,0.9,2.5,2.5,2.5h1.9c1.6,0,2.5-0.9,2.5-2.5v-1.9
			c0-0.2-0.1-0.3-0.3-0.3h-1.6c-0.2,0-0.3,0.1-0.3,0.3v1.5c0,0.5-0.2,0.7-0.7,0.7h-1.1c-0.4,0-0.7-0.2-0.7-0.7V244
			c0-0.4,0.2-0.7,0.7-0.7h1.1c0.4,0,0.7,0.2,0.7,0.7v1.4c0,0.2,0.1,0.3,0.3,0.3h1.6c0.2,0,0.3-0.1,0.3-0.3v-1.9
			C186.8,241.9,185.9,241.1,184.3,241.1z"/>
		<path class="st1" d="M199.1,239.3h-1.9c-1.6,0-2.5,0.9-2.5,2.5v1.8c0,0.2,0.1,0.3,0.3,0.3h1.8c0.2,0,0.3-0.1,0.3-0.3v-1.3
			c0-0.4,0.2-0.7,0.7-0.7h0.8c0.4,0,0.7,0.2,0.7,0.7v2.5l-4.1,2.2c-0.3,0.2-0.4,0.3-0.4,0.6v5.1c0,0.2,0.1,0.3,0.3,0.3h6.2
			c0.2,0,0.3-0.1,0.3-0.3v-2.6c0-0.2-0.1-0.3-0.3-0.3h-1.7c-0.2,0-0.3,0.1-0.3,0.3v0.7h-1.9c-0.2,0-0.3-0.1-0.3-0.3V249
			c0-0.2,0.1-0.3,0.2-0.4l3.8-2.1c0.3-0.2,0.5-0.3,0.5-0.6v-4.1C201.6,240.2,200.7,239.3,199.1,239.3z"/>
		<path class="st1" d="M208.7,239.3h-1.9c-1.6,0-2.5,0.9-2.5,2.5v8.8c0,1.6,0.9,2.5,2.5,2.5h1.9c1.6,0,2.5-0.9,2.5-2.5v-8.8
			C211.2,240.2,210.3,239.3,208.7,239.3z M208.9,250.2c0,0.5-0.2,0.7-0.7,0.7h-1c-0.4,0-0.7-0.2-0.7-0.7v-7.9c0-0.4,0.2-0.7,0.7-0.7
			h1c0.4,0,0.7,0.2,0.7,0.7V250.2z"/>
		<path class="st1" d="M218.2,239.3h-1.9c-1.6,0-2.5,0.9-2.5,2.5v1.8c0,0.2,0.1,0.3,0.3,0.3h1.8c0.2,0,0.3-0.1,0.3-0.3v-1.3
			c0-0.4,0.2-0.7,0.7-0.7h0.8c0.4,0,0.7,0.2,0.7,0.7v2.5l-4.1,2.2c-0.3,0.2-0.4,0.3-0.4,0.6v5.1c0,0.2,0.1,0.3,0.3,0.3h6.2
			c0.2,0,0.3-0.1,0.3-0.3v-2.6c0-0.2-0.1-0.3-0.3-0.3h-1.7c-0.2,0-0.3,0.1-0.3,0.3v0.7h-1.9c-0.2,0-0.3-0.1-0.3-0.3V249
			c0-0.2,0.1-0.3,0.2-0.4l3.8-2.1c0.3-0.2,0.5-0.3,0.5-0.6v-4.1C220.7,240.2,219.8,239.3,218.2,239.3z"/>
		<path class="st1" d="M230,245.6l-4.1-1.3v-2.7h3.9c0.2,0,0.3-0.1,0.3-0.3v-1.6c0-0.2-0.1-0.3-0.3-0.3h-5.8c-0.2,0-0.3,0.1-0.3,0.3
			v6c0,0.2,0.1,0.3,0.3,0.4l4.1,1.3v3.1c0,0.2-0.1,0.3-0.3,0.3h-1.9v-0.7c0-0.2-0.1-0.3-0.3-0.3h-1.7c-0.2,0-0.3,0.1-0.3,0.3v0.6
			c0,1.6,0.8,2.4,2.4,2.4h2.1c1.6,0,2.4-0.8,2.4-2.4V246C230.3,245.8,230.2,245.7,230,245.6z"/>
		<path class="st1" d="M60.5,95.6l2.9-2.3c0.3-0.3,0.4-0.6,0.2-1l-7.3-14.1l12.2,10.2c0.4,0.3,0.7,0.3,1,0.1l2.9-2.3
			c0.3-0.3,0.4-0.6,0.2-1L59.4,63.5c-0.3-0.4-0.6-0.5-1-0.2l-2.5,2c-0.3,0.3-0.4,0.6-0.1,1l8.6,13.5l-0.1,0.1L51.6,69.5
			c-0.3-0.3-0.7-0.3-1,0L49,70.7c-0.3,0.3-0.4,0.6-0.2,1l7.4,14.5l-0.1,0.1L44.9,75c-0.4-0.3-0.7-0.4-1-0.1l-2.5,2
			c-0.4,0.3-0.4,0.7,0,1l18.1,17.6C59.8,95.8,60.2,95.9,60.5,95.6z"/>
		<path class="st1" d="M73.4,56c-0.2-0.3-0.5-0.4-0.8-0.2l-4.2,2.1c-0.3,0.1-0.4,0.4-0.3,0.7l6.4,25.2c0.1,0.4,0.4,0.5,0.7,0.4
			l3-1.5c0.3-0.1,0.3-0.4,0.2-0.7l-1.2-4.8l5.7-2.9l3.1,3.8c0.2,0.3,0.5,0.4,0.7,0.2l2.9-1.5c0.4-0.2,0.4-0.5,0.1-0.8L73.4,56z
			 M76.2,72.9l-2.7-10.2L80,71L76.2,72.9z"/>
		<path class="st1" d="M89.8,66.6l3,8.7c0.2,0.5,0.5,0.6,0.9,0.5l3.1-1.1c0.4-0.1,0.6-0.5,0.4-0.9l-3-8.7l0.7-16.9
			c0-0.5-0.3-0.8-0.8-0.6l-3.2,1.1c-0.4,0.1-0.5,0.4-0.5,0.8l-0.4,10.5l-6.8-8c-0.3-0.3-0.6-0.5-0.9-0.3L79,52.8
			c-0.5,0.2-0.6,0.6-0.2,1L89.8,66.6z"/>
		<path class="st1" d="M113.7,43.9c-0.1-0.4-0.3-0.6-0.7-0.5l-3.1,0.6c-0.4,0.1-0.5,0.3-0.4,0.7l2.8,14.1l-9.1-13
			c-0.2-0.3-0.4-0.4-0.7-0.4L99.9,46c-0.3,0.1-0.5,0.3-0.4,0.7l4.9,24.9c0.1,0.4,0.3,0.6,0.7,0.5l3.1-0.6c0.4-0.1,0.5-0.3,0.4-0.7
			l-2.8-14.1l9.1,13c0.2,0.3,0.4,0.4,0.7,0.4l2.6-0.5c0.3-0.1,0.5-0.3,0.4-0.7L113.7,43.9z"/>
		<path class="st1" d="M121.7,69.1l12.5-0.8c0.4,0,0.5-0.3,0.5-0.6l-0.3-3.8c0-0.4-0.2-0.6-0.6-0.6l-8.4,0.6l-0.4-5.6l6.4-0.4
			c0.3,0,0.5-0.3,0.5-0.7l-0.2-3.8c0-0.4-0.2-0.6-0.6-0.6l-6.4,0.4l-0.4-5.8l8.4-0.6c0.4,0,0.5-0.3,0.5-0.7l-0.3-3.8
			c0-0.4-0.2-0.6-0.6-0.6l-12.5,0.8c-0.3,0-0.5,0.3-0.5,0.6l1.7,25.3C121.2,68.9,121.4,69.1,121.7,69.1z"/>
		<path class="st1" d="M160.6,47.9l0.4-3.8c0-0.4-0.1-0.6-0.5-0.7l-12.4-1.4c-0.3,0-0.6,0.2-0.6,0.5l-0.4,3.8c0,0.4,0.1,0.6,0.5,0.7
			l3.9,0.4l-2.3,20.9c0,0.4,0.1,0.6,0.5,0.7l3.5,0.4c0.4,0,0.6-0.1,0.6-0.5l2.3-20.9l3.9,0.4C160.3,48.5,160.5,48.2,160.6,47.9z"/>
		<path class="st1" d="M176.3,60.2l1.8-7.4c0.8-3.5-0.4-5.7-3.5-6.4l-7.9-1.9c-0.3-0.1-0.6,0.1-0.7,0.5l-5.8,24.7
			c-0.1,0.4,0.1,0.6,0.4,0.7l3.2,0.8c0.3,0.1,0.6-0.1,0.7-0.5l1.7-7.2l2.9,0.7l-0.1,7.7c0,0.3,0.1,0.6,0.4,0.7l3.2,0.8
			c0.4,0.1,0.6-0.1,0.6-0.6l0.2-8.4C174.8,63.7,175.8,62.4,176.3,60.2z M173.5,52.7l-1.3,5.6c-0.2,1-0.8,1.4-1.7,1.2l-3.3-0.8l2-8.5
			l3.3,0.8C173.4,51.1,173.8,51.7,173.5,52.7z"/>
		<path class="st1" d="M194.2,52.7l-4.4-1.7c-0.3-0.1-0.5,0-0.7,0.3l-14.5,21.6c-0.2,0.4-0.2,0.6,0.2,0.8l3.1,1.2
			c0.3,0.1,0.5,0,0.7-0.3l2.7-4.1l5.9,2.3l-0.7,4.9c-0.1,0.3,0,0.6,0.3,0.7l3.1,1.2c0.4,0.1,0.6,0,0.7-0.4l4-25.7
			C194.6,53.1,194.5,52.9,194.2,52.7z M187.8,68.4l-4-1.6l5.8-8.8L187.8,68.4z"/>
		<path class="st1" d="M207.4,78.8c0.2-0.3,0.1-0.6-0.2-0.8l-2.8-1.6c-0.3-0.2-0.6-0.1-0.8,0.3l-1.6,2.8c-0.5,0.9-1.2,1.1-1.9,0.6
			l-1.9-1.1c-0.8-0.4-0.9-1.1-0.4-2l7-11.9c0.5-0.9,1.1-1.1,1.9-0.6l1.9,1.1c0.8,0.4,0.9,1.1,0.4,2l-1.6,2.7
			c-0.2,0.3-0.2,0.6,0.2,0.8l2.8,1.6c0.3,0.2,0.6,0.1,0.8-0.3l2.1-3.5c1.8-3.1,1.3-5.6-1.5-7.2l-3.3-1.9c-2.8-1.6-5.2-0.8-7,2.2
			l-7.9,13.5c-1.8,3.1-1.3,5.6,1.5,7.2l3.3,1.9c2.7,1.6,5.2,0.8,7-2.3L207.4,78.8z"/>
		<path class="st1" d="M231.6,76.6l-9.5-8.1c-0.2-0.2-0.5-0.2-0.8,0.1l-16.5,19.3c-0.2,0.3-0.2,0.6,0,0.8l9.5,8.1
			c0.3,0.3,0.6,0.2,0.8-0.1l2.5-2.9c0.3-0.3,0.3-0.5,0-0.8l-6.4-5.5l3.7-4.3l4.8,4.2c0.3,0.2,0.6,0.2,0.8-0.1l2.5-2.9
			c0.3-0.3,0.3-0.6,0-0.8l-4.8-4.2L222,75l6.4,5.5c0.3,0.3,0.6,0.2,0.8-0.1l2.5-2.9C231.9,77.1,231.9,76.8,231.6,76.6z"/>
	</g>
</g>
</svg>
