<?xml version="1.0" encoding="utf-8"?>
<!-- Generator: Adobe Illustrator 24.2.0, SVG Export Plug-In . SVG Version: 6.00 Build 0)  -->
<svg version="1.1" xmlns="http://www.w3.org/2000/svg" xmlns:xlink="http://www.w3.org/1999/xlink" x="0px" y="0px"
	 viewBox="0 0 516.6 325.3" style="enable-background:new 0 0 516.6 325.3;" xml:space="preserve">
<style type="text/css">
	.st0{fill:#FFFFFF;}
	.st1{fill:#F9E04E;}
</style>
<g id="Layer_1">
</g>
<g id="Layer_2">
	<g>
		<polygon class="st0" points="107.2,256.4 85.7,64.3 94.1,64.3 114.7,248.1 143,248.1 166,122.8 189.5,122.8 212.5,248.1 
			240.9,248.1 261.1,64.3 269.5,64.3 248.3,256.4 205.7,256.4 182.7,131.1 172.8,131.1 149.9,256.4 		"/>
		<polygon class="st1" points="122.1,239.7 102.7,64.3 111.1,64.3 129.3,229.3 152,106.1 203.6,106.1 226.2,229.3 244.4,64.3 
			252.8,64.3 233.4,239.7 219.7,239.7 196.7,114.4 159.1,114.4 136.1,239.7 		"/>
		<rect x="310.4" y="64.3" class="st1" width="137.8" height="8.4"/>
		<rect x="310.4" y="81" class="st0" width="56.4" height="8.4"/>
		<polygon class="st1" points="358.4,273.1 358.4,106.1 310.4,106.1 310.4,97.7 366.7,97.7 366.7,273.1 		"/>
		<polygon class="st0" points="375.1,273.1 375.1,81 448.2,81 448.2,89.4 383.5,89.4 383.5,273.1 		"/>
		<polygon class="st1" points="391.8,273.1 391.8,97.7 448.2,97.7 448.2,106.1 400.2,106.1 400.2,273.1 		"/>
		<g>
			<path class="st1" d="M78.6,152.4l3.7-2.6l-0.2-1.6l-4,0.4l-0.3-3l9.6-1l0.5,4.7c0.2,1.4,0.1,2.6-0.3,3.5s-0.8,1.4-1.5,1.5
				l-1.1,0.1c-0.4,0-0.8-0.1-1.2-0.4c-0.4-0.3-0.7-0.8-1-1.5l-4,3L78.6,152.4z M83.5,148.1l0.2,1.6c0.1,0.6,0.2,1,0.4,1.3
				c0.2,0.3,0.4,0.4,0.7,0.4l1.1-0.1c0.3,0,0.5-0.2,0.6-0.6s0.1-0.8,0.1-1.4l-0.2-1.6L83.5,148.1z"/>
			<path class="st1" d="M81.9,163.8l-0.4-3.3l-2.2-0.4l-0.3-3l10,2.3l0.4,4.1l-9.2,4.4l-0.3-3.1L81.9,163.8z M83.3,163.3l3.9-1.7
				l-4.1-0.8L83.3,163.3z"/>
			<path class="st1" d="M90.1,169.1l0.3,3l-9.6,1l-0.3-3L90.1,169.1z"/>
			<path class="st1" d="M90.8,175.4l0.5,4.7c0.2,1.4,0.1,2.6-0.3,3.5s-0.8,1.4-1.5,1.5l-5,0.5c-0.7,0.1-1.3-0.3-1.8-1.1
				s-0.8-1.9-1-3.4l-0.5-4.7L90.8,175.4z M83,180.9c0.1,0.6,0.2,1,0.4,1.3s0.4,0.4,0.7,0.4l5.1-0.5c0.3,0,0.5-0.2,0.6-0.6
				s0.1-0.8,0.1-1.4l-0.2-1.6l-6.9,0.7L83,180.9z"/>
			<path class="st1" d="M92.1,187.9l0.9,8.6l-1.4,0.1l-0.6-5.6l-2.7,0.3l0.5,4.4l-1.4,0.1l-0.5-4.4l-2.8,0.3l0.6,5.6l-1.4,0.1
				l-0.9-8.6L92.1,187.9z"/>
			<path class="st1" d="M84.4,206.9l3.7-2.6l-0.2-1.6l-4,0.4l-0.3-3l9.6-1l0.5,4.7c0.2,1.4,0.1,2.6-0.3,3.5
				c-0.3,0.9-0.8,1.4-1.5,1.5l-1.1,0.1c-0.4,0-0.8-0.1-1.2-0.4c-0.4-0.3-0.7-0.8-1-1.5l-4,3L84.4,206.9z M89.4,202.6l0.2,1.6
				c0.1,0.6,0.2,1,0.4,1.3c0.2,0.3,0.4,0.4,0.7,0.4l1.1-0.1c0.3,0,0.5-0.2,0.6-0.6c0.1-0.3,0.1-0.8,0.1-1.4l-0.2-1.6L89.4,202.6z"/>
			<path class="st1" d="M85.4,214.2c0.1-0.8,0.3-1.4,0.7-1.8c0.3-0.5,0.7-0.7,1.2-0.7l0.3,0l0.5,2.9l-0.4,0c-0.3,0-0.6,0.2-0.8,0.6
				c-0.2,0.4-0.2,0.9-0.1,1.5c0.1,0.6,0.2,1.1,0.4,1.4c0.2,0.3,0.4,0.5,0.7,0.5c0.3,0,0.6-0.3,0.8-0.7c0.2-0.4,0.6-1.2,0.9-2.3
				c0.5-1.6,1-2.6,1.4-3.2c0.4-0.6,0.8-0.9,1.4-1c0.7-0.1,1.3,0.3,1.9,1c0.5,0.8,0.8,1.9,1,3.3s0.1,2.6-0.3,3.4
				c-0.3,0.9-0.9,1.3-1.6,1.4l-0.2,0l-0.5-2.9l0.3,0c0.4,0,0.6-0.2,0.8-0.5s0.2-0.7,0.2-1.3c-0.1-0.5-0.2-0.9-0.4-1.2
				c-0.2-0.3-0.4-0.4-0.7-0.4s-0.6,0.3-0.8,0.7c-0.2,0.4-0.6,1.2-1,2.3c-0.6,1.6-1,2.6-1.4,3.2c-0.4,0.6-0.8,0.9-1.3,1
				c-0.5,0-0.9-0.1-1.3-0.5c-0.4-0.4-0.7-0.9-1-1.6c-0.3-0.7-0.5-1.6-0.6-2.5C85.3,215.8,85.3,215,85.4,214.2z"/>
		</g>
		<g>
			<polygon class="st1" points="278.1,64.3 255.8,264.8 198.8,264.8 177.9,150.8 157,264.8 99.7,264.8 95,222.4 86.9,224.9 
				92.3,273.1 163.9,273.1 177.9,197.1 191.6,273.1 263.2,273.1 286.5,64.3 			"/>
			<polygon class="st1" points="86,141.5 77.4,64.3 69,64.3 77.7,142.5 			"/>
		</g>
	</g>
</g>
</svg>
